{
.appVersion = "1350";
DisplayStrings = (
"/A.alt C"
);
copyright = "Copyright (c) 1993-2015 by Peter S. Baker";
customParameters = (
{
name = uniqueID;
value = "FontForge 2.0 : BeowulfOT : 24-4-2009";
},
{
name = versionString;
value = "Version 1.000;hotconv 1.0.109;makeotfexe 2.5.65596";
},
{
name = codePageRanges;
value = (
1252
);
},
{
name = openTypeOS2FamilyClass;
value = (
0,
0
);
},
{
name = openTypeOS2Panose;
value = (
2,
0,
6,
3,
0,
0,
0,
0,
0,
0
);
},
{
name = strikeoutPosition;
value = 166;
},
{
name = strikeoutSize;
value = 20;
},
{
name = openTypeOS2SubscriptXOffset;
value = 0;
},
{
name = openTypeOS2SubscriptXSize;
value = 650;
},
{
name = openTypeOS2SubscriptYOffset;
value = 75;
},
{
name = openTypeOS2SubscriptYSize;
value = 600;
},
{
name = openTypeOS2SuperscriptXOffset;
value = 0;
},
{
name = openTypeOS2SuperscriptXSize;
value = 650;
},
{
name = openTypeOS2SuperscriptYOffset;
value = 350;
},
{
name = openTypeOS2SuperscriptYSize;
value = 600;
},
{
name = fsType;
value = (
);
},
{
name = unicodeRanges;
value = (
0,
1,
2,
3,
5,
6,
26,
29,
31,
60
);
},
{
name = vendorID;
value = PfEd;
},
{
name = blueFuzz;
value = 0;
},
{
name = blueScale;
value = 0.02273;
},
{
name = blueShift;
value = 6;
}
);
date = "2021-06-23 21:26:46 +0000";
disablesNiceNames = 1;
familyName = BeowulfOT;
featurePrefixes = (
{
code = "languagesystem DFLT dflt;\012languagesystem geor dflt;\012languagesystem grek dflt;\012languagesystem latn dflt;\012";
name = Languagesystems;
}
);
features = (
{

glyphs = (
{
glyphname = A;
lastChange = "2021-06-23 21:12:34 +0000";
layers = (
{
anchors = (
{
name = "Anchor-1";
position = "{349, 595}";
}
);
layerId = master01;
paths = (
{
closed = 1;
nodes = (
"-16 7 OFFCURVE",
"-14 3 OFFCURVE",
"-10 0 CURVE SMOOTH",
"9 0 OFFCURVE",
"39 -5 OFFCURVE",
"66 -5 CURVE SMOOTH",
"96 -5 OFFCURVE",
"127 -3 OFFCURVE",
"142 5 CURVE SMOOTH",
"145 7 OFFCURVE",
"146 10 OFFCURVE",
"146 14 CURVE SMOOTH",
"146 17 OFFCURVE",
"145 20 OFFCURVE",
"144 23 CURVE SMOOTH",
"127 27 OFFCURVE",
"104 28 OFFCURVE",
"95 40 CURVE",
"127 116 OFFCURVE",
"153 188 OFFCURVE",
"184 258 CURVE",
"265 172 OFFCURVE",
"334 167 OFFCURVE",
"439 167 CURVE",
"439 167 OFFCURVE",
"479 88 OFFCURVE",
"482 37 CURVE",
"475 32 OFFCURVE",
"438 20 OFFCURVE",
"431 20 CURVE SMOOTH",
"428 18 OFFCURVE",
"426 16 OFFCURVE",
"426 13 CURVE SMOOTH",
"426 9 OFFCURVE",
"429 4 OFFCURVE",
"435 3 CURVE SMOOTH",
"462 -5 OFFCURVE",
"519 -6 OFFCURVE",
"556 -6 CURVE SMOOTH",
"587 -6 OFFCURVE",
"629 1 OFFCURVE",
"649 8 CURVE SMOOTH",
"653 9 OFFCURVE",
"655 12 OFFCURVE",
"655 15 CURVE SMOOTH",
"655 20 OFFCURVE",
"652 26 OFFCURVE",
"649 29 CURVE SMOOTH",
"636 32 OFFCURVE",
"605 34 OFFCURVE",
"592 43 CURVE",
"559 119 OFFCURVE",
"536 195 OFFCURVE",
"510 260 CURVE SMOOTH",
"471 362 OFFCURVE",
"428 452 OFFCURVE",
"389 562 CURVE SMOOTH",
"382 582 OFFCURVE",
"371 585 OFFCURVE",
"361 585 CURVE SMOOTH",
"203 584 LINE",
"110 584 LINE",
"96 573 OFFCURVE",
"90 528 OFFCURVE",
"90 506 CURVE SMOOTH",
"90 500 LINE",
"110 524 OFFCURVE",
"142 553 OFFCURVE",
"182 553 CURVE SMOOTH",
"229 553 OFFCURVE",
"215 552 OFFCURVE",
"262 552 CURVE",
"249 518 OFFCURVE",
"219 457 OFFCURVE",
"207 427 CURVE SMOOTH",
"207 427 OFFCURVE",
"125 215 OFFCURVE",
"111 182 CURVE SMOOTH",
"91 134 OFFCURVE",
"82 117 OFFCURVE",
"62 69 CURVE SMOOTH",
"59 60 OFFCURVE",
"56 49 OFFCURVE",
"46 38 CURVE SMOOTH",
"35 31 OFFCURVE",
"6 23 OFFCURVE",
"-9 20 CURVE SMOOTH",
"-14 18 OFFCURVE",
"-16 15 OFFCURVE",
"-16 11 CURVE SMOOTH"
);
},
{
closed = 1;
nodes = (
"234 379 OFFCURVE",
"268 479 OFFCURVE",
"295 539 CURVE",
"419 217 LINE",
"321 217 OFFCURVE",
"250 241 OFFCURVE",
"208 315 CURVE"
);
}
);
userData = {
com.fontlab.hintData = {
hhints = (
{
position = -6;
width = 591;
},
{
position = 20;
width = 147;
},
{
position = 427;
width = 126;
}
);
vhints = (
{
position = -16;
width = 671;
}
);
};
};
width = 659;
}
);
leftKerningGroup = A;
rightKerningGroup = A;
unicode = 0041;
},
{
glyphname = Aacute;
lastChange = "2021-06-23 18:43:16 +0000";
layers = (
{
layerId = master01;
paths = (
{
closed = 1;
nodes = (
"580 729 OFFCURVE",
"561 738 OFFCURVE",
"540 738 CURVE SMOOTH",
"522 738 OFFCURVE",
"507 732 OFFCURVE",
"483 725 CURVE SMOOTH",
"409 703 OFFCURVE",
"284 666 OFFCURVE",
"238 636 CURVE",
"241 632 LINE",
"312 664 OFFCURVE",
"351 678 OFFCURVE",
"428 700 CURVE SMOOTH",
"454 708 OFFCURVE",
"471 715 OFFCURVE",
"490 715 CURVE SMOOTH",
"507 715 OFFCURVE",
"528 672 OFFCURVE",
"549 668 CURVE",
"564 672 OFFCURVE",
"590 698 OFFCURVE",
"591 709 CURVE"
);
},
{
closed = 1;
nodes = (
"653 9 OFFCURVE",
"655 12 OFFCURVE",
"655 15 CURVE SMOOTH",
"655 20 OFFCURVE",
"652 26 OFFCURVE",
"649 29 CURVE SMOOTH",
"636 32 OFFCURVE",
"605 34 OFFCURVE",
"592 43 CURVE",
"559 119 OFFCURVE",
"536 195 OFFCURVE",
"510 260 CURVE SMOOTH",
"471 362 OFFCURVE",
"428 452 OFFCURVE",
"389 562 CURVE SMOOTH",
"382 582 OFFCURVE",
"371 585 OFFCURVE",
"361 585 CURVE SMOOTH",
"203 584 LINE",
"110 584 LINE",
"96 573 OFFCURVE",
"90 528 OFFCURVE",
"90 506 CURVE SMOOTH",
"90 500 LINE",
"110 524 OFFCURVE",
"142 553 OFFCURVE",
"182 553 CURVE SMOOTH",
"229 553 OFFCURVE",
"215 552 OFFCURVE",
"262 552 CURVE",
"249 518 OFFCURVE",
"219 457 OFFCURVE",
"207 427 CURVE SMOOTH",
"207 427 OFFCURVE",
"125 215 OFFCURVE",
"111 182 CURVE SMOOTH",
"91 134 OFFCURVE",
"82 117 OFFCURVE",
"62 69 CURVE SMOOTH",
"59 60 OFFCURVE",
"56 49 OFFCURVE",
"46 38 CURVE SMOOTH",
"35 31 OFFCURVE",
"6 23 OFFCURVE",
"-9 20 CURVE SMOOTH",
"-14 18 OFFCURVE",
"-16 15 OFFCURVE",
"-16 11 CURVE SMOOTH",
"-16 7 OFFCURVE",
"-14 3 OFFCURVE",
"-10 0 CURVE SMOOTH",
"7 0 OFFCURVE",
"35 -5 OFFCURVE",
"61 -5 CURVE SMOOTH",
"66 -5 LINE SMOOTH",
"96 -4 OFFCURVE",
"127 -3 OFFCURVE",
"142 5 CURVE SMOOTH",
"147 8 OFFCURVE",
"147 17 OFFCURVE",
"144 23 CURVE",
"127 27 OFFCURVE",
"104 28 OFFCURVE",
"95 40 CURVE",
"127 116 OFFCURVE",
"153 188 OFFCURVE",
"184 258 CURVE",
"265 172 OFFCURVE",
"334 167 OFFCURVE",
"439 167 CURVE",
"439 167 OFFCURVE",
"479 88 OFFCURVE",
"482 37 CURVE",
"475 32 OFFCURVE",
"438 20 OFFCURVE",
"431 20 CURVE SMOOTH",
"423 16 OFFCURVE",
"425 6 OFFCURVE",
"435 3 CURVE SMOOTH",
"462 -5 OFFCURVE",
"519 -6 OFFCURVE",
"556 -6 CURVE SMOOTH",
"587 -6 OFFCURVE",
"629 1 OFFCURVE",
"649 8 CURVE SMOOTH"
);
},
{
closed = 1;
nodes = (
"321 217 OFFCURVE",
"250 241 OFFCURVE",
"208 315 CURVE",
"234 379 OFFCURVE",
"268 479 OFFCURVE",
"295 539 CURVE",
"419 217 LINE"
);
}
);
userData = {
com.fontlab.hintData = {
hhints = (
{
position = 20;
width = 147;
},
{
position = 427;
width = 126;
},
{
position = 584;
width = 48;
}
);
vhints = (
{
position = -16;
width = 671;
}
);
};
};
width = 659;
}
);
leftKerningGroup = A;
rightKerningGroup = A;
unicode = 00C1;
},
{
glyphname = Acircumflex;
lastChange = "2021-06-23 18:43:16 +0000";
layers = (
{
layerId = master01;
paths = (
{
closed = 1;
nodes = (
"169 637 OFFCURVE",
"172 633 OFFCURVE",
"177 633 CURVE SMOOTH",
"179 633 OFFCURVE",
"182 634 OFFCURVE",
"186 636 CURVE SMOOTH",
"222 659 OFFCURVE",
"257 683 OFFCURVE",
"294 706 CURVE SMOOTH",
"304 712 OFFCURVE",
"309 715 OFFCURVE",
"314 715 CURVE SMOOTH",
"320 715 OFFCURVE",
"326 711 OFFCURVE",
"336 705 CURVE SMOOTH",
"443 636 LINE SMOOTH",
"447 634 OFFCURVE",
"450 633 OFFCURVE",
"452 633 CURVE SMOOTH",
"457 633 OFFCURVE",
"460 637 OFFCURVE",
"460 643 CURVE SMOOTH",
"460 650 OFFCURVE",
"456 658 OFFCURVE",
"448 664 CURVE SMOOTH",
"409 692 OFFCURVE",
"371 721 OFFCURVE",
"330 746 CURVE SMOOTH",
"327 748 OFFCURVE",
"323 749 OFFCURVE",
"318 749 CURVE SMOOTH",
"310 749 OFFCURVE",
"300 747 OFFCURVE",
"296 744 CURVE SMOOTH",
"257 719 OFFCURVE",
"219 691 OFFCURVE",
"181 664 CURVE SMOOTH",
"173 658 OFFCURVE",
"169 650 OFFCURVE",
"169 643 CURVE SMOOTH"
);
},
{
closed = 1;
nodes = (
"653 9 OFFCURVE",
"655 12 OFFCURVE",
"655 15 CURVE SMOOTH",
"655 20 OFFCURVE",
"652 26 OFFCURVE",
"649 29 CURVE SMOOTH",
"636 32 OFFCURVE",
"605 34 OFFCURVE",
"592 43 CURVE",
"559 119 OFFCURVE",
"536 195 OFFCURVE",
"510 260 CURVE SMOOTH",
"471 362 OFFCURVE",
"428 452 OFFCURVE",
"389 562 CURVE SMOOTH",
"382 582 OFFCURVE",
"371 585 OFFCURVE",
"361 585 CURVE SMOOTH",
"203 584 LINE",
"110 584 LINE",
"96 573 OFFCURVE",
"90 528 OFFCURVE",
"90 506 CURVE SMOOTH",
"90 500 LINE",
"110 524 OFFCURVE",
"142 553 OFFCURVE",
"182 553 CURVE SMOOTH",
"229 553 OFFCURVE",
"215 552 OFFCURVE",
"262 552 CURVE",
"249 518 OFFCURVE",
"219 457 OFFCURVE",
"207 427 CURVE SMOOTH",
"207 427 OFFCURVE",
"125 215 OFFCURVE",
"111 182 CURVE SMOOTH",
"91 134 OFFCURVE",
"82 117 OFFCURVE",
"62 69 CURVE SMOOTH",
"59 60 OFFCURVE",
"56 49 OFFCURVE",
"46 38 CURVE SMOOTH",
"35 31 OFFCURVE",
"6 23 OFFCURVE",
"-9 20 CURVE SMOOTH",
"-14 18 OFFCURVE",
"-16 15 OFFCURVE",
"-16 11 CURVE SMOOTH",
"-16 7 OFFCURVE",
"-14 3 OFFCURVE",
"-10 0 CURVE SMOOTH",
"9 0 OFFCURVE",
"39 -5 OFFCURVE",
"66 -5 CURVE SMOOTH",
"96 -5 OFFCURVE",
"127 -3 OFFCURVE",
"142 5 CURVE SMOOTH",
"145 7 OFFCURVE",
"146 10 OFFCURVE",
"146 14 CURVE SMOOTH",
"146 17 OFFCURVE",
"145 20 OFFCURVE",
"144 23 CURVE SMOOTH",
"127 27 OFFCURVE",
"104 28 OFFCURVE",
"95 40 CURVE",
"127 116 OFFCURVE",
"153 188 OFFCURVE",
"184 258 CURVE",
"265 172 OFFCURVE",
"334 167 OFFCURVE",
"439 167 CURVE",
"439 167 OFFCURVE",
"479 88 OFFCURVE",
"482 37 CURVE",
"475 32 OFFCURVE",
"438 20 OFFCURVE",
"431 20 CURVE SMOOTH",
"428 18 OFFCURVE",
"426 16 OFFCURVE",
"426 13 CURVE SMOOTH",
"426 9 OFFCURVE",
"429 4 OFFCURVE",
"435 3 CURVE SMOOTH",
"462 -5 OFFCURVE",
"519 -6 OFFCURVE",
"556 -6 CURVE SMOOTH",
"587 -6 OFFCURVE",
"629 1 OFFCURVE",
"649 8 CURVE SMOOTH"
);
},
{
closed = 1;
nodes = (
"321 217 OFFCURVE",
"250 241 OFFCURVE",
"208 315 CURVE",
"234 379 OFFCURVE",
"268 479 OFFCURVE",
"295 539 CURVE",
"419 217 LINE"
);
}
);
userData = {
com.fontlab.hintData = {
hhints = (
{
position = 20;
width = 147;
},
{
position = 427;
width = 126;
},
{
position = 584;
width = 49;
}
);
vhints = (
{
position = -16;
width = 671;
}
);
};
};
width = 659;
}
);
leftKerningGroup = A;
rightKerningGroup = A;
unicode = 00C2;
},
{
glyphname = Adieresis;
lastChange = "2021-06-23 18:43:16 +0000";
layers = (
{
layerId = master01;
paths = (
{
closed = 1;
nodes = (
"211 655 OFFCURVE",
"218 641 OFFCURVE",
"235 641 CURVE SMOOTH",
"243 641 OFFCURVE",
"251 644 OFFCURVE",
"260 650 CURVE SMOOTH",
"274 659 OFFCURVE",
"275 662 OFFCURVE",
"275 684 CURVE SMOOTH",
"275 706 OFFCURVE",
"269 717 OFFCURVE",
"258 717 CURVE SMOOTH",
"254 717 OFFCURVE",
"249 715 OFFCURVE",
"243 712 CURVE SMOOTH",
"222 701 OFFCURVE",
"211 686 OFFCURVE",
"211 669 CURVE SMOOTH"
);
},
{
closed = 1;
nodes = (
"329 655 OFFCURVE",
"337 641 OFFCURVE",
"354 641 CURVE SMOOTH",
"362 641 OFFCURVE",
"370 644 OFFCURVE",
"379 650 CURVE SMOOTH",
"393 659 OFFCURVE",
"393 662 OFFCURVE",
"393 684 CURVE SMOOTH",
"393 706 OFFCURVE",
"388 717 OFFCURVE",
"377 717 CURVE SMOOTH",
"373 717 OFFCURVE",
"368 715 OFFCURVE",
"362 712 CURVE SMOOTH",
"341 701 OFFCURVE",
"329 686 OFFCURVE",
"329 669 CURVE SMOOTH"
);
},
{
closed = 1;
nodes = (
"653 9 OFFCURVE",
"655 12 OFFCURVE",
"655 15 CURVE SMOOTH",
"655 20 OFFCURVE",
"652 26 OFFCURVE",
"649 29 CURVE SMOOTH",
"636 32 OFFCURVE",
"605 34 OFFCURVE",
"592 43 CURVE",
"559 119 OFFCURVE",
"536 195 OFFCURVE",
"510 260 CURVE SMOOTH",
"471 362 OFFCURVE",
"428 452 OFFCURVE",
"389 562 CURVE SMOOTH",
"382 582 OFFCURVE",
"371 585 OFFCURVE",
"361 585 CURVE SMOOTH",
"203 584 LINE",
"110 584 LINE",
"96 573 OFFCURVE",
"90 528 OFFCURVE",
"90 506 CURVE SMOOTH",
"90 500 LINE",
"110 524 OFFCURVE",
"142 553 OFFCURVE",
"182 553 CURVE SMOOTH",
"229 553 OFFCURVE",
"215 552 OFFCURVE",
"262 552 CURVE",
"249 518 OFFCURVE",
"219 457 OFFCURVE",
"207 427 CURVE SMOOTH",
"207 427 OFFCURVE",
"125 215 OFFCURVE",
"111 182 CURVE SMOOTH",
"91 134 OFFCURVE",
"82 117 OFFCURVE",
"62 69 CURVE SMOOTH",
"59 60 OFFCURVE",
"56 49 OFFCURVE",
"46 38 CURVE SMOOTH",
"35 31 OFFCURVE",
"6 23 OFFCURVE",
"-9 20 CURVE SMOOTH",
"-14 18 OFFCURVE",
"-16 15 OFFCURVE",
"-16 11 CURVE SMOOTH",
"-16 7 OFFCURVE",
"-14 3 OFFCURVE",
"-10 0 CURVE SMOOTH",
"9 0 OFFCURVE",
"39 -5 OFFCURVE",
"66 -5 CURVE SMOOTH",
"96 -5 OFFCURVE",
"127 -3 OFFCURVE",
"142 5 CURVE SMOOTH",
"145 7 OFFCURVE",
"146 10 OFFCURVE",
"146 14 CURVE SMOOTH",
"146 17 OFFCURVE",
"145 20 OFFCURVE",
"144 23 CURVE SMOOTH",
"127 27 OFFCURVE",
"104 28 OFFCURVE",
"95 40 CURVE",
"127 116 OFFCURVE",
"153 188 OFFCURVE",
"184 258 CURVE",
"265 172 OFFCURVE",
"334 167 OFFCURVE",
"439 167 CURVE",
"439 167 OFFCURVE",
"479 88 OFFCURVE",
"482 37 CURVE",
"475 32 OFFCURVE",
"438 20 OFFCURVE",
"431 20 CURVE SMOOTH",
"428 18 OFFCURVE",
"426 16 OFFCURVE",
"426 13 CURVE SMOOTH",
"426 9 OFFCURVE",
"429 4 OFFCURVE",
"435 3 CURVE SMOOTH",
"462 -5 OFFCURVE",
"519 -6 OFFCURVE",
"556 -6 CURVE SMOOTH",
"587 -6 OFFCURVE",
"629 1 OFFCURVE",
"649 8 CURVE SMOOTH"
);
},
{
closed = 1;
nodes = (
"321 217 OFFCURVE",
"250 241 OFFCURVE",
"208 315 CURVE",
"234 379 OFFCURVE",
"268 479 OFFCURVE",
"295 539 CURVE",
"419 217 LINE"
);
}
);
userData = {
com.fontlab.hintData = {
hhints = (
{
position = 20;
width = 147;
},
{
position = 427;
width = 126;
},
{
position = 584;
width = 57;
}
);
vhints = (
{
position = 275;
width = 54;
}
);
};
};
width = 659;
}
);
leftKerningGroup = A;
rightKerningGroup = A;
unicode = 00C4;
},
{
glyphname = Agrave;
lastChange = "2021-06-23 18:43:16 +0000";
layers = (
{
layerId = master01;
paths = (
{
closed = 1;
nodes = (
"37 698 OFFCURVE",
"62 672 OFFCURVE",
"77 668 CURVE",
"98 672 OFFCURVE",
"119 715 OFFCURVE",
"136 715 CURVE SMOOTH",
"155 715 OFFCURVE",
"173 708 OFFCURVE",
"199 700 CURVE SMOOTH",
"276 678 OFFCURVE",
"315 664 OFFCURVE",
"386 632 CURVE",
"388 636 LINE",
"342 666 OFFCURVE",
"218 703 OFFCURVE",
"144 725 CURVE SMOOTH",
"120 732 OFFCURVE",
"105 738 OFFCURVE",
"87 738 CURVE SMOOTH",
"66 738 OFFCURVE",
"47 729 OFFCURVE",
"36 709 CURVE"
);
},
{
closed = 1;
nodes = (
"653 9 OFFCURVE",
"655 12 OFFCURVE",
"655 15 CURVE SMOOTH",
"655 20 OFFCURVE",
"652 26 OFFCURVE",
"649 29 CURVE SMOOTH",
"636 32 OFFCURVE",
"605 34 OFFCURVE",
"592 43 CURVE",
"559 119 OFFCURVE",
"536 195 OFFCURVE",
"510 260 CURVE SMOOTH",
"471 362 OFFCURVE",
"428 452 OFFCURVE",
"389 562 CURVE SMOOTH",
"382 582 OFFCURVE",
"371 585 OFFCURVE",
"361 585 CURVE SMOOTH",
"203 584 LINE",
"110 584 LINE",
"96 573 OFFCURVE",
"90 528 OFFCURVE",
"90 506 CURVE SMOOTH",
"90 500 LINE",
"110 524 OFFCURVE",
"142 553 OFFCURVE",
"182 553 CURVE SMOOTH",
"229 553 OFFCURVE",
"215 552 OFFCURVE",
"262 552 CURVE",
"249 518 OFFCURVE",
"219 457 OFFCURVE",
"207 427 CURVE SMOOTH",
"207 427 OFFCURVE",
"125 215 OFFCURVE",
"111 182 CURVE SMOOTH",
"91 134 OFFCURVE",
"82 117 OFFCURVE",
"62 69 CURVE SMOOTH",
"59 60 OFFCURVE",
"56 49 OFFCURVE",
"46 38 CURVE SMOOTH",
"35 31 OFFCURVE",
"6 23 OFFCURVE",
"-9 20 CURVE SMOOTH",
"-14 18 OFFCURVE",
"-16 15 OFFCURVE",
"-16 11 CURVE SMOOTH",
"-16 7 OFFCURVE",
"-14 3 OFFCURVE",
"-10 0 CURVE SMOOTH",
"9 0 OFFCURVE",
"39 -5 OFFCURVE",
"66 -5 CURVE SMOOTH",
"96 -5 OFFCURVE",
"127 -3 OFFCURVE",
"142 5 CURVE SMOOTH",
"145 7 OFFCURVE",
"146 10 OFFCURVE",
"146 14 CURVE SMOOTH",
"146 17 OFFCURVE",
"145 20 OFFCURVE",
"144 23 CURVE SMOOTH",
"127 27 OFFCURVE",
"104 28 OFFCURVE",
"95 40 CURVE",
"127 116 OFFCURVE",
"153 188 OFFCURVE",
"184 258 CURVE",
"265 172 OFFCURVE",
"334 167 OFFCURVE",
"439 167 CURVE",
"439 167 OFFCURVE",
"479 88 OFFCURVE",
"482 37 CURVE",
"475 32 OFFCURVE",
"438 20 OFFCURVE",
"431 20 CURVE SMOOTH",
"428 18 OFFCURVE",
"426 16 OFFCURVE",
"426 13 CURVE SMOOTH",
"426 9 OFFCURVE",
"429 4 OFFCURVE",
"435 3 CURVE SMOOTH",
"462 -5 OFFCURVE",
"519 -6 OFFCURVE",
"556 -6 CURVE SMOOTH",
"587 -6 OFFCURVE",
"629 1 OFFCURVE",
"649 8 CURVE SMOOTH"
);
},
{
closed = 1;
nodes = (
"321 217 OFFCURVE",
"250 241 OFFCURVE",
"208 315 CURVE",
"234 379 OFFCURVE",
"268 479 OFFCURVE",
"295 539 CURVE",
"419 217 LINE"
);
}
);
userData = {
com.fontlab.hintData = {
hhints = (
{
position = 20;
width = 147;
},
{
position = 427;
width = 126;
},
{
position = 584;
width = 48;
},
{
position = 584;
width = 131;
}
);
vhints = (
{
position = -16;
width = 671;
}
);
};
};
width = 659;
}
);
leftKerningGroup = A;
rightKerningGroup = A;
unicode = 00C0;
},
{
glyphname = Amacron;
lastChange = "2021-06-23 18:43:16 +0000";
layers = (
{
layerId = master01;
paths = (
{
closed = 1;
nodes = (
"492 722 OFFCURVE",
"472 722 OFFCURVE",
"455 722 CURVE SMOOTH",
"427 722 OFFCURVE",
"268 704 OFFCURVE",
"234 704 CURVE SMOOTH",
"214 704 OFFCURVE",
"217 722 OFFCURVE",
"203 722 CURVE SMOOTH",
"184 722 OFFCURVE",
"158 692 OFFCURVE",
"158 676 CURVE SMOOTH",
"158 660 OFFCURVE",
"170 659 OFFCURVE",
"189 659 CURVE SMOOTH",
"212 659 OFFCURVE",
"395 675 OFFCURVE",
"419 675 CURVE SMOOTH",
"428 675 OFFCURVE",
"431 656 OFFCURVE",
"443 656 CURVE SMOOTH",
"465 656 OFFCURVE",
"492 693 OFFCURVE",
"492 706 CURVE SMOOTH"
);
},
{
closed = 1;
nodes = (
"653 9 OFFCURVE",
"655 12 OFFCURVE",
"655 15 CURVE SMOOTH",
"655 20 OFFCURVE",
"652 26 OFFCURVE",
"649 29 CURVE SMOOTH",
"636 32 OFFCURVE",
"605 34 OFFCURVE",
"592 43 CURVE",
"559 119 OFFCURVE",
"536 195 OFFCURVE",
"510 260 CURVE SMOOTH",
"471 362 OFFCURVE",
"428 452 OFFCURVE",
"389 562 CURVE SMOOTH",
"382 582 OFFCURVE",
"371 585 OFFCURVE",
"361 585 CURVE SMOOTH",
"203 584 LINE",
"110 584 LINE",
"96 573 OFFCURVE",
"90 528 OFFCURVE",
"90 506 CURVE SMOOTH",
"90 500 LINE",
"110 524 OFFCURVE",
"142 553 OFFCURVE",
"182 553 CURVE SMOOTH",
"229 553 OFFCURVE",
"215 552 OFFCURVE",
"262 552 CURVE",
"249 518 OFFCURVE",
"219 457 OFFCURVE",
"207 427 CURVE SMOOTH",
"207 427 OFFCURVE",
"125 215 OFFCURVE",
"111 182 CURVE SMOOTH",
"91 134 OFFCURVE",
"82 117 OFFCURVE",
"62 69 CURVE SMOOTH",
"59 60 OFFCURVE",
"56 49 OFFCURVE",
"46 38 CURVE SMOOTH",
"35 31 OFFCURVE",
"6 23 OFFCURVE",
"-9 20 CURVE SMOOTH",
"-14 18 OFFCURVE",
"-16 15 OFFCURVE",
"-16 11 CURVE SMOOTH",
"-16 7 OFFCURVE",
"-14 3 OFFCURVE",
"-10 0 CURVE SMOOTH",
"7 0 OFFCURVE",
"35 -5 OFFCURVE",
"61 -5 CURVE SMOOTH",
"66 -5 LINE SMOOTH",
"96 -4 OFFCURVE",
"127 -3 OFFCURVE",
"142 5 CURVE SMOOTH",
"147 8 OFFCURVE",
"147 17 OFFCURVE",
"144 23 CURVE",
"127 27 OFFCURVE",
"104 28 OFFCURVE",
"95 40 CURVE",
"127 116 OFFCURVE",
"153 188 OFFCURVE",
"184 258 CURVE",
"265 172 OFFCURVE",
"334 167 OFFCURVE",
"439 167 CURVE",
"439 167 OFFCURVE",
"479 88 OFFCURVE",
"482 37 CURVE",
"475 32 OFFCURVE",
"438 20 OFFCURVE",
"431 20 CURVE SMOOTH",
"423 16 OFFCURVE",
"425 6 OFFCURVE",
"435 3 CURVE SMOOTH",
"462 -5 OFFCURVE",
"519 -6 OFFCURVE",
"556 -6 CURVE SMOOTH",
"587 -6 OFFCURVE",
"629 1 OFFCURVE",
"649 8 CURVE SMOOTH"
);
},
{
closed = 1;
nodes = (
"321 217 OFFCURVE",
"250 241 OFFCURVE",
"208 315 CURVE",
"234 379 OFFCURVE",
"268 479 OFFCURVE",
"295 539 CURVE",
"419 217 LINE"
);
}
);
userData = {
com.fontlab.hintData = {
hhints = (
{
position = 20;
width = 147;
},
{
position = 427;
width = 126;
},
{
position = 584;
width = 75;
},
{
position = 584;
width = 91;
}
);
vhints = (
{
position = -16;
width = 671;
}
);
};
};
width = 659;
}
);
leftKerningGroup = A;
rightKerningGroup = A;
unicode = 0100;
},
{
glyphname = Aring;
lastChange = "2021-06-23 18:43:16 +0000";
layers = (
{
layerId = master01;
paths = (
{
closed = 1;
nodes = (
"653 9 OFFCURVE",
"655 12 OFFCURVE",
"655 15 CURVE SMOOTH",
"655 20 OFFCURVE",
"652 26 OFFCURVE",
"649 29 CURVE SMOOTH",
"636 32 OFFCURVE",
"605 34 OFFCURVE",
"592 43 CURVE",
"559 119 OFFCURVE",
"536 195 OFFCURVE",
"510 260 CURVE SMOOTH",
"471 361 OFFCURVE",
"429 450 OFFCURVE",
"390 559 CURVE",
"395 564 LINE SMOOTH",
"411 583 OFFCURVE",
"415 611 OFFCURVE",
"415 624 CURVE SMOOTH",
"415 649 OFFCURVE",
"399 728 OFFCURVE",
"349 728 CURVE SMOOTH",
"265 728 OFFCURVE",
"230 658 OFFCURVE",
"230 590 CURVE SMOOTH",
"230 556 OFFCURVE",
"237 535 OFFCURVE",
"250 522 CURVE",
"235 489 OFFCURVE",
"216 449 OFFCURVE",
"207 427 CURVE SMOOTH",
"207 427 OFFCURVE",
"125 215 OFFCURVE",
"111 182 CURVE SMOOTH",
"91 134 OFFCURVE",
"82 117 OFFCURVE",
"62 69 CURVE SMOOTH",
"59 60 OFFCURVE",
"56 49 OFFCURVE",
"46 38 CURVE SMOOTH",
"35 31 OFFCURVE",
"6 23 OFFCURVE",
"-9 20 CURVE SMOOTH",
"-14 18 OFFCURVE",
"-16 15 OFFCURVE",
"-16 11 CURVE SMOOTH",
"-16 7 OFFCURVE",
"-14 3 OFFCURVE",
"-10 0 CURVE SMOOTH",
"9 0 OFFCURVE",
"39 -5 OFFCURVE",
"66 -5 CURVE SMOOTH",
"96 -5 OFFCURVE",
"127 -3 OFFCURVE",
"142 5 CURVE SMOOTH",
"145 7 OFFCURVE",
"146 10 OFFCURVE",
"146 14 CURVE SMOOTH",
"146 17 OFFCURVE",
"145 20 OFFCURVE",
"144 23 CURVE SMOOTH",
"127 27 OFFCURVE",
"104 28 OFFCURVE",
"95 40 CURVE",
"127 116 OFFCURVE",
"153 188 OFFCURVE",
"184 258 CURVE",
"265 172 OFFCURVE",
"334 167 OFFCURVE",
"439 167 CURVE",
"439 167 OFFCURVE",
"479 88 OFFCURVE",
"482 37 CURVE",
"475 32 OFFCURVE",
"438 20 OFFCURVE",
"431 20 CURVE SMOOTH",
"428 18 OFFCURVE",
"426 16 OFFCURVE",
"426 13 CURVE SMOOTH",
"426 9 OFFCURVE",
"429 4 OFFCURVE",
"435 3 CURVE SMOOTH",
"462 -5 OFFCURVE",
"519 -6 OFFCURVE",
"556 -6 CURVE SMOOTH",
"587 -6 OFFCURVE",
"629 1 OFFCURVE",
"649 8 CURVE SMOOTH"
);
},
{
closed = 1;
nodes = (
"365 594 OFFCURVE",
"361 557 OFFCURVE",
"334 557 CURVE SMOOTH",
"289 557 OFFCURVE",
"276 617 OFFCURVE",
"276 648 CURVE SMOOTH",
"276 675 OFFCURVE",
"287 697 OFFCURVE",
"310 697 CURVE SMOOTH",
"333 697 OFFCURVE",
"365 638 OFFCURVE",
"365 616 CURVE SMOOTH"
);
},
{
closed = 1;
nodes = (
"287 507 OFFCURVE",
"292 507 OFFCURVE",
"297 507 CURVE SMOOTH",
"300 507 OFFCURVE",
"303 507 OFFCURVE",
"307 508 CURVE",
"419 217 LINE",
"321 217 OFFCURVE",
"250 241 OFFCURVE",
"208 315 CURVE",
"229 369 OFFCURVE",
"258 448 OFFCURVE",
"282 508 CURVE"
);
}
);
userData = {
com.fontlab.hintData = {
hhints = (
{
position = 20;
width = 147;
},
{
position = 557;
width = 140;
},
{
position = 677;
width = 20;
}
);
vhints = (
{
position = 276;
width = 89;
}
);
};
};
width = 659;
}
);
leftKerningGroup = A;
rightKerningGroup = A;
unicode = 00C5;
},
{
glyphname = Atilde;
lastChange = "2021-06-23 18:43:16 +0000";
layers = (
{
layerId = master01;
paths = (
{
closed = 1;
nodes = (
"170 660 OFFCURVE",
"192 652 OFFCURVE",
"212 652 CURVE SMOOTH",
"221 652 OFFCURVE",
"229 653 OFFCURVE",
"235 656 CURVE SMOOTH",
"262 667 OFFCURVE",
"286 682 OFFCURVE",
"315 691 CURVE SMOOTH",
"320 692 OFFCURVE",
"323 693 OFFCURVE",
"327 693 CURVE SMOOTH",
"363 693 OFFCURVE",
"353 632 OFFCURVE",
"382 632 CURVE SMOOTH",
"404 632 OFFCURVE",
"419 653 OFFCURVE",
"432 664 CURVE SMOOTH",
"438 669 OFFCURVE",
"440 675 OFFCURVE",
"440 681 CURVE SMOOTH",
"440 689 OFFCURVE",
"436 696 OFFCURVE",
"430 701 CURVE SMOOTH",
"415 714 OFFCURVE",
"398 733 OFFCURVE",
"371 733 CURVE SMOOTH",
"361 733 OFFCURVE",
"351 730 OFFCURVE",
"343 727 CURVE SMOOTH",
"327 721 OFFCURVE",
"311 714 OFFCURVE",
"297 707 CURVE SMOOTH",
"290 704 OFFCURVE",
"283 702 OFFCURVE",
"277 702 CURVE SMOOTH",
"261 702 OFFCURVE",
"247 712 OFFCURVE",
"244 729 CURVE SMOOTH",
"242 739 OFFCURVE",
"237 742 OFFCURVE",
"231 742 CURVE SMOOTH",
"223 742 OFFCURVE",
"212 736 OFFCURVE",
"207 732 CURVE SMOOTH",
"192 720 OFFCURVE",
"170 703 OFFCURVE",
"170 678 CURVE SMOOTH"
);
},
{
closed = 1;
nodes = (
"653 9 OFFCURVE",
"655 12 OFFCURVE",
"655 15 CURVE SMOOTH",
"655 20 OFFCURVE",
"652 26 OFFCURVE",
"649 29 CURVE SMOOTH",
"636 32 OFFCURVE",
"605 34 OFFCURVE",
"592 43 CURVE",
"559 119 OFFCURVE",
"536 195 OFFCURVE",
"510 260 CURVE SMOOTH",
"471 362 OFFCURVE",
"428 452 OFFCURVE",
"389 562 CURVE SMOOTH",
"382 582 OFFCURVE",
"371 585 OFFCURVE",
"361 585 CURVE SMOOTH",
"203 584 LINE",
"110 584 LINE",
"96 573 OFFCURVE",
"90 528 OFFCURVE",
"90 506 CURVE SMOOTH",
"90 500 LINE",
"110 524 OFFCURVE",
"142 553 OFFCURVE",
"182 553 CURVE SMOOTH",
"229 553 OFFCURVE",
"215 552 OFFCURVE",
"262 552 CURVE",
"249 518 OFFCURVE",
"219 457 OFFCURVE",
"207 427 CURVE SMOOTH",
"207 427 OFFCURVE",
"125 215 OFFCURVE",
"111 182 CURVE SMOOTH",
"91 134 OFFCURVE",
"82 117 OFFCURVE",
"62 69 CURVE SMOOTH",
"59 60 OFFCURVE",
"56 49 OFFCURVE",
"46 38 CURVE SMOOTH",
"35 31 OFFCURVE",
"6 23 OFFCURVE",
"-9 20 CURVE SMOOTH",
"-14 18 OFFCURVE",
"-16 15 OFFCURVE",
"-16 11 CURVE SMOOTH",
"-16 7 OFFCURVE",
"-14 3 OFFCURVE",
"-10 0 CURVE SMOOTH",
"9 0 OFFCURVE",
"39 -5 OFFCURVE",
"66 -5 CURVE SMOOTH",
"96 -5 OFFCURVE",
"127 -3 OFFCURVE",
"142 5 CURVE SMOOTH",
"145 7 OFFCURVE",
"146 10 OFFCURVE",
"146 14 CURVE SMOOTH",
"146 17 OFFCURVE",
"145 20 OFFCURVE",
"144 23 CURVE SMOOTH",
"127 27 OFFCURVE",
"104 28 OFFCURVE",
"95 40 CURVE",
"127 116 OFFCURVE",
"153 188 OFFCURVE",
"184 258 CURVE",
"265 172 OFFCURVE",
"334 167 OFFCURVE",
"439 167 CURVE",
"439 167 OFFCURVE",
"479 88 OFFCURVE",
"482 37 CURVE",
"475 32 OFFCURVE",
"438 20 OFFCURVE",
"431 20 CURVE SMOOTH",
"428 18 OFFCURVE",
"426 16 OFFCURVE",
"426 13 CURVE SMOOTH",
"426 9 OFFCURVE",
"429 4 OFFCURVE",
"435 3 CURVE SMOOTH",
"462 -5 OFFCURVE",
"519 -6 OFFCURVE",
"556 -6 CURVE SMOOTH",
"587 -6 OFFCURVE",
"629 1 OFFCURVE",
"649 8 CURVE SMOOTH"
);
},
{
closed = 1;
nodes = (
"321 217 OFFCURVE",
"250 241 OFFCURVE",
"208 315 CURVE",
"234 379 OFFCURVE",
"268 479 OFFCURVE",
"295 539 CURVE",
"419 217 LINE"
);
}
);
userData = {
com.fontlab.hintData = {
hhints = (
{
position = 20;
width = 147;
},
{
position = 427;
width = 126;
},
{
position = 584;
width = 48;
},
{
position = 584;
width = 68;
},
{
position = 584;
width = 109;
}
);
vhints = (
{
position = -16;
width = 671;
}
);
};
};
width = 659;
}
);
leftKerningGroup = A;
rightKerningGroup = A;
unicode = 00C3;
},
{
glyphname = AE;
lastChange = "2021-06-23 21:11:31 +0000";
layers = (
{
anchors = (
{
name = "Anchor-1";
position = "{406, 595}";
}
);
layerId = master01;
paths = (
{
closed = 1;
nodes = (
"675 97 OFFCURVE",
"665 100 OFFCURVE",
"658 94 CURVE SMOOTH",
"648 75 OFFCURVE",
"615 42 OFFCURVE",
"596 34 CURVE",
"574 30 OFFCURVE",
"559 30 OFFCURVE",
"544 30 CURVE SMOOTH",
"516 30 LINE SMOOTH",
"474 30 OFFCURVE",
"455 32 OFFCURVE",
"440 38 CURVE",
"439 65 OFFCURVE",
"440 222 OFFCURVE",
"439 251 CURVE",
"514 251 OFFCURVE",
"595 250 OFFCURVE",
"607 250 CURVE SMOOTH",
"634 250 OFFCURVE",
"645 225 OFFCURVE",
"649 210 CURVE SMOOTH",
"652 204 OFFCURVE",
"670 207 OFFCURVE",
"671 211 CURVE SMOOTH",
"672 213 OFFCURVE",
"672 223 OFFCURVE",
"672 237 CURVE SMOOTH",
"672 276 OFFCURVE",
"669 345 OFFCURVE",
"669 345 CURVE SMOOTH",
"666 350 OFFCURVE",
"654 350 OFFCURVE",
"651 346 CURVE SMOOTH",
"648 331 OFFCURVE",
"634 306 OFFCURVE",
"603 303 CURVE SMOOTH",
"534 297 OFFCURVE",
"502 298 OFFCURVE",
"438 298 CURVE",
"437 368 OFFCURVE",
"434 366 OFFCURVE",
"434 417 CURVE SMOOTH",
"434 454 OFFCURVE",
"437 499 OFFCURVE",
"437 522 CURVE SMOOTH",
"437 528 OFFCURVE",
"436 533 OFFCURVE",
"436 535 CURVE SMOOTH",
"450 545 OFFCURVE",
"469 552 OFFCURVE",
"511 552 CURVE SMOOTH",
"544 552 LINE SMOOTH",
"560 552 OFFCURVE",
"577 552 OFFCURVE",
"597 547 CURVE",
"614 536 OFFCURVE",
"643 507 OFFCURVE",
"653 488 CURVE SMOOTH",
"660 482 OFFCURVE",
"670 484 OFFCURVE",
"673 491 CURVE SMOOTH",
"673 496 OFFCURVE",
"674 503 OFFCURVE",
"674 511 CURVE SMOOTH",
"674 536 OFFCURVE",
"672 571 OFFCURVE",
"666 582 CURVE",
"643 582 LINE SMOOTH",
"577 582 OFFCURVE",
"474 580 OFFCURVE",
"419 580 CURVE SMOOTH",
"318 580 OFFCURVE",
"355 581 OFFCURVE",
"254 582 CURVE SMOOTH",
"247 580 OFFCURVE",
"244 574 OFFCURVE",
"244 567 CURVE SMOOTH",
"244 561 OFFCURVE",
"247 554 OFFCURVE",
"251 551 CURVE SMOOTH",
"264 551 OFFCURVE",
"289 548 OFFCURVE",
"299 534 CURVE",
"296 508 OFFCURVE",
"251 431 OFFCURVE",
"224 385 CURVE SMOOTH",
"105 181 LINE SMOOTH",
"77 135 OFFCURVE",
"66 108 OFFCURVE",
"21 39 CURVE",
"7 29 OFFCURVE",
"-12 31 OFFCURVE",
"-30 27 CURVE SMOOTH",
"-34 24 OFFCURVE",
"-35 19 OFFCURVE",
"-35 14 CURVE SMOOTH",
"-35 8 OFFCURVE",
"-33 2 OFFCURVE",
"-30 0 CURVE SMOOTH",
"-3 -4 OFFCURVE",
"4 -4 OFFCURVE",
"19 -4 CURVE SMOOTH",
"38 -4 LINE SMOOTH",
"70 -4 OFFCURVE",
"99 -4 OFFCURVE",
"129 4 CURVE SMOOTH",
"133 8 OFFCURVE",
"135 12 OFFCURVE",
"135 16 CURVE SMOOTH",
"135 21 OFFCURVE",
"132 26 OFFCURVE",
"128 30 CURVE SMOOTH",
"109 32 OFFCURVE",
"95 34 OFFCURVE",
"82 45 CURVE",
"121 100 OFFCURVE",
"164 201 OFFCURVE",
"200 252 CURVE",
"355 252 LINE",
"357 231 OFFCURVE",
"358 203 OFFCURVE",
"358 173 CURVE SMOOTH",
"358 124 OFFCURVE",
"356 69 OFFCURVE",
"356 34 CURVE",
"344 23 OFFCURVE",
"323 21 OFFCURVE",
"303 20 CURVE SMOOTH",
"298 17 OFFCURVE",
"296 5 OFFCURVE",
"303 2 CURVE SMOOTH",
"354 0 OFFCURVE",
"390 -1 OFFCURVE",
"428 -1 CURVE SMOOTH",
"536 -1 LINE SMOOTH",
"577 -1 OFFCURVE",
"596 -1 OFFCURVE",
"622 -1 CURVE SMOOTH",
"671 -1 LINE",
"677 10 OFFCURVE",
"679 45 OFFCURVE",
"679 70 CURVE SMOOTH",
"679 78 OFFCURVE",
"678 85 OFFCURVE",
"678 90 CURVE SMOOTH"
);
},
{
closed = 1;
nodes = (
"225 298 LINE",
"254 336 OFFCURVE",
"313 474 OFFCURVE",
"344 524 CURVE",
"356 524 LINE",
"356 518 OFFCURVE",
"357 510 OFFCURVE",
"357 501 CURVE SMOOTH",
"357 461 OFFCURVE",
"355 397 OFFCURVE",
"355 344 CURVE SMOOTH",
"355 327 OFFCURVE",
"354 311 OFFCURVE",
"355 298 CURVE"
);
}
);
userData = {
com.fontlab.hintData = {
hhints = (
{
position = 20;
width = 232;
},
{
position = 30;
width = 220;
},
{
position = 97;
width = 110;
},
{
position = 97;
width = 153;
},
{
position = 298;
width = 226;
},
{
position = 349;
width = 136;
}
);
vhints = (
{
position = 344;
width = 13;
},
{
position = 439;
width = 210;
}
);
};
};
width = 722;
}
);
leftKerningGroup = AE;
unicode = 00C6;
},
{
glyphname = AEacute;
lastChange = "2021-06-23 18:43:59 +0000";
layers = (
{
layerId = master01;
paths = (
{
closed = 1;
nodes = (
"707 729 OFFCURVE",
"689 738 OFFCURVE",
"667 738 CURVE SMOOTH",
"649 738 OFFCURVE",
"634 732 OFFCURVE",
"610 725 CURVE SMOOTH",
"536 703 OFFCURVE",
"411 666 OFFCURVE",
"366 636 CURVE",
"368 632 LINE",
"439 664 OFFCURVE",
"478 678 OFFCURVE",
"555 700 CURVE SMOOTH",
"581 708 OFFCURVE",
"599 715 OFFCURVE",
"618 715 CURVE SMOOTH",
"635 715 OFFCURVE",
"655 672 OFFCURVE",
"677 668 CURVE",
"692 672 OFFCURVE",
"717 698 OFFCURVE",
"718 709 CURVE"
);
},
{
closed = 1;
nodes = (
"676 97 OFFCURVE",
"665 99 OFFCURVE",
"658 94 CURVE SMOOTH",
"648 75 OFFCURVE",
"615 42 OFFCURVE",
"596 34 CURVE",
"574 30 OFFCURVE",
"559 30 OFFCURVE",
"544 30 CURVE SMOOTH",
"516 30 LINE SMOOTH",
"473 30 OFFCURVE",
"456 32 OFFCURVE",
"440 38 CURVE",
"439 65 OFFCURVE",
"439 222 OFFCURVE",
"439 251 CURVE",
"513 251 OFFCURVE",
"595 250 OFFCURVE",
"607 250 CURVE SMOOTH",
"634 250 OFFCURVE",
"644 225 OFFCURVE",
"649 210 CURVE SMOOTH",
"652 204 OFFCURVE",
"670 207 OFFCURVE",
"671 211 CURVE SMOOTH",
"672 213 OFFCURVE",
"672 223 OFFCURVE",
"672 237 CURVE SMOOTH",
"672 276 OFFCURVE",
"669 345 OFFCURVE",
"669 345 CURVE SMOOTH",
"666 350 OFFCURVE",
"655 350 OFFCURVE",
"651 346 CURVE SMOOTH",
"649 331 OFFCURVE",
"633 306 OFFCURVE",
"603 303 CURVE SMOOTH",
"534 298 OFFCURVE",
"502 298 OFFCURVE",
"438 298 CURVE",
"437 367 OFFCURVE",
"434 366 OFFCURVE",
"434 417 CURVE SMOOTH",
"434 454 OFFCURVE",
"437 499 OFFCURVE",
"437 522 CURVE SMOOTH",
"437 528 OFFCURVE",
"436 532 OFFCURVE",
"436 535 CURVE SMOOTH",
"451 545 OFFCURVE",
"468 552 OFFCURVE",
"511 552 CURVE SMOOTH",
"544 552 LINE SMOOTH",
"560 552 OFFCURVE",
"577 551 OFFCURVE",
"597 547 CURVE",
"614 536 OFFCURVE",
"643 507 OFFCURVE",
"653 488 CURVE SMOOTH",
"660 482 OFFCURVE",
"671 485 OFFCURVE",
"673 491 CURVE SMOOTH",
"673 496 OFFCURVE",
"674 503 OFFCURVE",
"674 511 CURVE SMOOTH",
"674 537 OFFCURVE",
"672 571 OFFCURVE",
"666 582 CURVE",
"643 582 LINE SMOOTH",
"577 582 OFFCURVE",
"474 580 OFFCURVE",
"419 580 CURVE SMOOTH",
"318 580 OFFCURVE",
"355 581 OFFCURVE",
"254 582 CURVE SMOOTH",
"247 580 OFFCURVE",
"244 574 OFFCURVE",
"244 567 CURVE SMOOTH",
"244 560 OFFCURVE",
"247 554 OFFCURVE",
"251 551 CURVE SMOOTH",
"264 551 OFFCURVE",
"289 547 OFFCURVE",
"299 534 CURVE",
"296 507 OFFCURVE",
"251 431 OFFCURVE",
"224 385 CURVE SMOOTH",
"105 181 LINE SMOOTH",
"77 135 OFFCURVE",
"66 108 OFFCURVE",
"21 39 CURVE",
"7 29 OFFCURVE",
"-12 31 OFFCURVE",
"-30 27 CURVE SMOOTH",
"-34 24 OFFCURVE",
"-35 19 OFFCURVE",
"-35 14 CURVE SMOOTH",
"-35 8 OFFCURVE",
"-33 2 OFFCURVE",
"-30 0 CURVE SMOOTH",
"-2 -4 OFFCURVE",
"4 -4 OFFCURVE",
"19 -4 CURVE SMOOTH",
"38 -4 LINE SMOOTH",
"71 -4 OFFCURVE",
"99 -4 OFFCURVE",
"129 4 CURVE SMOOTH",
"133 9 OFFCURVE",
"135 13 OFFCURVE",
"135 16 CURVE SMOOTH",
"135 21 OFFCURVE",
"132 25 OFFCURVE",
"128 30 CURVE",
"110 31 OFFCURVE",
"95 34 OFFCURVE",
"82 45 CURVE",
"122 100 OFFCURVE",
"164 201 OFFCURVE",
"200 252 CURVE",
"355 252 LINE",
"357 230 OFFCURVE",
"358 202 OFFCURVE",
"358 173 CURVE SMOOTH",
"358 123 OFFCURVE",
"356 69 OFFCURVE",
"356 34 CURVE",
"344 23 OFFCURVE",
"322 20 OFFCURVE",
"303 20 CURVE SMOOTH",
"298 17 OFFCURVE",
"296 4 OFFCURVE",
"303 2 CURVE SMOOTH",
"354 -1 OFFCURVE",
"389 -1 OFFCURVE",
"428 -1 CURVE SMOOTH",
"536 -1 LINE SMOOTH",
"578 -1 OFFCURVE",
"596 -1 OFFCURVE",
"622 -1 CURVE SMOOTH",
"671 -1 LINE",
"677 10 OFFCURVE",
"679 45 OFFCURVE",
"679 70 CURVE SMOOTH",
"679 78 OFFCURVE",
"679 85 OFFCURVE",
"678 90 CURVE SMOOTH"
);
},
{
closed = 1;
nodes = (
"225 298 LINE",
"254 337 OFFCURVE",
"314 473 OFFCURVE",
"344 524 CURVE",
"356 524 LINE",
"356 518 OFFCURVE",
"357 510 OFFCURVE",
"357 501 CURVE SMOOTH",
"357 461 OFFCURVE",
"355 397 OFFCURVE",
"355 344 CURVE SMOOTH",
"355 298 LINE"
);
}
);
userData = {
com.fontlab.hintData = {
hhints = (
{
position = 20;
width = 232;
},
{
position = 30;
width = 177;
},
{
position = 30;
width = 220;
},
{
position = 298;
width = 226;
},
{
position = 349;
width = 136;
},
{
position = 580;
width = 52;
},
{
position = 582;
width = 133;
}
);
vhints = (
{
position = 344;
width = 13;
}
);
};
};
width = 722;
}
);
leftKerningGroup = AE;
unicode = 01FC;
},
{
glyphname = uni01E2;
lastChange = "2021-06-23 18:43:59 +0000";
layers = (
{
layerId = master01;
paths = (
{
closed = 1;
nodes = (
"632 722 OFFCURVE",
"612 722 OFFCURVE",
"595 722 CURVE SMOOTH",
"567 722 OFFCURVE",
"408 704 OFFCURVE",
"374 704 CURVE SMOOTH",
"354 704 OFFCURVE",
"357 722 OFFCURVE",
"343 722 CURVE SMOOTH",
"324 722 OFFCURVE",
"298 692 OFFCURVE",
"298 676 CURVE SMOOTH",
"298 660 OFFCURVE",
"310 659 OFFCURVE",
"329 659 CURVE SMOOTH",
"352 659 OFFCURVE",
"535 675 OFFCURVE",
"559 675 CURVE SMOOTH",
"568 675 OFFCURVE",
"571 656 OFFCURVE",
"583 656 CURVE SMOOTH",
"605 656 OFFCURVE",
"632 693 OFFCURVE",
"632 706 CURVE SMOOTH"
);
},
{
closed = 1;
nodes = (
"675 97 OFFCURVE",
"665 100 OFFCURVE",
"658 94 CURVE SMOOTH",
"648 75 OFFCURVE",
"615 42 OFFCURVE",
"596 34 CURVE",
"574 30 OFFCURVE",
"559 30 OFFCURVE",
"544 30 CURVE SMOOTH",
"516 30 LINE SMOOTH",
"474 30 OFFCURVE",
"455 32 OFFCURVE",
"440 38 CURVE",
"439 65 OFFCURVE",
"440 222 OFFCURVE",
"439 251 CURVE",
"514 251 OFFCURVE",
"595 250 OFFCURVE",
"607 250 CURVE SMOOTH",
"634 250 OFFCURVE",
"645 225 OFFCURVE",
"649 210 CURVE SMOOTH",
"652 204 OFFCURVE",
"670 207 OFFCURVE",
"671 211 CURVE SMOOTH",
"672 213 OFFCURVE",
"672 223 OFFCURVE",
"672 237 CURVE SMOOTH",
"672 276 OFFCURVE",
"669 345 OFFCURVE",
"669 345 CURVE SMOOTH",
"666 350 OFFCURVE",
"654 350 OFFCURVE",
"651 346 CURVE SMOOTH",
"648 331 OFFCURVE",
"634 306 OFFCURVE",
"603 303 CURVE SMOOTH",
"534 297 OFFCURVE",
"502 298 OFFCURVE",
"438 298 CURVE",
"437 368 OFFCURVE",
"434 366 OFFCURVE",
"434 417 CURVE SMOOTH",
"434 454 OFFCURVE",
"437 499 OFFCURVE",
"437 522 CURVE SMOOTH",
"437 528 OFFCURVE",
"436 533 OFFCURVE",
"436 535 CURVE SMOOTH",
"450 545 OFFCURVE",
"469 552 OFFCURVE",
"511 552 CURVE SMOOTH",
"544 552 LINE SMOOTH",
"560 552 OFFCURVE",
"577 552 OFFCURVE",
"597 547 CURVE",
"614 536 OFFCURVE",
"643 507 OFFCURVE",
"653 488 CURVE SMOOTH",
"660 482 OFFCURVE",
"670 484 OFFCURVE",
"673 491 CURVE SMOOTH",
"673 496 OFFCURVE",
"674 503 OFFCURVE",
"674 511 CURVE SMOOTH",
"674 536 OFFCURVE",
"672 571 OFFCURVE",
"666 582 CURVE",
"643 582 LINE SMOOTH",
"577 582 OFFCURVE",
"474 580 OFFCURVE",
"419 580 CURVE SMOOTH",
"318 580 OFFCURVE",
"355 581 OFFCURVE",
"254 582 CURVE SMOOTH",
"247 580 OFFCURVE",
"244 574 OFFCURVE",
"244 567 CURVE SMOOTH",
"244 561 OFFCURVE",
"247 554 OFFCURVE",
"251 551 CURVE SMOOTH",
"264 551 OFFCURVE",
"289 548 OFFCURVE",
"299 534 CURVE",
"296 508 OFFCURVE",
"251 431 OFFCURVE",
"224 385 CURVE SMOOTH",
"105 181 LINE SMOOTH",
"77 135 OFFCURVE",
"66 108 OFFCURVE",
"21 39 CURVE",
"7 29 OFFCURVE",
"-12 31 OFFCURVE",
"-30 27 CURVE SMOOTH",
"-34 24 OFFCURVE",
"-35 19 OFFCURVE",
"-35 14 CURVE SMOOTH",
"-35 8 OFFCURVE",
"-33 2 OFFCURVE",
"-30 0 CURVE SMOOTH",
"-3 -4 OFFCURVE",
"4 -4 OFFCURVE",
"19 -4 CURVE SMOOTH",
"38 -4 LINE SMOOTH",
"70 -4 OFFCURVE",
"99 -4 OFFCURVE",
"129 4 CURVE SMOOTH",
"133 8 OFFCURVE",
"135 12 OFFCURVE",
"135 16 CURVE SMOOTH",
"135 21 OFFCURVE",
"132 26 OFFCURVE",
"128 30 CURVE SMOOTH",
"109 32 OFFCURVE",
"95 34 OFFCURVE",
"82 45 CURVE",
"121 100 OFFCURVE",
"164 201 OFFCURVE",
"200 252 CURVE",
"355 252 LINE",
"357 231 OFFCURVE",
"358 203 OFFCURVE",
"358 173 CURVE SMOOTH",
"358 124 OFFCURVE",
"356 69 OFFCURVE",
"356 34 CURVE",
"344 23 OFFCURVE",
"323 21 OFFCURVE",
"303 20 CURVE SMOOTH",
"298 17 OFFCURVE",
"296 5 OFFCURVE",
"303 2 CURVE SMOOTH",
"354 0 OFFCURVE",
"390 -1 OFFCURVE",
"428 -1 CURVE SMOOTH",
"536 -1 LINE SMOOTH",
"577 -1 OFFCURVE",
"596 -1 OFFCURVE",
"622 -1 CURVE SMOOTH",
"671 -1 LINE",
"677 10 OFFCURVE",
"679 45 OFFCURVE",
"679 70 CURVE SMOOTH",
"679 78 OFFCURVE",
"678 85 OFFCURVE",
"678 90 CURVE SMOOTH"
);
},
{
closed = 1;
nodes = (
"225 298 LINE",
"254 336 OFFCURVE",
"313 474 OFFCURVE",
"344 524 CURVE",
"356 524 LINE",
"356 518 OFFCURVE",
"357 510 OFFCURVE",
"357 501 CURVE SMOOTH",
"357 461 OFFCURVE",
"355 397 OFFCURVE",
"355 344 CURVE SMOOTH",
"355 327 OFFCURVE",
"354 311 OFFCURVE",
"355 298 CURVE"
);
}
);
userData = {
com.fontlab.hintData = {
hhints = (
{
position = 20;
width = 232;
},
{
position = 30;
width = 220;
},
{
position = 97;
width = 110;
},
{
position = 97;
width = 153;
},
{
position = 298;
width = 226;
},
{
position = 349;
width = 136;
},
{
position = 580;
width = 79;
},
{
position = 582;
width = 74;
},
{
position = 582;
width = 93;
}
);
vhints = (
{
position = 344;
width = 13;
},
{
position = 439;
width = 210;
}
);
};
};
width = 722;
}
);
leftKerningGroup = AE;
unicode = 01E2;
},
{
glyphname = B;
lastChange = "2021-06-23 18:30:52 +0000";
layers = (
{
anchors = (
{
name = "Anchor-1";
position = "{240, 595}";
}
);
layerId = master01;
paths = (
{
closed = 1;
nodes = (
"522 250 OFFCURVE",
"465 298 OFFCURVE",
"355 332 CURVE SMOOTH",
"338 337 OFFCURVE",
"351 341 OFFCURVE",
"354 342 CURVE SMOOTH",
"424 354 OFFCURVE",
"462 396 OFFCURVE",
"462 456 CURVE SMOOTH",
"462 520 OFFCURVE",
"396 582 OFFCURVE",
"278 582 CURVE SMOOTH",
"274 582 LINE SMOOTH",
"242 582 OFFCURVE",
"216 582 OFFCURVE",
"194 582 CURVE SMOOTH",
"100 582 LINE SMOOTH",
"74 582 OFFCURVE",
"63 581 OFFCURVE",
"14 574 CURVE SMOOTH",
"11 573 OFFCURVE",
"10 570 OFFCURVE",
"10 566 CURVE SMOOTH",
"10 562 OFFCURVE",
"11 557 OFFCURVE",
"14 556 CURVE SMOOTH",
"40 551 OFFCURVE",
"54 546 OFFCURVE",
"68 532 CURVE",
"71 458 OFFCURVE",
"73 235 OFFCURVE",
"73 54 CURVE",
"60 41 OFFCURVE",
"36 37 OFFCURVE",
"14 32 CURVE SMOOTH",
"10 29 OFFCURVE",
"9 24 OFFCURVE",
"9 19 CURVE SMOOTH",
"9 13 OFFCURVE",
"11 7 OFFCURVE",
"14 5 CURVE SMOOTH",
"79 -7 OFFCURVE",
"135 -10 OFFCURVE",
"180 -10 CURVE SMOOTH",
"218 -10 OFFCURVE",
"249 -8 OFFCURVE",
"272 -8 CURVE SMOOTH",
"457 -8 OFFCURVE",
"522 62 OFFCURVE",
"522 176 CURVE SMOOTH"
);
},
{
closed = 1;
nodes = (
"433 93 OFFCURVE",
"384 32 OFFCURVE",
"277 32 CURVE SMOOTH",
"220 32 OFFCURVE",
"188 33 OFFCURVE",
"156 59 CURVE",
"156 172 OFFCURVE",
"152 336 OFFCURVE",
"151 417 CURVE SMOOTH",
"151 430 LINE SMOOTH",
"151 466 OFFCURVE",
"153 506 OFFCURVE",
"153 525 CURVE SMOOTH",
"153 535 LINE",
"164 542 OFFCURVE",
"175 549 OFFCURVE",
"253 552 CURVE SMOOTH",
"256 552 LINE SMOOTH",
"323 552 OFFCURVE",
"377 494 OFFCURVE",
"377 434 CURVE SMOOTH",
"377 394 OFFCURVE",
"351 354 OFFCURVE",
"297 339 CURVE SMOOTH",
"289 337 OFFCURVE",
"290 332 OFFCURVE",
"297 329 CURVE SMOOTH",
"393 297 OFFCURVE",
"433 251 OFFCURVE",
"433 180 CURVE SMOOTH"
);
}
);
userData = {
com.fontlab.hintData = {
hhints = (
{
position = -10;
width = 592;
}
);
vhints = (
{
position = 156;
width = 135;
},
{
position = 156;
width = 277;
}
);
};
};
width = 547;
}
);
rightKerningGroup = B;
unicode = 0042;
},
{
glyphname = C;
lastChange = "2021-06-23 21:24:50 +0000";
layers = (
{
anchors = (
{
name = "Anchor-1";
position = "{316, 595}";
}
);
layerId = master01;
paths = (
{
closed = 1;
nodes = (
"432 -15 OFFCURVE",
"522 45 OFFCURVE",
"549 65 CURVE",
"549 71 OFFCURVE",
"542 78 OFFCURVE",
"535 78 CURVE",
"515 64 OFFCURVE",
"429 25 OFFCURVE",
"341 25 CURVE SMOOTH",
"259 25 OFFCURVE",
"111 99 OFFCURVE",
"111 336 CURVE SMOOTH",
"111 352 OFFCURVE",
"112 367 OFFCURVE",
"116 382 CURVE SMOOTH",
"142 479 OFFCURVE",
"210 549 OFFCURVE",
"304 549 CURVE SMOOTH",
"381 549 OFFCURVE",
"483 506 OFFCURVE",
"495 431 CURVE SMOOTH",
"495 429 OFFCURVE",
"500 427 OFFCURVE",
"505 427 CURVE SMOOTH",
"509 427 OFFCURVE",
"513 429 OFFCURVE",
"515 431 CURVE SMOOTH",
"519 469 OFFCURVE",
"538 544 OFFCURVE",
"538 552 CURVE",
"478 555 OFFCURVE",
"428 584 OFFCURVE",
"332 584 CURVE SMOOTH",
"205 584 OFFCURVE",
"100 495 OFFCURVE",
"35 400 CURVE",
"25 369 OFFCURVE",
"20 331 OFFCURVE",
"20 293 CURVE SMOOTH",
"20 119 OFFCURVE",
"160 -15 OFFCURVE",
"327 -15 CURVE SMOOTH"
);
}
);
userData = {
com.fontlab.hintData = {
hhints = (
{
position = -15;
width = 599;
}
);
vhints = (
{
position = 20;
width = 529;
}
);
};
};
width = 566;
}
);
leftKerningGroup = C;
unicode = 0043;
},
{
glyphname = Ccedilla;
lastChange = "2021-06-23 19:40:43 +0000";
layers = (
{
layerId = master01;
paths = (
{
closed = 1;
nodes = (
"219 -119 OFFCURVE",
"219 -121 OFFCURVE",
"221 -123 CURVE SMOOTH",
"231 -135 OFFCURVE",
"248 -147 OFFCURVE",
"265 -147 CURVE SMOOTH",
"269 -147 OFFCURVE",
"279 -145 OFFCURVE",
"292 -140 CURVE SMOOTH",
"313 -133 OFFCURVE",
"354 -113 OFFCURVE",
"354 -86 CURVE SMOOTH",
"354 -68 OFFCURVE",
"335 -43 OFFCURVE",
"325 -35 CURVE SMOOTH",
"322 -32 OFFCURVE",
"321 -30 OFFCURVE",
"321 -28 CURVE SMOOTH",
"321 -26 OFFCURVE",
"323 -23 OFFCURVE",
"326 -21 CURVE SMOOTH",
"335 -15 LINE",
"436 -12 OFFCURVE",
"522 45 OFFCURVE",
"549 65 CURVE",
"549 71 OFFCURVE",
"542 78 OFFCURVE",
"535 78 CURVE",
"515 64 OFFCURVE",
"429 25 OFFCURVE",
"341 25 CURVE SMOOTH",
"259 25 OFFCURVE",
"111 99 OFFCURVE",
"111 336 CURVE SMOOTH",
"111 352 OFFCURVE",
"112 367 OFFCURVE",
"116 382 CURVE SMOOTH",
"142 479 OFFCURVE",
"210 549 OFFCURVE",
"304 549 CURVE SMOOTH",
"381 549 OFFCURVE",
"483 506 OFFCURVE",
"495 431 CURVE SMOOTH",
"495 429 OFFCURVE",
"500 427 OFFCURVE",
"505 427 CURVE SMOOTH",
"509 427 OFFCURVE",
"513 429 OFFCURVE",
"515 431 CURVE SMOOTH",
"519 469 OFFCURVE",
"538 544 OFFCURVE",
"538 552 CURVE",
"478 555 OFFCURVE",
"428 584 OFFCURVE",
"332 584 CURVE SMOOTH",
"205 584 OFFCURVE",
"100 495 OFFCURVE",
"35 400 CURVE",
"25 369 OFFCURVE",
"20 331 OFFCURVE",
"20 293 CURVE SMOOTH",
"20 126 OFFCURVE",
"147 -4 OFFCURVE",
"305 -15 CURVE",
"282 -29 LINE SMOOTH",
"272 -36 OFFCURVE",
"267 -42 OFFCURVE",
"267 -47 CURVE SMOOTH",
"267 -50 OFFCURVE",
"268 -52 OFFCURVE",
"271 -54 CURVE SMOOTH",
"285 -65 OFFCURVE",
"294 -73 OFFCURVE",
"299 -79 CURVE SMOOTH",
"304 -85 OFFCURVE",
"306 -91 OFFCURVE",
"306 -98 CURVE SMOOTH",
"306 -102 OFFCURVE",
"305 -106 OFFCURVE",
"303 -110 CURVE SMOOTH",
"301 -114 OFFCURVE",
"298 -115 OFFCURVE",
"295 -115 CURVE SMOOTH",
"286 -115 OFFCURVE",
"275 -105 OFFCURVE",
"270 -101 CURVE SMOOTH",
"266 -98 OFFCURVE",
"262 -96 OFFCURVE",
"258 -96 CURVE SMOOTH",
"256 -96 OFFCURVE",
"254 -97 OFFCURVE",
"251 -98 CURVE SMOOTH",
"228 -109 LINE SMOOTH",
"222 -112 OFFCURVE",
"219 -114 OFFCURVE",
"219 -117 CURVE SMOOTH"
);
}
);
userData = {
com.fontlab.hintData = {
hhints = (
{
position = -115;
width = 100;
}
);
vhints = (
{
position = 20;
width = 529;
}
);
};
};
width = 566;
}
);
leftKerningGroup = C;
unicode = 00C7;
},
{
glyphname = D;
lastChange = "2021-06-23 18:24:09 +0000";
layers = (
{
anchors = (
{
name = "Anchor-1";
position = "{255, 595}";
}
);
layerId = master01;
paths = (
{
closed = 1;
nodes = (
"600 442 OFFCURVE",
"487 582 OFFCURVE",
"281 582 CURVE SMOOTH",
"274 582 LINE SMOOTH",
"230 581 OFFCURVE",
"198 581 OFFCURVE",
"173 581 CURVE SMOOTH",
"132 581 OFFCURVE",
"111 582 OFFCURVE",
"95 582 CURVE SMOOTH",
"73 582 OFFCURVE",
"60 581 OFFCURVE",
"14 574 CURVE SMOOTH",
"11 573 OFFCURVE",
"10 570 OFFCURVE",
"10 566 CURVE SMOOTH",
"10 562 OFFCURVE",
"11 557 OFFCURVE",
"14 556 CURVE SMOOTH",
"36 553 OFFCURVE",
"53 551 OFFCURVE",
"68 537 CURVE",
"71 463 OFFCURVE",
"73 230 OFFCURVE",
"73 49 CURVE",
"62 37 OFFCURVE",
"35 37 OFFCURVE",
"14 32 CURVE SMOOTH",
"10 29 OFFCURVE",
"9 24 OFFCURVE",
"9 19 CURVE SMOOTH",
"9 13 OFFCURVE",
"11 7 OFFCURVE",
"14 5 CURVE SMOOTH",
"79 -7 OFFCURVE",
"135 -10 OFFCURVE",
"180 -10 CURVE SMOOTH",
"218 -10 OFFCURVE",
"249 -8 OFFCURVE",
"272 -8 CURVE SMOOTH",
"312 -8 OFFCURVE",
"358 -3 OFFCURVE",
"395 12 CURVE SMOOTH",
"507 57 OFFCURVE",
"600 164 OFFCURVE",
"600 286 CURVE SMOOTH"
);
},
{
closed = 1;
nodes = (
"483 195 OFFCURVE",
"444 97 OFFCURVE",
"360 49 CURVE SMOOTH",
"335 39 OFFCURVE",
"309 32 OFFCURVE",
"277 32 CURVE SMOOTH",
"220 32 OFFCURVE",
"176 35 OFFCURVE",
"156 51 CURVE",
"156 164 OFFCURVE",
"152 335 OFFCURVE",
"151 416 CURVE SMOOTH",
"151 430 LINE SMOOTH",
"151 466 OFFCURVE",
"153 507 OFFCURVE",
"153 527 CURVE SMOOTH",
"153 537 LINE",
"168 545 OFFCURVE",
"179 549 OFFCURVE",
"253 552 CURVE SMOOTH",
"259 552 LINE SMOOTH",
"375 552 OFFCURVE",
"483 427 OFFCURVE",
"483 306 CURVE SMOOTH"
);
}
);
userData = {
com.fontlab.hintData = {
hhints = (
{
position = -10;
width = 592;
}
);
vhints = (
{
position = 9;
width = 591;
},
{
position = 156;
width = 327;
}
);
};
};
width = 628;
}
);
rightKerningGroup = D;
unicode = 0044;
},
{
glyphname = Eth;
lastChange = "2021-06-23 18:24:09 +0000";
layers = (
{
anchors = (
{
name = "Anchor-1";
position = "{248, 595}";
}
);
layerId = master01;
paths = (
{
closed = 1;
nodes = (
"600 442 OFFCURVE",
"487 582 OFFCURVE",
"281 582 CURVE SMOOTH",
"274 582 LINE SMOOTH",
"230 581 OFFCURVE",
"198 581 OFFCURVE",
"173 581 CURVE SMOOTH",
"132 581 OFFCURVE",
"111 582 OFFCURVE",
"95 582 CURVE SMOOTH",
"73 582 OFFCURVE",
"60 581 OFFCURVE",
"14 574 CURVE SMOOTH",
"7 571 OFFCURVE",
"9 559 OFFCURVE",
"14 556 CURVE SMOOTH",
"37 553 OFFCURVE",
"52 555 OFFCURVE",
"68 539 CURVE",
"70 502 OFFCURVE",
"70 398 OFFCURVE",
"71 318 CURVE",
"20 318 LINE SMOOTH",
"6 318 OFFCURVE",
"-10 332 OFFCURVE",
"-13 343 CURVE SMOOTH",
"-14 346 OFFCURVE",
"-24 346 OFFCURVE",
"-25 343 CURVE SMOOTH",
"-27 338 OFFCURVE",
"-27 315 OFFCURVE",
"-27 291 CURVE SMOOTH",
"-27 267 OFFCURVE",
"-27 243 OFFCURVE",
"-25 240 CURVE SMOOTH",
"-23 237 OFFCURVE",
"-16 237 OFFCURVE",
"-13 240 CURVE SMOOTH",
"-11 249 OFFCURVE",
"6 265 OFFCURVE",
"20 265 CURVE SMOOTH",
"72 265 LINE",
"73 201 OFFCURVE",
"73 117 OFFCURVE",
"73 47 CURVE",
"62 37 OFFCURVE",
"31 35 OFFCURVE",
"14 32 CURVE SMOOTH",
"10 29 OFFCURVE",
"9 24 OFFCURVE",
"9 19 CURVE SMOOTH",
"9 13 OFFCURVE",
"11 7 OFFCURVE",
"14 5 CURVE SMOOTH",
"79 -7 OFFCURVE",
"135 -10 OFFCURVE",
"180 -10 CURVE SMOOTH",
"218 -10 OFFCURVE",
"249 -8 OFFCURVE",
"272 -8 CURVE SMOOTH",
"312 -8 OFFCURVE",
"358 -3 OFFCURVE",
"395 12 CURVE SMOOTH",
"507 57 OFFCURVE",
"600 164 OFFCURVE",
"600 286 CURVE SMOOTH"
);
},
{
closed = 1;
nodes = (
"483 195 OFFCURVE",
"444 97 OFFCURVE",
"360 49 CURVE SMOOTH",
"335 39 OFFCURVE",
"309 32 OFFCURVE",
"277 32 CURVE SMOOTH",
"222 32 OFFCURVE",
"187 35 OFFCURVE",
"156 51 CURVE",
"156 105 OFFCURVE",
"156 213 OFFCURVE",
"155 265 CURVE",
"198 265 LINE SMOOTH",
"213 265 OFFCURVE",
"231 253 OFFCURVE",
"235 240 CURVE SMOOTH",
"237 237 OFFCURVE",
"246 237 OFFCURVE",
"247 240 CURVE SMOOTH",
"249 243 OFFCURVE",
"250 260 OFFCURVE",
"250 279 CURVE SMOOTH",
"250 308 OFFCURVE",
"248 341 OFFCURVE",
"247 343 CURVE SMOOTH",
"244 346 OFFCURVE",
"237 346 OFFCURVE",
"235 343 CURVE SMOOTH",
"232 333 OFFCURVE",
"216 318 OFFCURVE",
"198 318 CURVE SMOOTH",
"153 318 LINE",
"152 355 OFFCURVE",
"151 386 OFFCURVE",
"151 416 CURVE SMOOTH",
"151 453 OFFCURVE",
"153 501 OFFCURVE",
"153 525 CURVE SMOOTH",
"153 538 LINE",
"168 546 OFFCURVE",
"213 552 OFFCURVE",
"253 552 CURVE SMOOTH",
"381 552 OFFCURVE",
"483 429 OFFCURVE",
"483 306 CURVE SMOOTH"
);
}
);
userData = {
com.fontlab.hintData = {
hhints = (
{
position = -10;
width = 592;
},
{
position = 32;
width = 233;
},
{
position = 318;
width = 234;
}
);
vhints = (
{
position = 250;
width = 233;
}
);
};
};
width = 628;
}
);
rightKerningGroup = D;
unicode = 00D0;
},
{
glyphname = E;
layers = (
{
anchors = (
{
name = "Anchor-1";
position = "{245, 595}";
}
);
layerId = master01;
paths = (
{
closed = 1;
nodes = (
"393 94 OFFCURVE",
"389 97 OFFCURVE",
"384 97 CURVE SMOOTH",
"381 97 OFFCURVE",
"378 96 OFFCURVE",
"375 94 CURVE SMOOTH",
"369 83 OFFCURVE",
"338 47 OFFCURVE",
"320 36 CURVE",
"301 31 OFFCURVE",
"283 29 OFFCURVE",
"265 29 CURVE SMOOTH",
"254 29 OFFCURVE",
"244 30 OFFCURVE",
"233 30 CURVE SMOOTH",
"180 30 OFFCURVE",
"171 34 OFFCURVE",
"157 39 CURVE",
"156 251 LINE",
"231 251 OFFCURVE",
"312 250 OFFCURVE",
"324 250 CURVE SMOOTH",
"349 250 OFFCURVE",
"366 219 OFFCURVE",
"368 210 CURVE SMOOTH",
"369 208 OFFCURVE",
"373 206 OFFCURVE",
"377 206 CURVE SMOOTH",
"382 206 OFFCURVE",
"388 209 OFFCURVE",
"388 211 CURVE SMOOTH",
"389 213 OFFCURVE",
"389 223 OFFCURVE",
"389 237 CURVE SMOOTH",
"389 276 OFFCURVE",
"386 345 OFFCURVE",
"386 345 CURVE SMOOTH",
"385 348 OFFCURVE",
"381 349 OFFCURVE",
"377 349 CURVE SMOOTH",
"374 349 OFFCURVE",
"370 348 OFFCURVE",
"368 346 CURVE SMOOTH",
"366 338 OFFCURVE",
"347 305 OFFCURVE",
"320 302 CURVE SMOOTH",
"276 298 OFFCURVE",
"247 297 OFFCURVE",
"215 297 CURVE SMOOTH",
"197 297 OFFCURVE",
"178 298 OFFCURVE",
"155 298 CURVE",
"151 417 LINE",
"151 439 LINE SMOOTH",
"151 476 OFFCURVE",
"153 516 OFFCURVE",
"153 534 CURVE SMOOTH",
"153 542 LINE",
"168 547 OFFCURVE",
"172 552 OFFCURVE",
"228 552 CURVE SMOOTH",
"260 552 LINE SMOOTH",
"278 552 OFFCURVE",
"296 551 OFFCURVE",
"315 546 CURVE",
"331 535 OFFCURVE",
"362 503 OFFCURVE",
"370 488 CURVE SMOOTH",
"373 485 OFFCURVE",
"376 484 OFFCURVE",
"379 484 CURVE SMOOTH",
"384 484 OFFCURVE",
"388 487 OFFCURVE",
"390 491 CURVE SMOOTH",
"390 503 LINE SMOOTH",
"390 529 OFFCURVE",
"389 571 OFFCURVE",
"383 582 CURVE",
"362 582 OFFCURVE",
"347 583 OFFCURVE",
"334 583 CURVE SMOOTH",
"308 583 OFFCURVE",
"289 582 OFFCURVE",
"248 582 CURVE SMOOTH",
"203 582 OFFCURVE",
"171 583 OFFCURVE",
"140 583 CURVE SMOOTH",
"102 583 OFFCURVE",
"65 582 OFFCURVE",
"14 580 CURVE SMOOTH",
"11 579 OFFCURVE",
"10 576 OFFCURVE",
"10 572 CURVE SMOOTH",
"10 568 OFFCURVE",
"11 563 OFFCURVE",
"14 562 CURVE SMOOTH",
"40 557 OFFCURVE",
"48 555 OFFCURVE",
"68 543 CURVE",
"71 469 OFFCURVE",
"73 220 OFFCURVE",
"73 38 CURVE",
"57 25 OFFCURVE",
"46 25 OFFCURVE",
"20 20 CURVE SMOOTH",
"17 19 OFFCURVE",
"15 13 OFFCURVE",
"15 9 CURVE SMOOTH",
"15 6 OFFCURVE",
"17 3 OFFCURVE",
"20 2 CURVE SMOOTH",
"71 0 OFFCURVE",
"107 -1 OFFCURVE",
"145 -1 CURVE SMOOTH",
"253 -1 LINE SMOOTH",
"294 -1 OFFCURVE",
"313 -1 OFFCURVE",
"339 -1 CURVE SMOOTH",
"388 -1 LINE",
"394 10 OFFCURVE",
"395 52 OFFCURVE",
"395 78 CURVE SMOOTH",
"395 90 LINE SMOOTH"
);
}
);
userData = {
com.fontlab.hintData = {
hhints = (
{
position = 30;
width = 220;
},
{
position = 97;
width = 153;
},
{
position = 297;
width = 255;
}
);
vhints = (
{
position = 10;
width = 385;
}
);
};
};
width = 441;
}
);
unicode = 0045;
},
{
glyphname = Eacute;
layers = (
{
layerId = master01;
paths = (
{
closed = 1;
nodes = (
"486 729 OFFCURVE",
"467 738 OFFCURVE",
"446 738 CURVE SMOOTH",
"428 738 OFFCURVE",
"413 732 OFFCURVE",
"389 725 CURVE SMOOTH",
"315 703 OFFCURVE",
"190 666 OFFCURVE",
"144 636 CURVE",
"147 632 LINE",
"218 664 OFFCURVE",
"257 678 OFFCURVE",
"334 700 CURVE SMOOTH",
"360 708 OFFCURVE",
"378 715 OFFCURVE",
"397 715 CURVE SMOOTH",
"414 715 OFFCURVE",
"435 672 OFFCURVE",
"456 668 CURVE",
"471 672 OFFCURVE",
"496 698 OFFCURVE",
"497 709 CURVE"
);
},
{
closed = 1;
nodes = (
"392 97 OFFCURVE",
"382 100 OFFCURVE",
"375 94 CURVE SMOOTH",
"369 83 OFFCURVE",
"338 47 OFFCURVE",
"320 36 CURVE",
"301 31 OFFCURVE",
"283 29 OFFCURVE",
"265 29 CURVE SMOOTH",
"254 29 OFFCURVE",
"244 30 OFFCURVE",
"233 30 CURVE SMOOTH",
"180 30 OFFCURVE",
"171 34 OFFCURVE",
"157 39 CURVE",
"156 251 LINE",
"231 251 OFFCURVE",
"312 250 OFFCURVE",
"324 250 CURVE SMOOTH",
"349 250 OFFCURVE",
"366 219 OFFCURVE",
"368 210 CURVE SMOOTH",
"371 204 OFFCURVE",
"387 207 OFFCURVE",
"388 211 CURVE SMOOTH",
"389 213 OFFCURVE",
"389 223 OFFCURVE",
"389 237 CURVE SMOOTH",
"389 276 OFFCURVE",
"386 345 OFFCURVE",
"386 345 CURVE SMOOTH",
"383 350 OFFCURVE",
"371 350 OFFCURVE",
"368 346 CURVE SMOOTH",
"366 338 OFFCURVE",
"347 305 OFFCURVE",
"320 302 CURVE SMOOTH",
"276 298 OFFCURVE",
"247 297 OFFCURVE",
"215 297 CURVE SMOOTH",
"197 297 OFFCURVE",
"178 298 OFFCURVE",
"155 298 CURVE",
"151 417 LINE",
"151 439 LINE SMOOTH",
"151 476 OFFCURVE",
"153 516 OFFCURVE",
"153 534 CURVE SMOOTH",
"153 542 LINE",
"168 547 OFFCURVE",
"172 552 OFFCURVE",
"228 552 CURVE SMOOTH",
"260 552 LINE SMOOTH",
"278 552 OFFCURVE",
"296 551 OFFCURVE",
"315 546 CURVE",
"331 535 OFFCURVE",
"362 503 OFFCURVE",
"370 488 CURVE SMOOTH",
"378 480 OFFCURVE",
"387 484 OFFCURVE",
"390 491 CURVE SMOOTH",
"390 503 LINE SMOOTH",
"390 529 OFFCURVE",
"389 571 OFFCURVE",
"383 582 CURVE",
"362 582 OFFCURVE",
"347 583 OFFCURVE",
"334 583 CURVE SMOOTH",
"308 583 OFFCURVE",
"289 582 OFFCURVE",
"248 582 CURVE SMOOTH",
"203 582 OFFCURVE",
"171 583 OFFCURVE",
"140 583 CURVE SMOOTH",
"102 583 OFFCURVE",
"65 582 OFFCURVE",
"14 580 CURVE SMOOTH",
"11 579 OFFCURVE",
"10 576 OFFCURVE",
"10 572 CURVE SMOOTH",
"10 568 OFFCURVE",
"11 563 OFFCURVE",
"14 562 CURVE SMOOTH",
"40 557 OFFCURVE",
"48 555 OFFCURVE",
"68 543 CURVE",
"71 469 OFFCURVE",
"73 220 OFFCURVE",
"73 38 CURVE",
"57 25 OFFCURVE",
"46 25 OFFCURVE",
"20 20 CURVE SMOOTH",
"15 17 OFFCURVE",
"13 5 OFFCURVE",
"20 2 CURVE SMOOTH",
"71 0 OFFCURVE",
"107 -1 OFFCURVE",
"145 -1 CURVE SMOOTH",
"253 -1 LINE SMOOTH",
"294 -1 OFFCURVE",
"313 -1 OFFCURVE",
"339 -1 CURVE SMOOTH",
"388 -1 LINE",
"394 10 OFFCURVE",
"395 52 OFFCURVE",
"395 78 CURVE SMOOTH",
"395 90 LINE SMOOTH"
);
}
);
userData = {
com.fontlab.hintData = {
hhints = (
{
position = 30;
width = 220;
},
{
position = 97;
width = 110;
},
{
position = 97;
width = 153;
},
{
position = 297;
width = 255;
},
{
position = 349;
width = 135;
},
{
position = 582;
width = 50;
}
);
vhints = (
{
position = 10;
width = 487;
}
);
};
};
width = 441;
}
);
unicode = 00C9;
},
{
glyphname = Ecircumflex;
layers = (
{
layerId = master01;
paths = (
{
closed = 1;
nodes = (
"58 637 OFFCURVE",
"61 633 OFFCURVE",
"66 633 CURVE SMOOTH",
"68 633 OFFCURVE",
"71 634 OFFCURVE",
"75 636 CURVE SMOOTH",
"111 659 OFFCURVE",
"146 683 OFFCURVE",
"183 706 CURVE SMOOTH",
"193 712 OFFCURVE",
"198 715 OFFCURVE",
"203 715 CURVE SMOOTH",
"209 715 OFFCURVE",
"214 711 OFFCURVE",
"224 705 CURVE SMOOTH",
"332 636 LINE SMOOTH",
"336 634 OFFCURVE",
"339 633 OFFCURVE",
"341 633 CURVE SMOOTH",
"346 633 OFFCURVE",
"349 637 OFFCURVE",
"349 643 CURVE SMOOTH",
"349 650 OFFCURVE",
"345 658 OFFCURVE",
"337 664 CURVE SMOOTH",
"298 692 OFFCURVE",
"259 721 OFFCURVE",
"218 746 CURVE SMOOTH",
"215 748 OFFCURVE",
"212 749 OFFCURVE",
"207 749 CURVE SMOOTH",
"199 749 OFFCURVE",
"188 747 OFFCURVE",
"184 744 CURVE SMOOTH",
"145 719 OFFCURVE",
"108 691 OFFCURVE",
"70 664 CURVE SMOOTH",
"62 658 OFFCURVE",
"58 650 OFFCURVE",
"58 643 CURVE SMOOTH"
);
},
{
closed = 1;
nodes = (
"393 94 OFFCURVE",
"389 97 OFFCURVE",
"384 97 CURVE SMOOTH",
"381 97 OFFCURVE",
"378 96 OFFCURVE",
"375 94 CURVE SMOOTH",
"369 83 OFFCURVE",
"338 47 OFFCURVE",
"320 36 CURVE",
"301 31 OFFCURVE",
"283 29 OFFCURVE",
"265 29 CURVE SMOOTH",
"254 29 OFFCURVE",
"244 30 OFFCURVE",
"233 30 CURVE SMOOTH",
"180 30 OFFCURVE",
"171 34 OFFCURVE",
"157 39 CURVE",
"156 251 LINE",
"231 251 OFFCURVE",
"312 250 OFFCURVE",
"324 250 CURVE SMOOTH",
"349 250 OFFCURVE",
"366 219 OFFCURVE",
"368 210 CURVE SMOOTH",
"369 208 OFFCURVE",
"373 206 OFFCURVE",
"377 206 CURVE SMOOTH",
"382 206 OFFCURVE",
"388 209 OFFCURVE",
"388 211 CURVE SMOOTH",
"389 213 OFFCURVE",
"389 223 OFFCURVE",
"389 237 CURVE SMOOTH",
"389 276 OFFCURVE",
"386 345 OFFCURVE",
"386 345 CURVE SMOOTH",
"385 348 OFFCURVE",
"381 349 OFFCURVE",
"377 349 CURVE SMOOTH",
"374 349 OFFCURVE",
"370 348 OFFCURVE",
"368 346 CURVE SMOOTH",
"366 338 OFFCURVE",
"347 305 OFFCURVE",
"320 302 CURVE SMOOTH",
"276 298 OFFCURVE",
"247 297 OFFCURVE",
"215 297 CURVE SMOOTH",
"197 297 OFFCURVE",
"178 298 OFFCURVE",
"155 298 CURVE",
"151 417 LINE",
"151 439 LINE SMOOTH",
"151 476 OFFCURVE",
"153 516 OFFCURVE",
"153 534 CURVE SMOOTH",
"153 542 LINE",
"168 547 OFFCURVE",
"172 552 OFFCURVE",
"228 552 CURVE SMOOTH",
"260 552 LINE SMOOTH",
"278 552 OFFCURVE",
"296 551 OFFCURVE",
"315 546 CURVE",
"331 535 OFFCURVE",
"362 503 OFFCURVE",
"370 488 CURVE SMOOTH",
"373 485 OFFCURVE",
"376 484 OFFCURVE",
"379 484 CURVE SMOOTH",
"384 484 OFFCURVE",
"388 487 OFFCURVE",
"390 491 CURVE SMOOTH",
"390 503 LINE SMOOTH",
"390 529 OFFCURVE",
"389 571 OFFCURVE",
"383 582 CURVE",
"362 582 OFFCURVE",
"347 583 OFFCURVE",
"334 583 CURVE SMOOTH",
"308 583 OFFCURVE",
"289 582 OFFCURVE",
"248 582 CURVE SMOOTH",
"203 582 OFFCURVE",
"171 583 OFFCURVE",
"140 583 CURVE SMOOTH",
"102 583 OFFCURVE",
"65 582 OFFCURVE",
"14 580 CURVE SMOOTH",
"11 579 OFFCURVE",
"10 576 OFFCURVE",
"10 572 CURVE SMOOTH",
"10 568 OFFCURVE",
"11 563 OFFCURVE",
"14 562 CURVE SMOOTH",
"40 557 OFFCURVE",
"48 555 OFFCURVE",
"68 543 CURVE",
"71 469 OFFCURVE",
"73 220 OFFCURVE",
"73 38 CURVE",
"57 25 OFFCURVE",
"46 25 OFFCURVE",
"20 20 CURVE SMOOTH",
"17 19 OFFCURVE",
"15 13 OFFCURVE",
"15 9 CURVE SMOOTH",
"15 6 OFFCURVE",
"17 3 OFFCURVE",
"20 2 CURVE SMOOTH",
"71 0 OFFCURVE",
"107 -1 OFFCURVE",
"145 -1 CURVE SMOOTH",
"253 -1 LINE SMOOTH",
"294 -1 OFFCURVE",
"313 -1 OFFCURVE",
"339 -1 CURVE SMOOTH",
"388 -1 LINE",
"394 10 OFFCURVE",
"395 52 OFFCURVE",
"395 78 CURVE SMOOTH",
"395 90 LINE SMOOTH"
);
}
);
userData = {
com.fontlab.hintData = {
hhints = (
{
position = 30;
width = 220;
},
{
position = 97;
width = 153;
},
{
position = 297;
width = 255;
},
{
position = 583;
width = 50;
}
);
vhints = (
{
position = 10;
width = 385;
}
);
};
};
width = 441;
}
);
unicode = 00CA;
},
{
glyphname = Edieresis;
layers = (
{
layerId = master01;
paths = (
{
closed = 1;
nodes = (
"126 655 OFFCURVE",
"133 641 OFFCURVE",
"150 641 CURVE SMOOTH",
"158 641 OFFCURVE",
"166 644 OFFCURVE",
"175 650 CURVE SMOOTH",
"189 659 OFFCURVE",
"190 662 OFFCURVE",
"190 684 CURVE SMOOTH",
"190 706 OFFCURVE",
"184 717 OFFCURVE",
"173 717 CURVE SMOOTH",
"169 717 OFFCURVE",
"164 715 OFFCURVE",
"158 712 CURVE SMOOTH",
"137 701 OFFCURVE",
"126 686 OFFCURVE",
"126 669 CURVE SMOOTH"
);
},
{
closed = 1;
nodes = (
"244 655 OFFCURVE",
"252 641 OFFCURVE",
"269 641 CURVE SMOOTH",
"277 641 OFFCURVE",
"285 644 OFFCURVE",
"294 650 CURVE SMOOTH",
"308 659 OFFCURVE",
"308 662 OFFCURVE",
"308 684 CURVE SMOOTH",
"308 706 OFFCURVE",
"303 717 OFFCURVE",
"292 717 CURVE SMOOTH",
"288 717 OFFCURVE",
"283 715 OFFCURVE",
"277 712 CURVE SMOOTH",
"256 701 OFFCURVE",
"244 686 OFFCURVE",
"244 669 CURVE SMOOTH"
);
},
{
closed = 1;
nodes = (
"393 94 OFFCURVE",
"389 97 OFFCURVE",
"384 97 CURVE SMOOTH",
"381 97 OFFCURVE",
"378 96 OFFCURVE",
"375 94 CURVE SMOOTH",
"369 83 OFFCURVE",
"338 47 OFFCURVE",
"320 36 CURVE",
"301 31 OFFCURVE",
"283 29 OFFCURVE",
"265 29 CURVE SMOOTH",
"254 29 OFFCURVE",
"244 30 OFFCURVE",
"233 30 CURVE SMOOTH",
"180 30 OFFCURVE",
"171 34 OFFCURVE",
"157 39 CURVE",
"156 251 LINE",
"231 251 OFFCURVE",
"312 250 OFFCURVE",
"324 250 CURVE SMOOTH",
"349 250 OFFCURVE",
"366 219 OFFCURVE",
"368 210 CURVE SMOOTH",
"369 208 OFFCURVE",
"373 206 OFFCURVE",
"377 206 CURVE SMOOTH",
"382 206 OFFCURVE",
"388 209 OFFCURVE",
"388 211 CURVE SMOOTH",
"389 213 OFFCURVE",
"389 223 OFFCURVE",
"389 237 CURVE SMOOTH",
"389 276 OFFCURVE",
"386 345 OFFCURVE",
"386 345 CURVE SMOOTH",
"385 348 OFFCURVE",
"381 349 OFFCURVE",
"377 349 CURVE SMOOTH",
"374 349 OFFCURVE",
"370 348 OFFCURVE",
"368 346 CURVE SMOOTH",
"366 338 OFFCURVE",
"347 305 OFFCURVE",
"320 302 CURVE SMOOTH",
"276 298 OFFCURVE",
"247 297 OFFCURVE",
"215 297 CURVE SMOOTH",
"197 297 OFFCURVE",
"178 298 OFFCURVE",
"155 298 CURVE",
"151 417 LINE",
"151 439 LINE SMOOTH",
"151 476 OFFCURVE",
"153 516 OFFCURVE",
"153 534 CURVE SMOOTH",
"153 542 LINE",
"168 547 OFFCURVE",
"172 552 OFFCURVE",
"228 552 CURVE SMOOTH",
"260 552 LINE SMOOTH",
"278 552 OFFCURVE",
"296 551 OFFCURVE",
"315 546 CURVE",
"331 535 OFFCURVE",
"362 503 OFFCURVE",
"370 488 CURVE SMOOTH",
"373 485 OFFCURVE",
"376 484 OFFCURVE",
"379 484 CURVE SMOOTH",
"384 484 OFFCURVE",
"388 487 OFFCURVE",
"390 491 CURVE SMOOTH",
"390 503 LINE SMOOTH",
"390 529 OFFCURVE",
"389 571 OFFCURVE",
"383 582 CURVE",
"362 582 OFFCURVE",
"347 583 OFFCURVE",
"334 583 CURVE SMOOTH",
"308 583 OFFCURVE",
"289 582 OFFCURVE",
"248 582 CURVE SMOOTH",
"203 582 OFFCURVE",
"171 583 OFFCURVE",
"140 583 CURVE SMOOTH",
"102 583 OFFCURVE",
"65 582 OFFCURVE",
"14 580 CURVE SMOOTH",
"11 579 OFFCURVE",
"10 576 OFFCURVE",
"10 572 CURVE SMOOTH",
"10 568 OFFCURVE",
"11 563 OFFCURVE",
"14 562 CURVE SMOOTH",
"40 557 OFFCURVE",
"48 555 OFFCURVE",
"68 543 CURVE",
"71 469 OFFCURVE",
"73 220 OFFCURVE",
"73 38 CURVE",
"57 25 OFFCURVE",
"46 25 OFFCURVE",
"20 20 CURVE SMOOTH",
"17 19 OFFCURVE",
"15 13 OFFCURVE",
"15 9 CURVE SMOOTH",
"15 6 OFFCURVE",
"17 3 OFFCURVE",
"20 2 CURVE SMOOTH",
"71 0 OFFCURVE",
"107 -1 OFFCURVE",
"145 -1 CURVE SMOOTH",
"253 -1 LINE SMOOTH",
"294 -1 OFFCURVE",
"313 -1 OFFCURVE",
"339 -1 CURVE SMOOTH",
"388 -1 LINE",
"394 10 OFFCURVE",
"395 52 OFFCURVE",
"395 78 CURVE SMOOTH",
"395 90 LINE SMOOTH"
);
}
);
userData = {
com.fontlab.hintData = {
hhints = (
{
position = 30;
width = 220;
},
{
position = 97;
width = 153;
},
{
position = 297;
width = 255;
},
{
position = 582;
width = 59;
}
);
vhints = (
{
position = 190;
width = 54;
}
);
};
};
width = 441;
}
);
unicode = 00CB;
},
{
glyphname = Egrave;
layers = (
{
layerId = master01;
paths = (
{
closed = 1;
nodes = (
"1 698 OFFCURVE",
"27 672 OFFCURVE",
"42 668 CURVE",
"63 672 OFFCURVE",
"83 715 OFFCURVE",
"100 715 CURVE SMOOTH",
"119 715 OFFCURVE",
"137 708 OFFCURVE",
"163 700 CURVE SMOOTH",
"240 678 OFFCURVE",
"279 664 OFFCURVE",
"350 632 CURVE",
"353 636 LINE",
"307 666 OFFCURVE",
"182 703 OFFCURVE",
"108 725 CURVE SMOOTH",
"84 732 OFFCURVE",
"69 738 OFFCURVE",
"51 738 CURVE SMOOTH",
"30 738 OFFCURVE",
"11 729 OFFCURVE",
"0 709 CURVE"
);
},
{
closed = 1;
nodes = (
"393 94 OFFCURVE",
"389 97 OFFCURVE",
"384 97 CURVE SMOOTH",
"381 97 OFFCURVE",
"378 96 OFFCURVE",
"375 94 CURVE SMOOTH",
"369 83 OFFCURVE",
"338 47 OFFCURVE",
"320 36 CURVE",
"301 31 OFFCURVE",
"283 29 OFFCURVE",
"265 29 CURVE SMOOTH",
"254 29 OFFCURVE",
"244 30 OFFCURVE",
"233 30 CURVE SMOOTH",
"180 30 OFFCURVE",
"171 34 OFFCURVE",
"157 39 CURVE",
"156 251 LINE",
"231 251 OFFCURVE",
"312 250 OFFCURVE",
"324 250 CURVE SMOOTH",
"349 250 OFFCURVE",
"366 219 OFFCURVE",
"368 210 CURVE SMOOTH",
"369 208 OFFCURVE",
"373 206 OFFCURVE",
"377 206 CURVE SMOOTH",
"382 206 OFFCURVE",
"388 209 OFFCURVE",
"388 211 CURVE SMOOTH",
"389 213 OFFCURVE",
"389 223 OFFCURVE",
"389 237 CURVE SMOOTH",
"389 276 OFFCURVE",
"386 345 OFFCURVE",
"386 345 CURVE SMOOTH",
"385 348 OFFCURVE",
"381 349 OFFCURVE",
"377 349 CURVE SMOOTH",
"374 349 OFFCURVE",
"370 348 OFFCURVE",
"368 346 CURVE SMOOTH",
"366 338 OFFCURVE",
"347 305 OFFCURVE",
"320 302 CURVE SMOOTH",
"276 298 OFFCURVE",
"247 297 OFFCURVE",
"215 297 CURVE SMOOTH",
"197 297 OFFCURVE",
"178 298 OFFCURVE",
"155 298 CURVE",
"151 417 LINE",
"151 439 LINE SMOOTH",
"151 476 OFFCURVE",
"153 516 OFFCURVE",
"153 534 CURVE SMOOTH",
"153 542 LINE",
"168 547 OFFCURVE",
"172 552 OFFCURVE",
"228 552 CURVE SMOOTH",
"260 552 LINE SMOOTH",
"278 552 OFFCURVE",
"296 551 OFFCURVE",
"315 546 CURVE",
"331 535 OFFCURVE",
"362 503 OFFCURVE",
"370 488 CURVE SMOOTH",
"373 485 OFFCURVE",
"376 484 OFFCURVE",
"379 484 CURVE SMOOTH",
"384 484 OFFCURVE",
"388 487 OFFCURVE",
"390 491 CURVE SMOOTH",
"390 503 LINE SMOOTH",
"390 529 OFFCURVE",
"389 571 OFFCURVE",
"383 582 CURVE",
"362 582 OFFCURVE",
"347 583 OFFCURVE",
"334 583 CURVE SMOOTH",
"308 583 OFFCURVE",
"289 582 OFFCURVE",
"248 582 CURVE SMOOTH",
"203 582 OFFCURVE",
"171 583 OFFCURVE",
"140 583 CURVE SMOOTH",
"102 583 OFFCURVE",
"65 582 OFFCURVE",
"14 580 CURVE SMOOTH",
"11 579 OFFCURVE",
"10 576 OFFCURVE",
"10 572 CURVE SMOOTH",
"10 568 OFFCURVE",
"11 563 OFFCURVE",
"14 562 CURVE SMOOTH",
"40 557 OFFCURVE",
"48 555 OFFCURVE",
"68 543 CURVE",
"71 469 OFFCURVE",
"73 220 OFFCURVE",
"73 38 CURVE",
"57 25 OFFCURVE",
"46 25 OFFCURVE",
"20 20 CURVE SMOOTH",
"17 19 OFFCURVE",
"15 13 OFFCURVE",
"15 9 CURVE SMOOTH",
"15 6 OFFCURVE",
"17 3 OFFCURVE",
"20 2 CURVE SMOOTH",
"71 0 OFFCURVE",
"107 -1 OFFCURVE",
"145 -1 CURVE SMOOTH",
"253 -1 LINE SMOOTH",
"294 -1 OFFCURVE",
"313 -1 OFFCURVE",
"339 -1 CURVE SMOOTH",
"388 -1 LINE",
"394 10 OFFCURVE",
"395 52 OFFCURVE",
"395 78 CURVE SMOOTH",
"395 90 LINE SMOOTH"
);
}
);
userData = {
com.fontlab.hintData = {
hhints = (
{
position = 30;
width = 220;
},
{
position = 97;
width = 153;
},
{
position = 297;
width = 255;
},
{
position = 583;
width = 132;
}
);
vhints = (
{
position = 0;
width = 395;
}
);
};
};
width = 441;
}
);
unicode = 00C8;
},
{
glyphname = Emacron;
layers = (
{
layerId = master01;
paths = (
{
closed = 1;
nodes = (
"382 722 OFFCURVE",
"362 722 OFFCURVE",
"345 722 CURVE SMOOTH",
"317 722 OFFCURVE",
"158 704 OFFCURVE",
"124 704 CURVE SMOOTH",
"104 704 OFFCURVE",
"107 722 OFFCURVE",
"93 722 CURVE SMOOTH",
"74 722 OFFCURVE",
"48 692 OFFCURVE",
"48 676 CURVE SMOOTH",
"48 660 OFFCURVE",
"60 659 OFFCURVE",
"79 659 CURVE SMOOTH",
"102 659 OFFCURVE",
"285 675 OFFCURVE",
"309 675 CURVE SMOOTH",
"318 675 OFFCURVE",
"321 656 OFFCURVE",
"333 656 CURVE SMOOTH",
"355 656 OFFCURVE",
"382 693 OFFCURVE",
"382 706 CURVE SMOOTH"
);
},
{
closed = 1;
nodes = (
"392 97 OFFCURVE",
"382 100 OFFCURVE",
"375 94 CURVE SMOOTH",
"369 83 OFFCURVE",
"338 47 OFFCURVE",
"320 36 CURVE",
"301 31 OFFCURVE",
"283 29 OFFCURVE",
"265 29 CURVE SMOOTH",
"254 29 OFFCURVE",
"244 30 OFFCURVE",
"233 30 CURVE SMOOTH",
"180 30 OFFCURVE",
"171 34 OFFCURVE",
"157 39 CURVE",
"156 251 LINE",
"231 251 OFFCURVE",
"312 250 OFFCURVE",
"324 250 CURVE SMOOTH",
"349 250 OFFCURVE",
"366 219 OFFCURVE",
"368 210 CURVE SMOOTH",
"371 204 OFFCURVE",
"387 207 OFFCURVE",
"388 211 CURVE SMOOTH",
"389 213 OFFCURVE",
"389 223 OFFCURVE",
"389 237 CURVE SMOOTH",
"389 276 OFFCURVE",
"386 345 OFFCURVE",
"386 345 CURVE SMOOTH",
"383 350 OFFCURVE",
"371 350 OFFCURVE",
"368 346 CURVE SMOOTH",
"366 338 OFFCURVE",
"347 305 OFFCURVE",
"320 302 CURVE SMOOTH",
"276 298 OFFCURVE",
"247 297 OFFCURVE",
"215 297 CURVE SMOOTH",
"197 297 OFFCURVE",
"178 298 OFFCURVE",
"155 298 CURVE",
"151 417 LINE",
"151 439 LINE SMOOTH",
"151 476 OFFCURVE",
"153 516 OFFCURVE",
"153 534 CURVE SMOOTH",
"153 542 LINE",
"168 547 OFFCURVE",
"172 552 OFFCURVE",
"228 552 CURVE SMOOTH",
"260 552 LINE SMOOTH",
"278 552 OFFCURVE",
"296 551 OFFCURVE",
"315 546 CURVE",
"331 535 OFFCURVE",
"362 503 OFFCURVE",
"370 488 CURVE SMOOTH",
"378 480 OFFCURVE",
"387 484 OFFCURVE",
"390 491 CURVE SMOOTH",
"390 503 LINE SMOOTH",
"390 529 OFFCURVE",
"389 571 OFFCURVE",
"383 582 CURVE",
"362 582 OFFCURVE",
"347 583 OFFCURVE",
"334 583 CURVE SMOOTH",
"308 583 OFFCURVE",
"289 582 OFFCURVE",
"248 582 CURVE SMOOTH",
"203 582 OFFCURVE",
"171 583 OFFCURVE",
"140 583 CURVE SMOOTH",
"102 583 OFFCURVE",
"65 582 OFFCURVE",
"14 580 CURVE SMOOTH",
"11 579 OFFCURVE",
"10 576 OFFCURVE",
"10 572 CURVE SMOOTH",
"10 568 OFFCURVE",
"11 563 OFFCURVE",
"14 562 CURVE SMOOTH",
"40 557 OFFCURVE",
"48 555 OFFCURVE",
"68 543 CURVE",
"71 469 OFFCURVE",
"73 220 OFFCURVE",
"73 38 CURVE",
"57 25 OFFCURVE",
"46 25 OFFCURVE",
"20 20 CURVE SMOOTH",
"15 17 OFFCURVE",
"13 5 OFFCURVE",
"20 2 CURVE SMOOTH",
"71 0 OFFCURVE",
"107 -1 OFFCURVE",
"145 -1 CURVE SMOOTH",
"253 -1 LINE SMOOTH",
"294 -1 OFFCURVE",
"313 -1 OFFCURVE",
"339 -1 CURVE SMOOTH",
"388 -1 LINE",
"394 10 OFFCURVE",
"395 52 OFFCURVE",
"395 78 CURVE SMOOTH",
"395 90 LINE SMOOTH"
);
}
);
userData = {
com.fontlab.hintData = {
hhints = (
{
position = 30;
width = 220;
},
{
position = 97;
width = 110;
},
{
position = 97;
width = 153;
},
{
position = 297;
width = 255;
},
{
position = 349;
width = 135;
},
{
position = 582;
width = 93;
},
{
position = 583;
width = 76;
}
);
vhints = (
{
position = 10;
width = 385;
}
);
};
};
width = 441;
}
);
unicode = 0112;
},
{
glyphname = F;
lastChange = "2021-06-23 18:24:45 +0000";
layers = (
{
anchors = (
{
name = "Anchor-1";
position = "{214, 595}";
}
);
layerId = master01;
paths = (
{
closed = 1;
nodes = (
"397 204 OFFCURVE",
"398 215 OFFCURVE",
"398 231 CURVE SMOOTH",
"398 275 OFFCURVE",
"394 354 OFFCURVE",
"394 354 CURVE SMOOTH",
"391 359 OFFCURVE",
"380 358 OFFCURVE",
"377 354 CURVE SMOOTH",
"375 336 OFFCURVE",
"353 309 OFFCURVE",
"331 295 CURVE SMOOTH",
"283 266 OFFCURVE",
"219 230 OFFCURVE",
"155 230 CURVE",
"151 416 LINE",
"151 430 LINE SMOOTH",
"151 468 OFFCURVE",
"153 512 OFFCURVE",
"153 533 CURVE SMOOTH",
"153 543 LINE",
"167 549 OFFCURVE",
"179 552 OFFCURVE",
"219 552 CURVE SMOOTH",
"242 552 LINE SMOOTH",
"259 552 OFFCURVE",
"275 551 OFFCURVE",
"296 545 CURVE",
"315 533 OFFCURVE",
"345 506 OFFCURVE",
"351 492 CURVE",
"359 485 OFFCURVE",
"368 489 OFFCURVE",
"371 496 CURVE SMOOTH",
"371 504 OFFCURVE",
"372 515 OFFCURVE",
"372 527 CURVE SMOOTH",
"372 549 OFFCURVE",
"371 573 OFFCURVE",
"366 582 CURVE",
"345 582 OFFCURVE",
"331 583 OFFCURVE",
"319 583 CURVE SMOOTH",
"296 583 OFFCURVE",
"281 582 OFFCURVE",
"240 582 CURVE SMOOTH",
"195 582 OFFCURVE",
"164 583 OFFCURVE",
"135 583 CURVE SMOOTH",
"99 583 OFFCURVE",
"65 582 OFFCURVE",
"14 580 CURVE SMOOTH",
"11 579 OFFCURVE",
"10 576 OFFCURVE",
"10 572 CURVE SMOOTH",
"10 568 OFFCURVE",
"11 563 OFFCURVE",
"14 562 CURVE SMOOTH",
"39 559 OFFCURVE",
"54 557 OFFCURVE",
"68 543 CURVE",
"71 469 OFFCURVE",
"73 226 OFFCURVE",
"73 45 CURVE",
"61 33 OFFCURVE",
"42 25 OFFCURVE",
"14 23 CURVE SMOOTH",
"10 20 OFFCURVE",
"9 15 OFFCURVE",
"9 11 CURVE SMOOTH",
"9 6 OFFCURVE",
"11 2 OFFCURVE",
"14 0 CURVE SMOOTH",
"50 -4 OFFCURVE",
"71 -4 OFFCURVE",
"89 -4 CURVE SMOOTH",
"121 -4 LINE SMOOTH",
"154 -4 OFFCURVE",
"211 -2 OFFCURVE",
"237 1 CURVE SMOOTH",
"241 5 OFFCURVE",
"243 9 OFFCURVE",
"243 13 CURVE SMOOTH",
"243 18 OFFCURVE",
"240 23 OFFCURVE",
"236 27 CURVE",
"212 27 OFFCURVE",
"183 31 OFFCURVE",
"156 47 CURVE",
"156 183 LINE",
"231 183 OFFCURVE",
"320 241 OFFCURVE",
"332 241 CURVE SMOOTH",
"360 241 OFFCURVE",
"374 221 OFFCURVE",
"378 201 CURVE SMOOTH",
"381 195 OFFCURVE",
"395 198 OFFCURVE",
"396 202 CURVE SMOOTH"
);
}
);
userData = {
com.fontlab.hintData = {
hhints = (
{
position = 27;
width = 156;
},
{
position = 357;
width = 132;
}
);
vhints = (
{
position = 9;
width = 389;
}
);
};
};
width = 417;
}
);
rightKerningGroup = F;
unicode = 0046;
},
{
glyphname = G;
layers = (
{
anchors = (
{
name = "Anchor-1";
position = "{246, 595}";
}
);
layerId = master01;
paths = (
{
closed = 1;
nodes = (
"424 238 OFFCURVE",
"363 240 OFFCURVE",
"309 240 CURVE SMOOTH",
"270 240 OFFCURVE",
"235 239 OFFCURVE",
"230 238 CURVE SMOOTH",
"229 235 OFFCURVE",
"229 189 OFFCURVE",
"229 177 CURVE",
"245 183 OFFCURVE",
"246 197 OFFCURVE",
"263 207 CURVE SMOOTH",
"273 210 OFFCURVE",
"297 212 OFFCURVE",
"323 212 CURVE SMOOTH",
"352 212 OFFCURVE",
"381 210 OFFCURVE",
"390 208 CURVE",
"389 160 OFFCURVE",
"391 49 OFFCURVE",
"388 37 CURVE",
"364 30 OFFCURVE",
"316 29 OFFCURVE",
"278 29 CURVE SMOOTH",
"259 29 OFFCURVE",
"243 30 OFFCURVE",
"233 30 CURVE SMOOTH",
"181 30 OFFCURVE",
"171 39 OFFCURVE",
"157 47 CURVE",
"155 298 LINE SMOOTH",
"155 328 OFFCURVE",
"154 356 OFFCURVE",
"154 381 CURVE SMOOTH",
"154 426 OFFCURVE",
"155 463 OFFCURVE",
"155 490 CURVE SMOOTH",
"155 515 OFFCURVE",
"154 532 OFFCURVE",
"153 541 CURVE",
"167 548 OFFCURVE",
"189 552 OFFCURVE",
"228 552 CURVE SMOOTH",
"275 552 LINE SMOOTH",
"294 552 OFFCURVE",
"314 551 OFFCURVE",
"329 547 CURVE SMOOTH",
"366 538 OFFCURVE",
"398 499 OFFCURVE",
"404 488 CURVE SMOOTH",
"411 482 OFFCURVE",
"422 486 OFFCURVE",
"424 491 CURVE SMOOTH",
"424 503 LINE SMOOTH",
"424 528 OFFCURVE",
"423 569 OFFCURVE",
"417 582 CURVE",
"396 582 OFFCURVE",
"377 583 OFFCURVE",
"359 583 CURVE SMOOTH",
"323 583 OFFCURVE",
"289 582 OFFCURVE",
"248 582 CURVE SMOOTH",
"203 582 OFFCURVE",
"171 583 OFFCURVE",
"140 583 CURVE SMOOTH",
"102 583 OFFCURVE",
"65 582 OFFCURVE",
"14 580 CURVE SMOOTH",
"11 579 OFFCURVE",
"10 576 OFFCURVE",
"10 572 CURVE SMOOTH",
"10 568 OFFCURVE",
"11 563 OFFCURVE",
"14 562 CURVE SMOOTH",
"40 557 OFFCURVE",
"48 556 OFFCURVE",
"68 539 CURVE",
"71 465 OFFCURVE",
"73 225 OFFCURVE",
"73 43 CURVE",
"53 29 OFFCURVE",
"46 25 OFFCURVE",
"20 20 CURVE SMOOTH",
"15 17 OFFCURVE",
"13 5 OFFCURVE",
"20 2 CURVE SMOOTH",
"71 0 OFFCURVE",
"107 -1 OFFCURVE",
"145 -1 CURVE SMOOTH",
"253 -1 LINE SMOOTH",
"294 -1 OFFCURVE",
"328 -1 OFFCURVE",
"364 -1 CURVE SMOOTH",
"422 -1 LINE",
"428 10 OFFCURVE",
"430 128 OFFCURVE",
"430 193 CURVE SMOOTH",
"430 214 OFFCURVE",
"429 230 OFFCURVE",
"429 235 CURVE"
);
}
);
userData = {
com.fontlab.hintData = {
hhints = (
{
position = 29;
width = 183;
}
);
vhints = (
{
position = 155;
width = 74;
},
{
position = 155;
width = 235;
}
);
};
};
width = 471;
}
);
unicode = 0047;
},
{
glyphname = H;
lastChange = "2021-06-23 18:31:26 +0000";
layers = (
{
anchors = (
{
name = "Anchor-1";
position = "{282, 595}";
}
);
layerId = master01;
paths = (
{
closed = 1;
nodes = (
"495 263 OFFCURVE",
"422 326 OFFCURVE",
"343 326 CURVE SMOOTH",
"288 326 OFFCURVE",
"219 299 OFFCURVE",
"159 224 CURVE",
"158 253 OFFCURVE",
"157 281 OFFCURVE",
"157 307 CURVE SMOOTH",
"157 416 OFFCURVE",
"167 493 OFFCURVE",
"173 527 CURVE",
"185 532 OFFCURVE",
"201 532 OFFCURVE",
"214 539 CURVE SMOOTH",
"217 541 OFFCURVE",
"218 546 OFFCURVE",
"218 550 CURVE SMOOTH",
"218 556 OFFCURVE",
"215 562 OFFCURVE",
"212 564 CURVE SMOOTH",
"141 583 OFFCURVE",
"104 584 OFFCURVE",
"69 584 CURVE SMOOTH",
"60 584 LINE SMOOTH",
"44 584 OFFCURVE",
"24 575 OFFCURVE",
"16 571 CURVE SMOOTH",
"14 567 OFFCURVE",
"12 563 OFFCURVE",
"12 559 CURVE SMOOTH",
"12 554 OFFCURVE",
"14 550 OFFCURVE",
"17 546 CURVE",
"45 546 OFFCURVE",
"65 540 OFFCURVE",
"76 526 CURVE",
"76 511 OFFCURVE",
"77 497 OFFCURVE",
"77 483 CURVE SMOOTH",
"77 317 OFFCURVE",
"68 217 OFFCURVE",
"68 147 CURVE SMOOTH",
"68 119 OFFCURVE",
"69 93 OFFCURVE",
"69 63 CURVE SMOOTH",
"69 40 LINE",
"54 27 OFFCURVE",
"33 22 OFFCURVE",
"12 20 CURVE SMOOTH",
"11 17 OFFCURVE",
"10 14 OFFCURVE",
"10 11 CURVE SMOOTH",
"10 4 OFFCURVE",
"12 -3 OFFCURVE",
"15 -6 CURVE SMOOTH",
"28 -11 OFFCURVE",
"60 -15 OFFCURVE",
"84 -15 CURVE SMOOTH",
"127 -15 OFFCURVE",
"142 2 OFFCURVE",
"224 16 CURVE",
"232 26 OFFCURVE",
"230 31 OFFCURVE",
"222 38 CURVE",
"211 38 LINE SMOOTH",
"194 38 OFFCURVE",
"170 41 OFFCURVE",
"159 54 CURVE",
"158 161 LINE",
"176 210 OFFCURVE",
"226 269 OFFCURVE",
"274 269 CURVE SMOOTH",
"363 269 OFFCURVE",
"401 153 OFFCURVE",
"401 78 CURVE SMOOTH",
"401 24 OFFCURVE",
"383 -16 OFFCURVE",
"314 -75 CURVE",
"327 -89 LINE",
"398 -47 OFFCURVE",
"495 8 OFFCURVE",
"495 186 CURVE SMOOTH"
);
}
);
userData = {
com.fontlab.hintData = {
hhints = (
{
position = -89;
width = 673;
}
);
vhints = (
{
position = 158;
width = 242;
},
{
position = 229;
width = 172;
}
);
};
};
width = 514;
}
);
rightKerningGroup = H;
unicode = 0048;
},
{
glyphname = I;
layers = (
{
anchors = (
{
name = "Anchor-1";
position = "{114, 595}";
}
);
layerId = master01;
paths = (
{
closed = 1;
nodes = (
"241 10 OFFCURVE",
"243 14 OFFCURVE",
"243 18 CURVE SMOOTH",
"243 23 OFFCURVE",
"240 28 OFFCURVE",
"236 32 CURVE SMOOTH",
"208 35 OFFCURVE",
"186 31 OFFCURVE",
"156 62 CURVE",
"156 241 OFFCURVE",
"158 505 OFFCURVE",
"160 528 CURVE",
"179 549 OFFCURVE",
"194 554 OFFCURVE",
"214 556 CURVE SMOOTH",
"216 558 OFFCURVE",
"217 562 OFFCURVE",
"217 566 CURVE SMOOTH",
"217 569 OFFCURVE",
"216 572 OFFCURVE",
"214 574 CURVE SMOOTH",
"181 583 OFFCURVE",
"159 587 OFFCURVE",
"108 587 CURVE SMOOTH",
"92 587 OFFCURVE",
"35 578 OFFCURVE",
"14 574 CURVE SMOOTH",
"11 573 OFFCURVE",
"10 570 OFFCURVE",
"10 566 CURVE SMOOTH",
"10 562 OFFCURVE",
"11 557 OFFCURVE",
"14 556 CURVE SMOOTH",
"39 553 OFFCURVE",
"48 550 OFFCURVE",
"68 535 CURVE",
"71 461 OFFCURVE",
"73 240 OFFCURVE",
"73 59 CURVE",
"58 39 OFFCURVE",
"37 39 OFFCURVE",
"14 32 CURVE SMOOTH",
"10 29 OFFCURVE",
"9 24 OFFCURVE",
"9 19 CURVE SMOOTH",
"9 13 OFFCURVE",
"11 7 OFFCURVE",
"14 5 CURVE SMOOTH",
"71 -6 OFFCURVE",
"86 -13 OFFCURVE",
"115 -13 CURVE SMOOTH",
"121 -13 LINE SMOOTH",
"153 -12 OFFCURVE",
"214 -8 OFFCURVE",
"237 6 CURVE SMOOTH"
);
}
);
userData = {
com.fontlab.hintData = {
hhints = (
{
position = -13;
width = 600;
}
);
vhints = (
{
position = 9;
width = 234;
}
);
};
};
width = 265;
}
);
unicode = 0049;
},
{
glyphname = Iacute;
layers = (
{
layerId = master01;
paths = (
{
closed = 1;
nodes = (
"376 729 OFFCURVE",
"357 738 OFFCURVE",
"336 738 CURVE SMOOTH",
"318 738 OFFCURVE",
"303 732 OFFCURVE",
"279 725 CURVE SMOOTH",
"205 703 OFFCURVE",
"80 666 OFFCURVE",
"34 636 CURVE",
"37 632 LINE",
"108 664 OFFCURVE",
"147 678 OFFCURVE",
"224 700 CURVE SMOOTH",
"250 708 OFFCURVE",
"267 715 OFFCURVE",
"286 715 CURVE SMOOTH",
"303 715 OFFCURVE",
"324 672 OFFCURVE",
"345 668 CURVE",
"360 672 OFFCURVE",
"386 698 OFFCURVE",
"387 709 CURVE"
);
},
{
closed = 1;
nodes = (
"241 10 OFFCURVE",
"243 14 OFFCURVE",
"243 18 CURVE SMOOTH",
"243 23 OFFCURVE",
"240 28 OFFCURVE",
"236 32 CURVE SMOOTH",
"208 35 OFFCURVE",
"186 31 OFFCURVE",
"156 62 CURVE",
"156 241 OFFCURVE",
"158 505 OFFCURVE",
"160 528 CURVE",
"179 549 OFFCURVE",
"194 554 OFFCURVE",
"214 556 CURVE SMOOTH",
"217 560 OFFCURVE",
"218 571 OFFCURVE",
"214 574 CURVE SMOOTH",
"181 583 OFFCURVE",
"159 587 OFFCURVE",
"108 587 CURVE SMOOTH",
"92 587 OFFCURVE",
"35 578 OFFCURVE",
"14 574 CURVE SMOOTH",
"11 573 OFFCURVE",
"10 570 OFFCURVE",
"10 566 CURVE SMOOTH",
"10 562 OFFCURVE",
"11 557 OFFCURVE",
"14 556 CURVE SMOOTH",
"39 553 OFFCURVE",
"48 550 OFFCURVE",
"68 535 CURVE",
"71 461 OFFCURVE",
"73 240 OFFCURVE",
"73 59 CURVE",
"58 39 OFFCURVE",
"37 39 OFFCURVE",
"14 32 CURVE SMOOTH",
"10 29 OFFCURVE",
"9 24 OFFCURVE",
"9 19 CURVE SMOOTH",
"9 13 OFFCURVE",
"11 7 OFFCURVE",
"14 5 CURVE SMOOTH",
"71 -6 OFFCURVE",
"86 -13 OFFCURVE",
"115 -13 CURVE SMOOTH",
"121 -13 LINE SMOOTH",
"153 -12 OFFCURVE",
"214 -8 OFFCURVE",
"237 6 CURVE SMOOTH"
);
}
);
userData = {
com.fontlab.hintData = {
hhints = (
{
position = -13;
width = 751;
}
);
vhints = (
{
position = 9;
width = 378;
}
);
};
};
width = 265;
}
);
unicode = 00CD;
},
{
glyphname = Icircumflex;
layers = (
{
layerId = master01;
paths = (
{
closed = 1;
nodes = (
"-25 637 OFFCURVE",
"-22 633 OFFCURVE",
"-17 633 CURVE SMOOTH",
"-15 633 OFFCURVE",
"-12 634 OFFCURVE",
"-8 636 CURVE SMOOTH",
"28 659 OFFCURVE",
"62 683 OFFCURVE",
"99 706 CURVE SMOOTH",
"109 712 OFFCURVE",
"115 715 OFFCURVE",
"120 715 CURVE SMOOTH",
"126 715 OFFCURVE",
"131 711 OFFCURVE",
"141 705 CURVE SMOOTH",
"248 636 LINE SMOOTH",
"252 634 OFFCURVE",
"255 633 OFFCURVE",
"257 633 CURVE SMOOTH",
"262 633 OFFCURVE",
"265 637 OFFCURVE",
"265 643 CURVE SMOOTH",
"265 650 OFFCURVE",
"262 658 OFFCURVE",
"254 664 CURVE SMOOTH",
"215 692 OFFCURVE",
"176 721 OFFCURVE",
"135 746 CURVE SMOOTH",
"132 748 OFFCURVE",
"128 749 OFFCURVE",
"123 749 CURVE SMOOTH",
"115 749 OFFCURVE",
"105 747 OFFCURVE",
"101 744 CURVE SMOOTH",
"62 719 OFFCURVE",
"24 691 OFFCURVE",
"-14 664 CURVE SMOOTH",
"-22 658 OFFCURVE",
"-25 650 OFFCURVE",
"-25 643 CURVE SMOOTH"
);
},
{
closed = 1;
nodes = (
"241 10 OFFCURVE",
"243 14 OFFCURVE",
"243 18 CURVE SMOOTH",
"243 23 OFFCURVE",
"240 28 OFFCURVE",
"236 32 CURVE SMOOTH",
"208 35 OFFCURVE",
"186 31 OFFCURVE",
"156 62 CURVE",
"156 241 OFFCURVE",
"158 505 OFFCURVE",
"160 528 CURVE",
"179 549 OFFCURVE",
"194 554 OFFCURVE",
"214 556 CURVE SMOOTH",
"216 558 OFFCURVE",
"217 562 OFFCURVE",
"217 566 CURVE SMOOTH",
"217 569 OFFCURVE",
"216 572 OFFCURVE",
"214 574 CURVE SMOOTH",
"181 583 OFFCURVE",
"159 587 OFFCURVE",
"108 587 CURVE SMOOTH",
"92 587 OFFCURVE",
"35 578 OFFCURVE",
"14 574 CURVE SMOOTH",
"11 573 OFFCURVE",
"10 570 OFFCURVE",
"10 566 CURVE SMOOTH",
"10 562 OFFCURVE",
"11 557 OFFCURVE",
"14 556 CURVE SMOOTH",
"39 553 OFFCURVE",
"48 550 OFFCURVE",
"68 535 CURVE",
"71 461 OFFCURVE",
"73 240 OFFCURVE",
"73 59 CURVE",
"58 39 OFFCURVE",
"37 39 OFFCURVE",
"14 32 CURVE SMOOTH",
"10 29 OFFCURVE",
"9 24 OFFCURVE",
"9 19 CURVE SMOOTH",
"9 13 OFFCURVE",
"11 7 OFFCURVE",
"14 5 CURVE SMOOTH",
"71 -6 OFFCURVE",
"86 -13 OFFCURVE",
"115 -13 CURVE SMOOTH",
"121 -13 LINE SMOOTH",
"153 -12 OFFCURVE",
"214 -8 OFFCURVE",
"237 6 CURVE SMOOTH"
);
}
);
userData = {
com.fontlab.hintData = {
hhints = (
{
position = -13;
width = 762;
}
);
vhints = (
{
position = -25;
width = 290;
}
);
};
};
width = 265;
}
);
unicode = 00CE;
},
{
glyphname = Idieresis;
layers = (
{
layerId = master01;
paths = (
{
closed = 1;
nodes = (
"21 655 OFFCURVE",
"28 641 OFFCURVE",
"45 641 CURVE SMOOTH",
"53 641 OFFCURVE",
"61 644 OFFCURVE",
"70 650 CURVE SMOOTH",
"84 659 OFFCURVE",
"84 662 OFFCURVE",
"84 684 CURVE SMOOTH",
"84 706 OFFCURVE",
"79 717 OFFCURVE",
"68 717 CURVE SMOOTH",
"64 717 OFFCURVE",
"59 715 OFFCURVE",
"53 712 CURVE SMOOTH",
"32 701 OFFCURVE",
"21 686 OFFCURVE",
"21 669 CURVE SMOOTH"
);
},
{
closed = 1;
nodes = (
"139 655 OFFCURVE",
"146 641 OFFCURVE",
"163 641 CURVE SMOOTH",
"171 641 OFFCURVE",
"179 644 OFFCURVE",
"188 650 CURVE SMOOTH",
"202 659 OFFCURVE",
"203 662 OFFCURVE",
"203 684 CURVE SMOOTH",
"203 706 OFFCURVE",
"197 717 OFFCURVE",
"186 717 CURVE SMOOTH",
"182 717 OFFCURVE",
"177 715 OFFCURVE",
"171 712 CURVE SMOOTH",
"150 701 OFFCURVE",
"139 686 OFFCURVE",
"139 669 CURVE SMOOTH"
);
},
{
closed = 1;
nodes = (
"241 10 OFFCURVE",
"243 14 OFFCURVE",
"243 18 CURVE SMOOTH",
"243 23 OFFCURVE",
"240 28 OFFCURVE",
"236 32 CURVE SMOOTH",
"208 35 OFFCURVE",
"186 31 OFFCURVE",
"156 62 CURVE",
"156 241 OFFCURVE",
"158 505 OFFCURVE",
"160 528 CURVE",
"179 549 OFFCURVE",
"194 554 OFFCURVE",
"214 556 CURVE SMOOTH",
"216 558 OFFCURVE",
"217 562 OFFCURVE",
"217 566 CURVE SMOOTH",
"217 569 OFFCURVE",
"216 572 OFFCURVE",
"214 574 CURVE SMOOTH",
"181 583 OFFCURVE",
"159 587 OFFCURVE",
"108 587 CURVE SMOOTH",
"92 587 OFFCURVE",
"35 578 OFFCURVE",
"14 574 CURVE SMOOTH",
"11 573 OFFCURVE",
"10 570 OFFCURVE",
"10 566 CURVE SMOOTH",
"10 562 OFFCURVE",
"11 557 OFFCURVE",
"14 556 CURVE SMOOTH",
"39 553 OFFCURVE",
"48 550 OFFCURVE",
"68 535 CURVE",
"71 461 OFFCURVE",
"73 240 OFFCURVE",
"73 59 CURVE",
"58 39 OFFCURVE",
"37 39 OFFCURVE",
"14 32 CURVE SMOOTH",
"10 29 OFFCURVE",
"9 24 OFFCURVE",
"9 19 CURVE SMOOTH",
"9 13 OFFCURVE",
"11 7 OFFCURVE",
"14 5 CURVE SMOOTH",
"71 -6 OFFCURVE",
"86 -13 OFFCURVE",
"115 -13 CURVE SMOOTH",
"121 -13 LINE SMOOTH",
"153 -12 OFFCURVE",
"214 -8 OFFCURVE",
"237 6 CURVE SMOOTH"
);
}
);
userData = {
com.fontlab.hintData = {
hhints = (
{
position = 587;
width = 54;
}
);
vhints = (
{
position = 84;
width = 55;
}
);
};
};
width = 265;
}
);
unicode = 00CF;
},
{
glyphname = Igrave;
layers = (
{
layerId = master01;
paths = (
{
closed = 1;
nodes = (
"-86 698 OFFCURVE",
"-60 672 OFFCURVE",
"-45 668 CURVE",
"-24 672 OFFCURVE",
"-3 715 OFFCURVE",
"14 715 CURVE SMOOTH",
"33 715 OFFCURVE",
"50 708 OFFCURVE",
"76 700 CURVE SMOOTH",
"153 678 OFFCURVE",
"193 664 OFFCURVE",
"264 632 CURVE",
"266 636 LINE",
"220 666 OFFCURVE",
"95 703 OFFCURVE",
"21 725 CURVE SMOOTH",
"-3 732 OFFCURVE",
"-18 738 OFFCURVE",
"-36 738 CURVE SMOOTH",
"-57 738 OFFCURVE",
"-76 729 OFFCURVE",
"-87 709 CURVE"
);
},
{
closed = 1;
nodes = (
"241 10 OFFCURVE",
"243 14 OFFCURVE",
"243 18 CURVE SMOOTH",
"243 23 OFFCURVE",
"240 28 OFFCURVE",
"236 32 CURVE SMOOTH",
"208 35 OFFCURVE",
"186 31 OFFCURVE",
"156 62 CURVE",
"156 241 OFFCURVE",
"158 505 OFFCURVE",
"160 528 CURVE",
"179 549 OFFCURVE",
"194 554 OFFCURVE",
"214 556 CURVE SMOOTH",
"216 558 OFFCURVE",
"217 562 OFFCURVE",
"217 566 CURVE SMOOTH",
"217 569 OFFCURVE",
"216 572 OFFCURVE",
"214 574 CURVE SMOOTH",
"181 583 OFFCURVE",
"159 587 OFFCURVE",
"108 587 CURVE SMOOTH",
"92 587 OFFCURVE",
"35 578 OFFCURVE",
"14 574 CURVE SMOOTH",
"11 573 OFFCURVE",
"10 570 OFFCURVE",
"10 566 CURVE SMOOTH",
"10 562 OFFCURVE",
"11 557 OFFCURVE",
"14 556 CURVE SMOOTH",
"39 553 OFFCURVE",
"48 550 OFFCURVE",
"68 535 CURVE",
"71 461 OFFCURVE",
"73 240 OFFCURVE",
"73 59 CURVE",
"58 39 OFFCURVE",
"37 39 OFFCURVE",
"14 32 CURVE SMOOTH",
"10 29 OFFCURVE",
"9 24 OFFCURVE",
"9 19 CURVE SMOOTH",
"9 13 OFFCURVE",
"11 7 OFFCURVE",
"14 5 CURVE SMOOTH",
"71 -6 OFFCURVE",
"86 -13 OFFCURVE",
"115 -13 CURVE SMOOTH",
"121 -13 LINE SMOOTH",
"153 -12 OFFCURVE",
"214 -8 OFFCURVE",
"237 6 CURVE SMOOTH"
);
}
);
userData = {
com.fontlab.hintData = {
hhints = (
{
position = -13;
width = 751;
}
);
vhints = (
{
position = -87;
width = 353;
}
);
};
};
width = 265;
}
);
unicode = 00CC;
},
{
glyphname = Imacron;
layers = (
{
layerId = master01;
paths = (
{
closed = 1;
nodes = (
"292 722 OFFCURVE",
"272 722 OFFCURVE",
"255 722 CURVE SMOOTH",
"227 722 OFFCURVE",
"68 704 OFFCURVE",
"34 704 CURVE SMOOTH",
"14 704 OFFCURVE",
"17 722 OFFCURVE",
"3 722 CURVE SMOOTH",
"-16 722 OFFCURVE",
"-42 692 OFFCURVE",
"-42 676 CURVE SMOOTH",
"-42 660 OFFCURVE",
"-30 659 OFFCURVE",
"-11 659 CURVE SMOOTH",
"12 659 OFFCURVE",
"195 675 OFFCURVE",
"219 675 CURVE SMOOTH",
"228 675 OFFCURVE",
"231 656 OFFCURVE",
"243 656 CURVE SMOOTH",
"265 656 OFFCURVE",
"292 693 OFFCURVE",
"292 706 CURVE SMOOTH"
);
},
{
closed = 1;
nodes = (
"241 10 OFFCURVE",
"243 14 OFFCURVE",
"243 18 CURVE SMOOTH",
"243 23 OFFCURVE",
"240 28 OFFCURVE",
"236 32 CURVE SMOOTH",
"208 35 OFFCURVE",
"186 31 OFFCURVE",
"156 62 CURVE",
"156 241 OFFCURVE",
"158 505 OFFCURVE",
"160 528 CURVE",
"179 549 OFFCURVE",
"194 554 OFFCURVE",
"214 556 CURVE SMOOTH",
"217 560 OFFCURVE",
"218 571 OFFCURVE",
"214 574 CURVE SMOOTH",
"181 583 OFFCURVE",
"159 587 OFFCURVE",
"108 587 CURVE SMOOTH",
"92 587 OFFCURVE",
"35 578 OFFCURVE",
"14 574 CURVE SMOOTH",
"11 573 OFFCURVE",
"10 570 OFFCURVE",
"10 566 CURVE SMOOTH",
"10 562 OFFCURVE",
"11 557 OFFCURVE",
"14 556 CURVE SMOOTH",
"39 553 OFFCURVE",
"48 550 OFFCURVE",
"68 535 CURVE",
"71 461 OFFCURVE",
"73 240 OFFCURVE",
"73 59 CURVE",
"58 39 OFFCURVE",
"37 39 OFFCURVE",
"14 32 CURVE SMOOTH",
"10 29 OFFCURVE",
"9 24 OFFCURVE",
"9 19 CURVE SMOOTH",
"9 13 OFFCURVE",
"11 7 OFFCURVE",
"14 5 CURVE SMOOTH",
"71 -6 OFFCURVE",
"86 -13 OFFCURVE",
"115 -13 CURVE SMOOTH",
"121 -13 LINE SMOOTH",
"153 -12 OFFCURVE",
"214 -8 OFFCURVE",
"237 6 CURVE SMOOTH"
);
}
);
userData = {
com.fontlab.hintData = {
hhints = (
{
position = 587;
width = 88;
}
);
vhints = (
{
position = -42;
width = 334;
}
);
};
};
width = 265;
}
);
unicode = 012A;
},
{
glyphname = J;
layers = (
{
anchors = (
{
name = "Anchor-1";
position = "{114, 595}";
}
);
layerId = master01;
paths = (
{
closed = 1;
nodes = (
"156 340 OFFCURVE",
"158 505 OFFCURVE",
"160 528 CURVE",
"179 549 OFFCURVE",
"194 554 OFFCURVE",
"214 556 CURVE SMOOTH",
"217 560 OFFCURVE",
"218 571 OFFCURVE",
"214 574 CURVE SMOOTH",
"181 583 OFFCURVE",
"159 587 OFFCURVE",
"108 587 CURVE SMOOTH",
"92 587 OFFCURVE",
"35 578 OFFCURVE",
"14 574 CURVE SMOOTH",
"11 573 OFFCURVE",
"10 569 OFFCURVE",
"10 565 CURVE SMOOTH",
"10 562 OFFCURVE",
"11 558 OFFCURVE",
"14 556 CURVE SMOOTH",
"39 553 OFFCURVE",
"48 550 OFFCURVE",
"68 535 CURVE",
"71 461 OFFCURVE",
"73 235 OFFCURVE",
"73 54 CURVE SMOOTH",
"73 0 OFFCURVE",
"55 -40 OFFCURVE",
"-14 -99 CURVE",
"-1 -113 LINE",
"70 -71 OFFCURVE",
"156 -16 OFFCURVE",
"156 162 CURVE SMOOTH"
);
}
);
userData = {
com.fontlab.hintData = {
hhints = (
{
position = -113;
width = 700;
}
);
vhints = (
{
position = -14;
width = 231;
}
);
};
};
width = 265;
}
);
unicode = 004A;
},
{
glyphname = K;
lastChange = "2021-06-23 18:31:30 +0000";
layers = (
{
anchors = (
{
name = "Anchor-1";
position = "{222, 595}";
}
);
layerId = master01;
paths = (
{
closed = 1;
nodes = (
"501 6 OFFCURVE",
"502 9 OFFCURVE",
"502 13 CURVE SMOOTH",
"502 19 OFFCURVE",
"500 25 OFFCURVE",
"495 28 CURVE SMOOTH",
"481 29 OFFCURVE",
"464 29 OFFCURVE",
"446 39 CURVE",
"383 101 OFFCURVE",
"326 179 OFFCURVE",
"272 246 CURVE SMOOTH",
"269 249 OFFCURVE",
"269 252 OFFCURVE",
"269 252 CURVE",
"291 303 OFFCURVE",
"318 351 OFFCURVE",
"347 399 CURVE SMOOTH",
"369 436 OFFCURVE",
"407 505 OFFCURVE",
"427 539 CURVE",
"439 551 OFFCURVE",
"460 562 OFFCURVE",
"493 562 CURVE SMOOTH",
"498 564 OFFCURVE",
"500 570 OFFCURVE",
"500 575 CURVE SMOOTH",
"500 579 OFFCURVE",
"499 583 OFFCURVE",
"496 585 CURVE SMOOTH",
"489 587 OFFCURVE",
"451 587 OFFCURVE",
"417 587 CURVE SMOOTH",
"382 587 OFFCURVE",
"337 585 OFFCURVE",
"329 583 CURVE SMOOTH",
"322 579 OFFCURVE",
"320 568 OFFCURVE",
"326 562 CURVE",
"344 558 OFFCURVE",
"353 555 OFFCURVE",
"361 536 CURVE",
"326 456 OFFCURVE",
"278 359 OFFCURVE",
"241 292 CURVE SMOOTH",
"240 289 OFFCURVE",
"236 289 OFFCURVE",
"236 290 CURVE SMOOTH",
"203 321 OFFCURVE",
"157 358 OFFCURVE",
"157 407 CURVE SMOOTH",
"160 542 LINE",
"177 556 OFFCURVE",
"195 559 OFFCURVE",
"216 560 CURVE SMOOTH",
"219 564 OFFCURVE",
"221 578 OFFCURVE",
"217 581 CURVE SMOOTH",
"183 588 OFFCURVE",
"159 587 OFFCURVE",
"108 587 CURVE SMOOTH",
"92 587 OFFCURVE",
"44 584 OFFCURVE",
"23 581 CURVE SMOOTH",
"20 580 OFFCURVE",
"18 575 OFFCURVE",
"18 571 CURVE SMOOTH",
"18 566 OFFCURVE",
"20 561 OFFCURVE",
"23 560 CURVE SMOOTH",
"43 556 OFFCURVE",
"55 556 OFFCURVE",
"68 535 CURVE",
"71 461 OFFCURVE",
"73 228 OFFCURVE",
"73 47 CURVE",
"63 36 OFFCURVE",
"49 42 OFFCURVE",
"23 32 CURVE SMOOTH",
"19 29 OFFCURVE",
"17 24 OFFCURVE",
"17 19 CURVE SMOOTH",
"17 13 OFFCURVE",
"20 7 OFFCURVE",
"23 5 CURVE SMOOTH",
"63 -2 OFFCURVE",
"79 -3 OFFCURVE",
"96 -3 CURVE SMOOTH",
"120 -3 LINE SMOOTH",
"152 -2 OFFCURVE",
"205 -4 OFFCURVE",
"229 6 CURVE SMOOTH",
"233 10 OFFCURVE",
"234 14 OFFCURVE",
"234 18 CURVE SMOOTH",
"234 23 OFFCURVE",
"232 28 OFFCURVE",
"228 32 CURVE SMOOTH",
"200 37 OFFCURVE",
"176 33 OFFCURVE",
"156 54 CURVE",
"156 274 LINE",
"206 219 OFFCURVE",
"249 145 OFFCURVE",
"301 83 CURVE SMOOTH",
"308 70 OFFCURVE",
"326 52 OFFCURVE",
"334 41 CURVE",
"330 30 OFFCURVE",
"308 30 OFFCURVE",
"296 28 CURVE",
"291 22 OFFCURVE",
"293 13 OFFCURVE",
"298 5 CURVE SMOOTH",
"301 0 OFFCURVE",
"390 -3 OFFCURVE",
"418 -3 CURVE SMOOTH",
"458 -3 OFFCURVE",
"484 -2 OFFCURVE",
"498 4 CURVE SMOOTH"
);
}
);
userData = {
com.fontlab.hintData = {
hhints = (
{
position = 28;
width = 13;
}
);
vhints = (
{
position = 156;
width = 137;
},
{
position = 157;
width = 166;
},
{
position = 234;
width = 59;
}
);
};
};
width = 517;
}
);
rightKerningGroup = K;
unicode = 004B;
},
{
glyphname = L;
lastChange = "2021-06-23 18:31:34 +0000";
layers = (
{
anchors = (
{
name = "Anchor-1";
position = "{235, 595}";
}
);
layerId = master01;
paths = (
{
closed = 1;
nodes = (
"430 112 OFFCURVE",
"420 116 OFFCURVE",
"412 109 CURVE",
"404 93 OFFCURVE",
"365 39 OFFCURVE",
"329 29 CURVE SMOOTH",
"312 27 OFFCURVE",
"298 26 OFFCURVE",
"285 26 CURVE SMOOTH",
"253 26 LINE SMOOTH",
"197 26 OFFCURVE",
"164 35 OFFCURVE",
"153 43 CURVE",
"153 53 LINE SMOOTH",
"153 72 OFFCURVE",
"151 112 OFFCURVE",
"151 148 CURVE SMOOTH",
"151 162 LINE SMOOTH",
"152 213 OFFCURVE",
"154 278 OFFCURVE",
"155 348 CURVE SMOOTH",
"156 533 LINE",
"176 549 OFFCURVE",
"201 551 OFFCURVE",
"236 551 CURVE",
"240 555 OFFCURVE",
"243 560 OFFCURVE",
"243 565 CURVE SMOOTH",
"243 569 OFFCURVE",
"241 573 OFFCURVE",
"237 577 CURVE SMOOTH",
"211 580 OFFCURVE",
"154 582 OFFCURVE",
"121 582 CURVE SMOOTH",
"89 582 LINE SMOOTH",
"71 582 OFFCURVE",
"50 582 OFFCURVE",
"14 578 CURVE SMOOTH",
"11 576 OFFCURVE",
"9 570 OFFCURVE",
"9 564 CURVE SMOOTH",
"9 559 OFFCURVE",
"10 554 OFFCURVE",
"14 551 CURVE SMOOTH",
"40 549 OFFCURVE",
"61 547 OFFCURVE",
"73 533 CURVE",
"73 352 OFFCURVE",
"71 117 OFFCURVE",
"68 43 CURVE",
"54 33 OFFCURVE",
"33 28 OFFCURVE",
"14 25 CURVE SMOOTH",
"10 23 OFFCURVE",
"8 17 OFFCURVE",
"8 12 CURVE SMOOTH",
"8 6 OFFCURVE",
"10 0 OFFCURVE",
"14 -2 CURVE SMOOTH",
"65 -4 OFFCURVE",
"109 -5 OFFCURVE",
"154 -5 CURVE SMOOTH",
"190 -5 OFFCURVE",
"229 -4 OFFCURVE",
"274 -4 CURVE SMOOTH",
"315 -4 OFFCURVE",
"341 -5 OFFCURVE",
"372 -5 CURVE SMOOTH",
"388 -5 OFFCURVE",
"404 -4 OFFCURVE",
"425 -4 CURVE",
"431 8 OFFCURVE",
"433 58 OFFCURVE",
"433 88 CURVE SMOOTH",
"433 105 LINE SMOOTH"
);
}
);
userData = {
com.fontlab.hintData = {
hhints = (
{
position = -5;
width = 587;
}
);
vhints = (
{
position = 8;
width = 425;
}
);
};
};
width = 452;
}
);
rightKerningGroup = L;
unicode = 004C;
},
{
glyphname = M;
layers = (
{
anchors = (
{
name = "Anchor-1";
position = "{326, 595}";
}
);
layerId = master01;
paths = (
{
closed = 1;
nodes = (
"678 26 OFFCURVE",
"610 -33 OFFCURVE",
"610 46 CURVE SMOOTH",
"610 207 OFFCURVE",
"614 399 OFFCURVE",
"620 545 CURVE",
"632 554 OFFCURVE",
"655 557 OFFCURVE",
"673 559 CURVE SMOOTH",
"675 561 OFFCURVE",
"676 566 OFFCURVE",
"676 570 CURVE SMOOTH",
"676 573 OFFCURVE",
"675 575 OFFCURVE",
"673 577 CURVE SMOOTH",
"635 579 OFFCURVE",
"613 587 OFFCURVE",
"578 587 CURVE SMOOTH",
"562 587 OFFCURVE",
"517 585 OFFCURVE",
"496 581 CURVE SMOOTH",
"493 580 OFFCURVE",
"491 574 OFFCURVE",
"491 569 CURVE SMOOTH",
"491 563 OFFCURVE",
"493 557 OFFCURVE",
"496 556 CURVE SMOOTH",
"515 553 OFFCURVE",
"531 548 OFFCURVE",
"541 538 CURVE",
"539 467 LINE",
"452 384 OFFCURVE",
"419 299 OFFCURVE",
"335 200 CURVE",
"321 222 OFFCURVE",
"303 263 OFFCURVE",
"276 306 CURVE SMOOTH",
"229 379 OFFCURVE",
"170 460 OFFCURVE",
"134 528 CURVE",
"134 541 LINE SMOOTH",
"134 547 OFFCURVE",
"134 554 OFFCURVE",
"135 558 CURVE SMOOTH",
"139 562 OFFCURVE",
"147 563 OFFCURVE",
"155 564 CURVE SMOOTH",
"157 566 OFFCURVE",
"158 571 OFFCURVE",
"158 575 CURVE SMOOTH",
"158 578 OFFCURVE",
"157 581 OFFCURVE",
"155 582 CURVE SMOOTH",
"133 587 OFFCURVE",
"127 588 OFFCURVE",
"118 588 CURVE SMOOTH",
"113 588 OFFCURVE",
"107 587 OFFCURVE",
"99 587 CURVE SMOOTH",
"83 587 OFFCURVE",
"34 587 OFFCURVE",
"9 584 CURVE SMOOTH",
"6 583 OFFCURVE",
"4 580 OFFCURVE",
"4 576 CURVE SMOOTH",
"4 572 OFFCURVE",
"6 567 OFFCURVE",
"9 566 CURVE SMOOTH",
"22 563 OFFCURVE",
"43 560 OFFCURVE",
"54 545 CURVE",
"51 505 OFFCURVE",
"47 313 OFFCURVE",
"47 194 CURVE SMOOTH",
"47 104 OFFCURVE",
"54 30 OFFCURVE",
"54 5 CURVE",
"59 -4 OFFCURVE",
"84 -5 OFFCURVE",
"107 -5 CURVE SMOOTH",
"139 -5 OFFCURVE",
"155 -3 OFFCURVE",
"176 6 CURVE SMOOTH",
"182 8 OFFCURVE",
"182 14 OFFCURVE",
"182 18 CURVE SMOOTH",
"182 23 OFFCURVE",
"179 28 OFFCURVE",
"175 32 CURVE SMOOTH",
"149 38 OFFCURVE",
"135 32 OFFCURVE",
"133 112 CURVE SMOOTH",
"131 188 OFFCURVE",
"131 225 OFFCURVE",
"131 267 CURVE SMOOTH",
"131 298 OFFCURVE",
"131 333 OFFCURVE",
"133 391 CURVE",
"159 343 OFFCURVE",
"185 301 OFFCURVE",
"218 247 CURVE SMOOTH",
"239 213 OFFCURVE",
"261 172 OFFCURVE",
"285 128 CURVE",
"269 106 LINE",
"269 95 OFFCURVE",
"279 86 OFFCURVE",
"295 86 CURVE SMOOTH",
"299 86 OFFCURVE",
"304 87 OFFCURVE",
"309 88 CURVE SMOOTH",
"412 205 OFFCURVE",
"460 317 OFFCURVE",
"539 401 CURVE",
"536 334 OFFCURVE",
"530 270 OFFCURVE",
"530 206 CURVE SMOOTH",
"530 135 OFFCURVE",
"531 62 OFFCURVE",
"531 -17 CURVE SMOOTH",
"531 -79 OFFCURVE",
"553 -84 OFFCURVE",
"587 -84 CURVE SMOOTH",
"622 -84 OFFCURVE",
"678 -40 OFFCURVE",
"678 -20 CURVE SMOOTH"
);
}
);
userData = {
com.fontlab.hintData = {
hhints = (
{
position = 1;
width = 21;
}
);
vhints = (
{
position = 4;
width = 674;
}
);
};
};
width = 708;
}
);
unicode = 004D;
},
{
glyphname = N;
layers = (
{
anchors = (
{
name = "Anchor-1";
position = "{333, 595}";
}
);
layerId = master01;
paths = (
{
closed = 1;
nodes = (
"700 542 OFFCURVE",
"701 548 OFFCURVE",
"701 554 CURVE SMOOTH",
"701 560 OFFCURVE",
"700 566 OFFCURVE",
"698 568 CURVE SMOOTH",
"683 568 OFFCURVE",
"597 591 OFFCURVE",
"561 591 CURVE SMOOTH",
"540 591 OFFCURVE",
"526 583 OFFCURVE",
"494 582 CURVE SMOOTH",
"492 580 OFFCURVE",
"491 576 OFFCURVE",
"491 571 CURVE SMOOTH",
"491 565 OFFCURVE",
"492 560 OFFCURVE",
"495 558 CURVE SMOOTH",
"515 554 OFFCURVE",
"532 555 OFFCURVE",
"552 537 CURVE SMOOTH",
"553 531 OFFCURVE",
"553 524 OFFCURVE",
"553 516 CURVE SMOOTH",
"553 466 OFFCURVE",
"541 391 OFFCURVE",
"539 356 CURVE SMOOTH",
"536 296 OFFCURVE",
"540 243 OFFCURVE",
"531 193 CURVE",
"496 219 OFFCURVE",
"449 242 OFFCURVE",
"404 288 CURVE SMOOTH",
"351 341 OFFCURVE",
"295 402 OFFCURVE",
"177 511 CURVE SMOOTH",
"175 513 OFFCURVE",
"174 518 OFFCURVE",
"174 524 CURVE SMOOTH",
"174 531 OFFCURVE",
"175 539 OFFCURVE",
"175 539 CURVE",
"184 548 OFFCURVE",
"203 555 OFFCURVE",
"214 556 CURVE SMOOTH",
"216 558 OFFCURVE",
"217 562 OFFCURVE",
"217 566 CURVE SMOOTH",
"217 569 OFFCURVE",
"216 572 OFFCURVE",
"214 574 CURVE SMOOTH",
"181 583 OFFCURVE",
"159 587 OFFCURVE",
"108 587 CURVE SMOOTH",
"92 587 OFFCURVE",
"35 578 OFFCURVE",
"14 574 CURVE SMOOTH",
"11 573 OFFCURVE",
"10 570 OFFCURVE",
"10 566 CURVE SMOOTH",
"10 562 OFFCURVE",
"11 557 OFFCURVE",
"14 556 CURVE SMOOTH",
"36 552 OFFCURVE",
"53 552 OFFCURVE",
"68 535 CURVE",
"71 461 OFFCURVE",
"73 229 OFFCURVE",
"73 48 CURVE",
"59 37 OFFCURVE",
"31 36 OFFCURVE",
"14 32 CURVE SMOOTH",
"10 29 OFFCURVE",
"9 24 OFFCURVE",
"9 19 CURVE SMOOTH",
"9 13 OFFCURVE",
"11 7 OFFCURVE",
"14 5 CURVE SMOOTH",
"71 -6 OFFCURVE",
"86 -13 OFFCURVE",
"115 -13 CURVE SMOOTH",
"121 -13 LINE SMOOTH",
"153 -12 OFFCURVE",
"214 -8 OFFCURVE",
"237 6 CURVE SMOOTH",
"241 10 OFFCURVE",
"243 14 OFFCURVE",
"243 18 CURVE SMOOTH",
"243 23 OFFCURVE",
"240 28 OFFCURVE",
"236 32 CURVE SMOOTH",
"213 36 OFFCURVE",
"183 32 OFFCURVE",
"156 54 CURVE",
"156 166 OFFCURVE",
"149 268 OFFCURVE",
"149 332 CURVE SMOOTH",
"149 369 OFFCURVE",
"152 393 OFFCURVE",
"160 398 CURVE",
"246 338 OFFCURVE",
"282 277 OFFCURVE",
"344 216 CURVE SMOOTH",
"404 158 OFFCURVE",
"467 129 OFFCURVE",
"504 94 CURVE",
"503 80 OFFCURVE",
"504 49 OFFCURVE",
"502 29 CURVE",
"494 21 OFFCURVE",
"477 22 OFFCURVE",
"462 18 CURVE SMOOTH",
"461 14 OFFCURVE",
"459 9 OFFCURVE",
"459 5 CURVE SMOOTH",
"459 2 OFFCURVE",
"459 -1 OFFCURVE",
"462 -2 CURVE SMOOTH",
"488 -11 OFFCURVE",
"514 -17 OFFCURVE",
"533 -17 CURVE SMOOTH",
"556 -17 OFFCURVE",
"599 2 OFFCURVE",
"633 2 CURVE SMOOTH",
"637 2 LINE SMOOTH",
"644 4 OFFCURVE",
"646 8 OFFCURVE",
"646 14 CURVE SMOOTH",
"646 21 OFFCURVE",
"642 29 OFFCURVE",
"637 34 CURVE",
"627 34 OFFCURVE",
"618 35 OFFCURVE",
"610 39 CURVE",
"605 53 OFFCURVE",
"605 89 OFFCURVE",
"605 111 CURVE SMOOTH",
"605 143 OFFCURVE",
"612 187 OFFCURVE",
"614 233 CURVE SMOOTH",
"615 274 OFFCURVE",
"615 323 OFFCURVE",
"615 370 CURVE SMOOTH",
"615 525 LINE",
"631 537 OFFCURVE",
"662 541 OFFCURVE",
"684 541 CURVE SMOOTH",
"689 541 OFFCURVE",
"694 542 OFFCURVE",
"698 541 CURVE SMOOTH"
);
}
);
userData = {
com.fontlab.hintData = {
hhints = (
{
position = -17;
width = 608;
}
);
vhints = (
{
position = 149;
width = 11;
}
);
};
};
width = 696;
}
);
unicode = 004E;
},
{
glyphname = Ntilde;
layers = (
{
layerId = master01;
paths = (
{
closed = 1;
nodes = (
"221 660 OFFCURVE",
"243 652 OFFCURVE",
"263 652 CURVE SMOOTH",
"272 652 OFFCURVE",
"280 653 OFFCURVE",
"286 656 CURVE SMOOTH",
"313 667 OFFCURVE",
"337 682 OFFCURVE",
"366 691 CURVE SMOOTH",
"371 692 OFFCURVE",
"374 693 OFFCURVE",
"378 693 CURVE SMOOTH",
"414 693 OFFCURVE",
"404 632 OFFCURVE",
"433 632 CURVE SMOOTH",
"455 632 OFFCURVE",
"470 653 OFFCURVE",
"483 664 CURVE SMOOTH",
"489 669 OFFCURVE",
"491 675 OFFCURVE",
"491 681 CURVE SMOOTH",
"491 689 OFFCURVE",
"487 696 OFFCURVE",
"481 701 CURVE SMOOTH",
"466 714 OFFCURVE",
"449 733 OFFCURVE",
"422 733 CURVE SMOOTH",
"412 733 OFFCURVE",
"402 730 OFFCURVE",
"394 727 CURVE SMOOTH",
"378 721 OFFCURVE",
"362 714 OFFCURVE",
"348 707 CURVE SMOOTH",
"341 704 OFFCURVE",
"334 702 OFFCURVE",
"328 702 CURVE SMOOTH",
"312 702 OFFCURVE",
"298 712 OFFCURVE",
"295 729 CURVE SMOOTH",
"293 739 OFFCURVE",
"288 742 OFFCURVE",
"282 742 CURVE SMOOTH",
"274 742 OFFCURVE",
"263 736 OFFCURVE",
"258 732 CURVE SMOOTH",
"243 720 OFFCURVE",
"221 703 OFFCURVE",
"221 678 CURVE SMOOTH"
);
},
{
closed = 1;
nodes = (
"700 542 OFFCURVE",
"701 548 OFFCURVE",
"701 554 CURVE SMOOTH",
"701 560 OFFCURVE",
"700 566 OFFCURVE",
"698 568 CURVE SMOOTH",
"683 568 OFFCURVE",
"597 591 OFFCURVE",
"561 591 CURVE SMOOTH",
"540 591 OFFCURVE",
"526 583 OFFCURVE",
"494 582 CURVE SMOOTH",
"492 580 OFFCURVE",
"491 576 OFFCURVE",
"491 571 CURVE SMOOTH",
"491 565 OFFCURVE",
"492 560 OFFCURVE",
"495 558 CURVE SMOOTH",
"515 554 OFFCURVE",
"532 555 OFFCURVE",
"552 537 CURVE SMOOTH",
"553 531 OFFCURVE",
"553 524 OFFCURVE",
"553 516 CURVE SMOOTH",
"553 466 OFFCURVE",
"541 391 OFFCURVE",
"539 356 CURVE SMOOTH",
"536 296 OFFCURVE",
"540 243 OFFCURVE",
"531 193 CURVE",
"496 219 OFFCURVE",
"449 242 OFFCURVE",
"404 288 CURVE SMOOTH",
"351 341 OFFCURVE",
"295 402 OFFCURVE",
"177 511 CURVE SMOOTH",
"175 513 OFFCURVE",
"174 518 OFFCURVE",
"174 524 CURVE SMOOTH",
"174 531 OFFCURVE",
"175 539 OFFCURVE",
"175 539 CURVE",
"184 548 OFFCURVE",
"203 555 OFFCURVE",
"214 556 CURVE SMOOTH",
"216 558 OFFCURVE",
"217 562 OFFCURVE",
"217 566 CURVE SMOOTH",
"217 569 OFFCURVE",
"216 572 OFFCURVE",
"214 574 CURVE SMOOTH",
"181 583 OFFCURVE",
"159 587 OFFCURVE",
"108 587 CURVE SMOOTH",
"92 587 OFFCURVE",
"35 578 OFFCURVE",
"14 574 CURVE SMOOTH",
"11 573 OFFCURVE",
"10 570 OFFCURVE",
"10 566 CURVE SMOOTH",
"10 562 OFFCURVE",
"11 557 OFFCURVE",
"14 556 CURVE SMOOTH",
"36 552 OFFCURVE",
"53 552 OFFCURVE",
"68 535 CURVE",
"71 461 OFFCURVE",
"73 229 OFFCURVE",
"73 48 CURVE",
"59 37 OFFCURVE",
"31 36 OFFCURVE",
"14 32 CURVE SMOOTH",
"10 29 OFFCURVE",
"9 24 OFFCURVE",
"9 19 CURVE SMOOTH",
"9 13 OFFCURVE",
"11 7 OFFCURVE",
"14 5 CURVE SMOOTH",
"71 -6 OFFCURVE",
"86 -13 OFFCURVE",
"115 -13 CURVE SMOOTH",
"121 -13 LINE SMOOTH",
"153 -12 OFFCURVE",
"214 -8 OFFCURVE",
"237 6 CURVE SMOOTH",
"241 10 OFFCURVE",
"243 14 OFFCURVE",
"243 18 CURVE SMOOTH",
"243 23 OFFCURVE",
"240 28 OFFCURVE",
"236 32 CURVE SMOOTH",
"213 36 OFFCURVE",
"183 32 OFFCURVE",
"156 54 CURVE",
"156 166 OFFCURVE",
"149 268 OFFCURVE",
"149 332 CURVE SMOOTH",
"149 369 OFFCURVE",
"152 393 OFFCURVE",
"160 398 CURVE",
"246 338 OFFCURVE",
"282 277 OFFCURVE",
"344 216 CURVE SMOOTH",
"404 158 OFFCURVE",
"467 129 OFFCURVE",
"504 94 CURVE",
"503 80 OFFCURVE",
"504 49 OFFCURVE",
"502 29 CURVE",
"494 21 OFFCURVE",
"477 22 OFFCURVE",
"462 18 CURVE SMOOTH",
"461 14 OFFCURVE",
"459 9 OFFCURVE",
"459 5 CURVE SMOOTH",
"459 2 OFFCURVE",
"459 -1 OFFCURVE",
"462 -2 CURVE SMOOTH",
"488 -11 OFFCURVE",
"514 -17 OFFCURVE",
"533 -17 CURVE SMOOTH",
"556 -17 OFFCURVE",
"599 2 OFFCURVE",
"633 2 CURVE SMOOTH",
"637 2 LINE SMOOTH",
"644 4 OFFCURVE",
"646 8 OFFCURVE",
"646 14 CURVE SMOOTH",
"646 21 OFFCURVE",
"642 29 OFFCURVE",
"637 34 CURVE",
"627 34 OFFCURVE",
"618 35 OFFCURVE",
"610 39 CURVE",
"605 53 OFFCURVE",
"605 89 OFFCURVE",
"605 111 CURVE SMOOTH",
"605 143 OFFCURVE",
"612 187 OFFCURVE",
"614 233 CURVE SMOOTH",
"615 274 OFFCURVE",
"615 323 OFFCURVE",
"615 370 CURVE SMOOTH",
"615 525 LINE",
"631 537 OFFCURVE",
"662 541 OFFCURVE",
"684 541 CURVE SMOOTH",
"689 541 OFFCURVE",
"694 542 OFFCURVE",
"698 541 CURVE SMOOTH"
);
}
);
userData = {
com.fontlab.hintData = {
hhints = (
{
position = 673;
width = 20;
}
);
vhints = (
{
position = 149;
width = 11;
}
);
};
};
width = 696;
}
);
unicode = 00D1;
},
{
glyphname = O;
lastChange = "2021-06-23 18:43:26 +0000";
layers = (
{
anchors = (
{
name = "Anchor-1";
position = "{274, 595}";
}
);
layerId = master01;
paths = (
{
closed = 1;
nodes = (
"536 436 OFFCURVE",
"457 589 OFFCURVE",
"287 589 CURVE SMOOTH",
"131 589 OFFCURVE",
"20 432 OFFCURVE",
"20 258 CURVE SMOOTH",
"20 124 OFFCURVE",
"142 -11 OFFCURVE",
"277 -11 CURVE SMOOTH",
"464 -11 OFFCURVE",
"536 240 OFFCURVE",
"536 305 CURVE SMOOTH"
);
},
{
closed = 1;
nodes = (
"472 194 OFFCURVE",
"457 69 OFFCURVE",
"319 69 CURVE SMOOTH",
"228 69 OFFCURVE",
"90 193 OFFCURVE",
"90 342 CURVE SMOOTH",
"90 451 OFFCURVE",
"132 515 OFFCURVE",
"239 515 CURVE SMOOTH",
"373 515 OFFCURVE",
"472 364 OFFCURVE",
"472 252 CURVE SMOOTH"
);
}
);
userData = {
com.fontlab.hintData = {
hhints = (
{
position = -11;
width = 600;
}
);
vhints = (
{
position = 20;
width = 516;
}
);
};
};
width = 559;
}
);
leftKerningGroup = O;
rightKerningGroup = O;
unicode = 004F;
},
{
glyphname = Oacute;
lastChange = "2021-06-23 18:43:26 +0000";
layers = (
{
layerId = master01;
paths = (
{
closed = 1;
nodes = (
"529 729 OFFCURVE",
"510 738 OFFCURVE",
"489 738 CURVE SMOOTH",
"471 738 OFFCURVE",
"456 732 OFFCURVE",
"432 725 CURVE SMOOTH",
"358 703 OFFCURVE",
"233 666 OFFCURVE",
"187 636 CURVE",
"190 632 LINE",
"261 664 OFFCURVE",
"300 678 OFFCURVE",
"377 700 CURVE SMOOTH",
"403 708 OFFCURVE",
"420 715 OFFCURVE",
"439 715 CURVE SMOOTH",
"456 715 OFFCURVE",
"477 672 OFFCURVE",
"498 668 CURVE",
"513 672 OFFCURVE",
"539 698 OFFCURVE",
"540 709 CURVE"
);
},
{
closed = 1;
nodes = (
"536 436 OFFCURVE",
"457 589 OFFCURVE",
"287 589 CURVE SMOOTH",
"131 589 OFFCURVE",
"20 432 OFFCURVE",
"20 258 CURVE SMOOTH",
"20 124 OFFCURVE",
"142 -11 OFFCURVE",
"277 -11 CURVE SMOOTH",
"464 -11 OFFCURVE",
"536 240 OFFCURVE",
"536 305 CURVE SMOOTH"
);
},
{
closed = 1;
nodes = (
"472 194 OFFCURVE",
"457 69 OFFCURVE",
"319 69 CURVE SMOOTH",
"228 69 OFFCURVE",
"90 193 OFFCURVE",
"90 342 CURVE SMOOTH",
"90 451 OFFCURVE",
"132 515 OFFCURVE",
"239 515 CURVE SMOOTH",
"373 515 OFFCURVE",
"472 364 OFFCURVE",
"472 252 CURVE SMOOTH"
);
}
);
userData = {
com.fontlab.hintData = {
hhints = (
{
position = 589;
width = 43;
}
);
vhints = (
{
position = 20;
width = 520;
}
);
};
};
width = 559;
}
);
leftKerningGroup = O;
rightKerningGroup = O;
unicode = 00D3;
},
{
glyphname = Ocircumflex;
lastChange = "2021-06-23 18:43:26 +0000";
layers = (
{
layerId = master01;
paths = (
{
closed = 1;
nodes = (
"131 637 OFFCURVE",
"134 633 OFFCURVE",
"139 633 CURVE SMOOTH",
"141 633 OFFCURVE",
"144 634 OFFCURVE",
"148 636 CURVE SMOOTH",
"184 659 OFFCURVE",
"219 683 OFFCURVE",
"256 706 CURVE SMOOTH",
"266 712 OFFCURVE",
"271 715 OFFCURVE",
"276 715 CURVE SMOOTH",
"282 715 OFFCURVE",
"288 711 OFFCURVE",
"298 705 CURVE SMOOTH",
"405 636 LINE SMOOTH",
"409 634 OFFCURVE",
"412 633 OFFCURVE",
"414 633 CURVE SMOOTH",
"419 633 OFFCURVE",
"422 637 OFFCURVE",
"422 643 CURVE SMOOTH",
"422 650 OFFCURVE",
"418 658 OFFCURVE",
"410 664 CURVE SMOOTH",
"371 692 OFFCURVE",
"333 721 OFFCURVE",
"292 746 CURVE SMOOTH",
"289 748 OFFCURVE",
"285 749 OFFCURVE",
"280 749 CURVE SMOOTH",
"272 749 OFFCURVE",
"262 747 OFFCURVE",
"258 744 CURVE SMOOTH",
"219 719 OFFCURVE",
"181 691 OFFCURVE",
"143 664 CURVE SMOOTH",
"135 658 OFFCURVE",
"131 650 OFFCURVE",
"131 643 CURVE SMOOTH"
);
},
{
closed = 1;
nodes = (
"536 436 OFFCURVE",
"457 589 OFFCURVE",
"287 589 CURVE SMOOTH",
"131 589 OFFCURVE",
"20 432 OFFCURVE",
"20 258 CURVE SMOOTH",
"20 124 OFFCURVE",
"142 -11 OFFCURVE",
"277 -11 CURVE SMOOTH",
"464 -11 OFFCURVE",
"536 240 OFFCURVE",
"536 305 CURVE SMOOTH"
);
},
{
closed = 1;
nodes = (
"472 194 OFFCURVE",
"457 69 OFFCURVE",
"319 69 CURVE SMOOTH",
"228 69 OFFCURVE",
"90 193 OFFCURVE",
"90 342 CURVE SMOOTH",
"90 451 OFFCURVE",
"132 515 OFFCURVE",
"239 515 CURVE SMOOTH",
"373 515 OFFCURVE",
"472 364 OFFCURVE",
"472 252 CURVE SMOOTH"
);
}
);
userData = {
com.fontlab.hintData = {
hhints = (
{
position = 589;
width = 126;
}
);
vhints = (
{
position = 20;
width = 516;
}
);
};
};
width = 559;
}
);
leftKerningGroup = O;
rightKerningGroup = O;
unicode = 00D4;
},
{
glyphname = Odieresis;
lastChange = "2021-06-23 18:43:26 +0000";
layers = (
{
layerId = master01;
paths = (
{
closed = 1;
nodes = (
"189 655 OFFCURVE",
"196 641 OFFCURVE",
"213 641 CURVE SMOOTH",
"221 641 OFFCURVE",
"229 644 OFFCURVE",
"238 650 CURVE SMOOTH",
"252 659 OFFCURVE",
"253 662 OFFCURVE",
"253 684 CURVE SMOOTH",
"253 706 OFFCURVE",
"247 717 OFFCURVE",
"236 717 CURVE SMOOTH",
"232 717 OFFCURVE",
"227 715 OFFCURVE",
"221 712 CURVE SMOOTH",
"200 701 OFFCURVE",
"189 686 OFFCURVE",
"189 669 CURVE SMOOTH"
);
},
{
closed = 1;
nodes = (
"307 655 OFFCURVE",
"315 641 OFFCURVE",
"332 641 CURVE SMOOTH",
"340 641 OFFCURVE",
"348 644 OFFCURVE",
"357 650 CURVE SMOOTH",
"371 659 OFFCURVE",
"371 662 OFFCURVE",
"371 684 CURVE SMOOTH",
"371 706 OFFCURVE",
"366 717 OFFCURVE",
"355 717 CURVE SMOOTH",
"351 717 OFFCURVE",
"345 715 OFFCURVE",
"339 712 CURVE SMOOTH",
"318 701 OFFCURVE",
"307 686 OFFCURVE",
"307 669 CURVE SMOOTH"
);
},
{
closed = 1;
nodes = (
"536 436 OFFCURVE",
"457 589 OFFCURVE",
"287 589 CURVE SMOOTH",
"131 589 OFFCURVE",
"20 432 OFFCURVE",
"20 258 CURVE SMOOTH",
"20 124 OFFCURVE",
"142 -11 OFFCURVE",
"277 -11 CURVE SMOOTH",
"464 -11 OFFCURVE",
"536 240 OFFCURVE",
"536 305 CURVE SMOOTH"
);
},
{
closed = 1;
nodes = (
"472 194 OFFCURVE",
"457 69 OFFCURVE",
"319 69 CURVE SMOOTH",
"228 69 OFFCURVE",
"90 193 OFFCURVE",
"90 342 CURVE SMOOTH",
"90 451 OFFCURVE",
"132 515 OFFCURVE",
"239 515 CURVE SMOOTH",
"373 515 OFFCURVE",
"472 364 OFFCURVE",
"472 252 CURVE SMOOTH"
);
}
);
userData = {
com.fontlab.hintData = {
hhints = (
{
position = 589;
width = 52;
}
);
vhints = (
{
position = 253;
width = 54;
}
);
};
};
width = 559;
}
);
leftKerningGroup = O;
rightKerningGroup = O;
unicode = 00D6;
},
{
glyphname = Ograve;
lastChange = "2021-06-23 18:43:26 +0000";
layers = (
{
layerId = master01;
paths = (
{
closed = 1;
nodes = (
"54 698 OFFCURVE",
"79 672 OFFCURVE",
"94 668 CURVE",
"115 672 OFFCURVE",
"136 715 OFFCURVE",
"153 715 CURVE SMOOTH",
"172 715 OFFCURVE",
"190 708 OFFCURVE",
"216 700 CURVE SMOOTH",
"293 678 OFFCURVE",
"332 664 OFFCURVE",
"403 632 CURVE",
"405 636 LINE",
"359 666 OFFCURVE",
"235 703 OFFCURVE",
"161 725 CURVE SMOOTH",
"137 732 OFFCURVE",
"122 738 OFFCURVE",
"104 738 CURVE SMOOTH",
"83 738 OFFCURVE",
"64 729 OFFCURVE",
"53 709 CURVE"
);
},
{
closed = 1;
nodes = (
"536 436 OFFCURVE",
"457 589 OFFCURVE",
"287 589 CURVE SMOOTH",
"131 589 OFFCURVE",
"20 432 OFFCURVE",
"20 258 CURVE SMOOTH",
"20 124 OFFCURVE",
"142 -11 OFFCURVE",
"277 -11 CURVE SMOOTH",
"464 -11 OFFCURVE",
"536 240 OFFCURVE",
"536 305 CURVE SMOOTH"
);
},
{
closed = 1;
nodes = (
"472 194 OFFCURVE",
"457 69 OFFCURVE",
"319 69 CURVE SMOOTH",
"228 69 OFFCURVE",
"90 193 OFFCURVE",
"90 342 CURVE SMOOTH",
"90 451 OFFCURVE",
"132 515 OFFCURVE",
"239 515 CURVE SMOOTH",
"373 515 OFFCURVE",
"472 364 OFFCURVE",
"472 252 CURVE SMOOTH"
);
}
);
userData = {
com.fontlab.hintData = {
hhints = (
{
position = -11;
width = 749;
}
);
vhints = (
{
position = 20;
width = 516;
}
);
};
};
width = 559;
}
);
leftKerningGroup = O;
rightKerningGroup = O;
unicode = 00D2;
},
{
glyphname = Omacron;
lastChange = "2021-06-23 18:43:26 +0000";
layers = (
{
layerId = master01;
paths = (
{
closed = 1;
nodes = (
"462 722 OFFCURVE",
"442 722 OFFCURVE",
"425 722 CURVE SMOOTH",
"397 722 OFFCURVE",
"238 704 OFFCURVE",
"204 704 CURVE SMOOTH",
"184 704 OFFCURVE",
"187 722 OFFCURVE",
"173 722 CURVE SMOOTH",
"154 722 OFFCURVE",
"128 692 OFFCURVE",
"128 676 CURVE SMOOTH",
"128 660 OFFCURVE",
"140 659 OFFCURVE",
"159 659 CURVE SMOOTH",
"182 659 OFFCURVE",
"365 675 OFFCURVE",
"389 675 CURVE SMOOTH",
"398 675 OFFCURVE",
"401 656 OFFCURVE",
"413 656 CURVE SMOOTH",
"435 656 OFFCURVE",
"462 693 OFFCURVE",
"462 706 CURVE SMOOTH"
);
},
{
closed = 1;
nodes = (
"536 436 OFFCURVE",
"457 589 OFFCURVE",
"287 589 CURVE SMOOTH",
"131 589 OFFCURVE",
"20 432 OFFCURVE",
"20 258 CURVE SMOOTH",
"20 124 OFFCURVE",
"142 -11 OFFCURVE",
"277 -11 CURVE SMOOTH",
"464 -11 OFFCURVE",
"536 240 OFFCURVE",
"536 305 CURVE SMOOTH"
);
},
{
closed = 1;
nodes = (
"472 194 OFFCURVE",
"457 69 OFFCURVE",
"319 69 CURVE SMOOTH",
"228 69 OFFCURVE",
"90 193 OFFCURVE",
"90 342 CURVE SMOOTH",
"90 451 OFFCURVE",
"132 515 OFFCURVE",
"239 515 CURVE SMOOTH",
"373 515 OFFCURVE",
"472 364 OFFCURVE",
"472 252 CURVE SMOOTH"
);
}
);
userData = {
com.fontlab.hintData = {
hhints = (
{
position = 589;
width = 67;
},
{
position = 589;
width = 70;
},
{
position = 589;
width = 86;
}
);
vhints = (
{
position = 20;
width = 516;
}
);
};
};
width = 559;
}
);
leftKerningGroup = O;
rightKerningGroup = O;
unicode = 014C;
},
{
glyphname = Oslash;
lastChange = "2021-06-23 18:43:26 +0000";
layers = (
{
layerId = master01;
paths = (
{
closed = 1;
nodes = (
"536 436 OFFCURVE",
"457 589 OFFCURVE",
"287 589 CURVE SMOOTH",
"131 589 OFFCURVE",
"20 432 OFFCURVE",
"20 258 CURVE SMOOTH",
"20 124 OFFCURVE",
"142 -11 OFFCURVE",
"277 -11 CURVE SMOOTH",
"464 -11 OFFCURVE",
"536 240 OFFCURVE",
"536 305 CURVE SMOOTH"
);
},
{
closed = 1;
nodes = (
"472 194 OFFCURVE",
"457 69 OFFCURVE",
"319 69 CURVE SMOOTH",
"228 69 OFFCURVE",
"90 193 OFFCURVE",
"90 342 CURVE SMOOTH",
"90 451 OFFCURVE",
"132 515 OFFCURVE",
"239 515 CURVE SMOOTH",
"373 515 OFFCURVE",
"472 364 OFFCURVE",
"472 252 CURVE SMOOTH"
);
}
);
userData = {
com.fontlab.hintData = {
hhints = (
{
position = -11;
width = 600;
}
);
vhints = (
{
position = 20;
width = 516;
}
);
};
};
width = 559;
}
);
leftKerningGroup = O;
rightKerningGroup = O;
unicode = 00D8;
},
{
glyphname = Otilde;
lastChange = "2021-06-23 18:43:26 +0000";
layers = (
{
layerId = master01;
paths = (
{
closed = 1;
nodes = (
"160 660 OFFCURVE",
"182 652 OFFCURVE",
"202 652 CURVE SMOOTH",
"211 652 OFFCURVE",
"219 653 OFFCURVE",
"225 656 CURVE SMOOTH",
"252 667 OFFCURVE",
"275 682 OFFCURVE",
"304 691 CURVE SMOOTH",
"309 692 OFFCURVE",
"313 693 OFFCURVE",
"317 693 CURVE SMOOTH",
"353 693 OFFCURVE",
"342 632 OFFCURVE",
"371 632 CURVE SMOOTH",
"393 632 OFFCURVE",
"409 653 OFFCURVE",
"422 664 CURVE SMOOTH",
"428 669 OFFCURVE",
"430 675 OFFCURVE",
"430 681 CURVE SMOOTH",
"430 689 OFFCURVE",
"426 696 OFFCURVE",
"420 701 CURVE SMOOTH",
"405 714 OFFCURVE",
"387 733 OFFCURVE",
"360 733 CURVE SMOOTH",
"350 733 OFFCURVE",
"341 730 OFFCURVE",
"333 727 CURVE SMOOTH",
"317 721 OFFCURVE",
"301 714 OFFCURVE",
"287 707 CURVE SMOOTH",
"280 704 OFFCURVE",
"273 702 OFFCURVE",
"267 702 CURVE SMOOTH",
"251 702 OFFCURVE",
"237 712 OFFCURVE",
"234 729 CURVE SMOOTH",
"232 739 OFFCURVE",
"227 742 OFFCURVE",
"221 742 CURVE SMOOTH",
"213 742 OFFCURVE",
"202 736 OFFCURVE",
"197 732 CURVE SMOOTH",
"182 720 OFFCURVE",
"160 703 OFFCURVE",
"160 678 CURVE SMOOTH"
);
},
{
closed = 1;
nodes = (
"536 436 OFFCURVE",
"457 589 OFFCURVE",
"287 589 CURVE SMOOTH",
"131 589 OFFCURVE",
"20 432 OFFCURVE",
"20 258 CURVE SMOOTH",
"20 124 OFFCURVE",
"142 -11 OFFCURVE",
"277 -11 CURVE SMOOTH",
"464 -11 OFFCURVE",
"536 240 OFFCURVE",
"536 305 CURVE SMOOTH"
);
},
{
closed = 1;
nodes = (
"472 194 OFFCURVE",
"457 69 OFFCURVE",
"319 69 CURVE SMOOTH",
"228 69 OFFCURVE",
"90 193 OFFCURVE",
"90 342 CURVE SMOOTH",
"90 451 OFFCURVE",
"132 515 OFFCURVE",
"239 515 CURVE SMOOTH",
"373 515 OFFCURVE",
"472 364 OFFCURVE",
"472 252 CURVE SMOOTH"
);
}
);
userData = {
com.fontlab.hintData = {
hhints = (
{
position = 589;
width = 43;
},
{
position = 589;
width = 63;
},
{
position = 589;
width = 104;
}
);
vhints = (
{
position = 20;
width = 516;
}
);
};
};
width = 559;
}
);
leftKerningGroup = O;
rightKerningGroup = O;
unicode = 00D5;
},
{
glyphname = P;
lastChange = "2021-06-23 18:25:46 +0000";
layers = (
{
anchors = (
{
name = "Anchor-1";
position = "{228, 595}";
}
);
layerId = master01;
paths = (
{
closed = 1;
nodes = (
"462 515 OFFCURVE",
"400 582 OFFCURVE",
"274 582 CURVE SMOOTH",
"219 582 LINE SMOOTH",
"126 582 OFFCURVE",
"69 582 OFFCURVE",
"14 574 CURVE SMOOTH",
"11 573 OFFCURVE",
"10 570 OFFCURVE",
"10 566 CURVE SMOOTH",
"10 562 OFFCURVE",
"11 557 OFFCURVE",
"14 556 CURVE SMOOTH",
"33 556 OFFCURVE",
"55 549 OFFCURVE",
"68 539 CURVE",
"71 465 OFFCURVE",
"73 229 OFFCURVE",
"73 48 CURVE",
"58 36 OFFCURVE",
"34 34 OFFCURVE",
"14 30 CURVE SMOOTH",
"10 27 OFFCURVE",
"9 21 OFFCURVE",
"9 16 CURVE SMOOTH",
"9 10 OFFCURVE",
"11 5 OFFCURVE",
"14 3 CURVE SMOOTH",
"51 -5 OFFCURVE",
"89 -8 OFFCURVE",
"121 -8 CURVE SMOOTH",
"153 -8 OFFCURVE",
"212 -6 OFFCURVE",
"237 3 CURVE SMOOTH",
"241 7 OFFCURVE",
"243 12 OFFCURVE",
"243 16 CURVE SMOOTH",
"243 21 OFFCURVE",
"240 26 OFFCURVE",
"236 30 CURVE SMOOTH",
"209 32 OFFCURVE",
"182 33 OFFCURVE",
"156 51 CURVE",
"156 237 LINE",
"185 231 OFFCURVE",
"211 230 OFFCURVE",
"236 230 CURVE SMOOTH",
"380 230 OFFCURVE",
"462 323 OFFCURVE",
"462 439 CURVE SMOOTH"
);
},
{
closed = 1;
nodes = (
"377 334 OFFCURVE",
"331 259 OFFCURVE",
"212 259 CURVE SMOOTH",
"195 259 OFFCURVE",
"175 261 OFFCURVE",
"155 264 CURVE",
"154 328 OFFCURVE",
"152 370 OFFCURVE",
"151 417 CURVE SMOOTH",
"151 430 LINE SMOOTH",
"151 466 OFFCURVE",
"153 509 OFFCURVE",
"153 529 CURVE SMOOTH",
"153 539 LINE",
"167 547 OFFCURVE",
"197 552 OFFCURVE",
"245 552 CURVE SMOOTH",
"318 552 OFFCURVE",
"377 488 OFFCURVE",
"377 417 CURVE SMOOTH"
);
}
);
userData = {
com.fontlab.hintData = {
hhints = (
{
position = 30;
width = 200;
}
);
vhints = (
{
position = 151;
width = 226;
}
);
};
};
width = 479;
}
);
rightKerningGroup = P;
unicode = 0050;
},
{
glyphname = Thorn;
lastChange = "2021-06-23 18:27:06 +0000";
layers = (
{
anchors = (
{
name = "Anchor-1";
position = "{264, 595}";
}
);
layerId = master01;
paths = (
{
closed = 1;
nodes = (
"456 428 OFFCURVE",
"399 454 OFFCURVE",
"334 454 CURVE SMOOTH",
"269 454 OFFCURVE",
"202 431 OFFCURVE",
"148 405 CURVE",
"150 548 LINE SMOOTH",
"150 589 OFFCURVE",
"124 589 OFFCURVE",
"104 589 CURVE SMOOTH",
"77 589 OFFCURVE",
"16 564 OFFCURVE",
"-11 546 CURVE SMOOTH",
"-14 544 OFFCURVE",
"-16 540 OFFCURVE",
"-16 536 CURVE SMOOTH",
"-16 532 OFFCURVE",
"-14 529 OFFCURVE",
"-11 528 CURVE SMOOTH",
"70 528 OFFCURVE",
"64 460 OFFCURVE",
"66 392 CURVE SMOOTH",
"68 331 OFFCURVE",
"68 279 OFFCURVE",
"68 228 CURVE SMOOTH",
"68 147 OFFCURVE",
"67 72 OFFCURVE",
"67 -21 CURVE SMOOTH",
"67 -109 OFFCURVE",
"62 -154 OFFCURVE",
"62 -246 CURVE",
"81 -246 OFFCURVE",
"128 -229 OFFCURVE",
"134 -210 CURVE",
"140 -148 OFFCURVE",
"147 -58 OFFCURVE",
"150 -3 CURVE",
"260 67 OFFCURVE",
"456 181 OFFCURVE",
"456 368 CURVE SMOOTH"
);
},
{
closed = 1;
nodes = (
"343 173 OFFCURVE",
"243 117 OFFCURVE",
"150 28 CURVE",
"150 162 OFFCURVE",
"146 157 OFFCURVE",
"146 267 CURVE SMOOTH",
"146 285 OFFCURVE",
"147 318 OFFCURVE",
"147 352 CURVE SMOOTH",
"147 377 LINE",
"194 401 OFFCURVE",
"223 411 OFFCURVE",
"263 411 CURVE SMOOTH",
"328 411 OFFCURVE",
"343 353 OFFCURVE",
"343 304 CURVE SMOOTH"
);
}
);
userData = {
com.fontlab.hintData = {
hhints = (
{
position = -246;
width = 835;
}
);
vhints = (
{
position = 146;
width = 197;
},
{
position = 150;
width = 193;
}
);
};
};
width = 470;
}
);
rightKerningGroup = Thorn;
unicode = 00DE;
},
{
glyphname = Q;
layers = (
{
anchors = (
{
name = "Anchor-1";
position = "{287, 595}";
}
);
layerId = master01;
paths = (
{
closed = 1;
nodes = (
"781 -139 OFFCURVE",
"771 -133 OFFCURVE",
"766 -134 CURVE SMOOTH",
"747 -149 OFFCURVE",
"712 -194 OFFCURVE",
"664 -194 CURVE SMOOTH",
"614 -194 OFFCURVE",
"589 -173 OFFCURVE",
"559 -141 CURVE SMOOTH",
"405 24 LINE",
"494 85 OFFCURVE",
"536 213 OFFCURVE",
"536 305 CURVE SMOOTH",
"536 436 OFFCURVE",
"458 589 OFFCURVE",
"287 589 CURVE SMOOTH",
"128 589 OFFCURVE",
"20 433 OFFCURVE",
"20 258 CURVE SMOOTH",
"20 124 OFFCURVE",
"142 -11 OFFCURVE",
"277 -11 CURVE SMOOTH",
"291 -11 OFFCURVE",
"306 -11 OFFCURVE",
"320 -8 CURVE",
"492 -197 LINE SMOOTH",
"527 -235 OFFCURVE",
"565 -254 OFFCURVE",
"604 -254 CURVE SMOOTH",
"663 -254 OFFCURVE",
"681 -236 OFFCURVE",
"718 -206 CURVE",
"779 -145 LINE SMOOTH"
);
},
{
closed = 1;
nodes = (
"471 182 OFFCURVE",
"464 69 OFFCURVE",
"313 69 CURVE SMOOTH",
"222 69 OFFCURVE",
"89 202 OFFCURVE",
"89 346 CURVE SMOOTH",
"89 491 OFFCURVE",
"176 514 OFFCURVE",
"241 514 CURVE SMOOTH",
"373 514 OFFCURVE",
"471 368 OFFCURVE",
"471 252 CURVE SMOOTH"
);
}
);
userData = {
com.fontlab.hintData = {
hhints = (
{
position = -254;
width = 843;
}
);
vhints = (
{
position = 20;
width = 759;
}
);
};
};
width = 559;
}
);
unicode = 0051;
},
{
glyphname = R;
lastChange = "2021-06-23 18:25:54 +0000";
layers = (
{
anchors = (
{
name = "Anchor-1";
position = "{230, 595}";
}
);
layerId = master01;
paths = (
{
closed = 1;
nodes = (
"644 62 OFFCURVE",
"640 66 OFFCURVE",
"635 65 CURVE SMOOTH",
"622 52 OFFCURVE",
"605 48 OFFCURVE",
"587 48 CURVE SMOOTH",
"517 48 OFFCURVE",
"497 90 OFFCURVE",
"457 138 CURVE SMOOTH",
"412 192 OFFCURVE",
"385 216 OFFCURVE",
"347 258 CURVE",
"423 295 OFFCURVE",
"462 357 OFFCURVE",
"462 439 CURVE SMOOTH",
"462 514 OFFCURVE",
"396 582 OFFCURVE",
"278 582 CURVE SMOOTH",
"274 582 LINE SMOOTH",
"242 582 OFFCURVE",
"216 582 OFFCURVE",
"194 582 CURVE SMOOTH",
"100 582 LINE SMOOTH",
"74 582 OFFCURVE",
"63 581 OFFCURVE",
"14 574 CURVE SMOOTH",
"11 573 OFFCURVE",
"10 570 OFFCURVE",
"10 566 CURVE SMOOTH",
"10 562 OFFCURVE",
"11 557 OFFCURVE",
"14 556 CURVE SMOOTH",
"32 553 OFFCURVE",
"54 553 OFFCURVE",
"68 535 CURVE",
"71 461 OFFCURVE",
"73 226 OFFCURVE",
"73 45 CURVE",
"60 32 OFFCURVE",
"34 33 OFFCURVE",
"14 28 CURVE SMOOTH",
"10 25 OFFCURVE",
"9 20 OFFCURVE",
"9 15 CURVE SMOOTH",
"9 9 OFFCURVE",
"11 3 OFFCURVE",
"14 1 CURVE SMOOTH",
"51 -5 OFFCURVE",
"89 -9 OFFCURVE",
"121 -9 CURVE SMOOTH",
"153 -9 OFFCURVE",
"214 -8 OFFCURVE",
"237 2 CURVE SMOOTH",
"241 6 OFFCURVE",
"243 10 OFFCURVE",
"243 14 CURVE SMOOTH",
"243 19 OFFCURVE",
"240 24 OFFCURVE",
"236 28 CURVE SMOOTH",
"210 32 OFFCURVE",
"179 30 OFFCURVE",
"156 47 CURVE",
"156 220 LINE",
"196 221 OFFCURVE",
"233 224 OFFCURVE",
"264 230 CURVE",
"312 170 OFFCURVE",
"345 140 OFFCURVE",
"397 77 CURVE SMOOTH",
"439 28 OFFCURVE",
"468 -14 OFFCURVE",
"537 -14 CURVE SMOOTH",
"571 -14 OFFCURVE",
"634 29 OFFCURVE",
"643 55 CURVE SMOOTH"
);
},
{
closed = 1;
nodes = (
"377 322 OFFCURVE",
"317 253 OFFCURVE",
"155 247 CURVE",
"154 311 OFFCURVE",
"152 370 OFFCURVE",
"151 417 CURVE SMOOTH",
"151 430 LINE SMOOTH",
"151 466 OFFCURVE",
"153 506 OFFCURVE",
"153 525 CURVE SMOOTH",
"153 535 LINE",
"165 539 OFFCURVE",
"191 552 OFFCURVE",
"253 552 CURVE SMOOTH",
"326 552 OFFCURVE",
"377 488 OFFCURVE",
"377 417 CURVE SMOOTH"
);
}
);
userData = {
com.fontlab.hintData = {
hhints = (
{
position = -14;
width = 596;
},
{
position = 28;
width = 192;
}
);
vhints = (
{
position = 151;
width = 226;
}
);
};
};
width = 640;
}
);
rightKerningGroup = R;
unicode = 0052;
},
{
glyphname = S;
lastChange = "2021-06-23 21:24:40 +0000";
layers = (
{
anchors = (
{
name = "Anchor-1";
position = "{301, 595}";
}
);
layerId = master01;
paths = (
{
closed = 1;
nodes = (
"545 261 OFFCURVE",
"409 288 OFFCURVE",
"325 288 CURVE SMOOTH",
"303 288 LINE SMOOTH",
"191 288 OFFCURVE",
"67 290 OFFCURVE",
"67 363 CURVE SMOOTH",
"67 439 OFFCURVE",
"188 508 OFFCURVE",
"282 508 CURVE SMOOTH",
"326 508 OFFCURVE",
"366 477 OFFCURVE",
"399 446 CURVE",
"401 446 LINE SMOOTH",
"422 446 OFFCURVE",
"460 473 OFFCURVE",
"465 500 CURVE",
"453 548 OFFCURVE",
"396 589 OFFCURVE",
"336 589 CURVE SMOOTH",
"292 589 OFFCURVE",
"173 559 OFFCURVE",
"74 443 CURVE SMOOTH",
"26 388 OFFCURVE",
"11 336 OFFCURVE",
"11 294 CURVE SMOOTH",
"11 208 OFFCURVE",
"132 206 OFFCURVE",
"220 206 CURVE SMOOTH",
"235 206 LINE SMOOTH",
"395 206 OFFCURVE",
"436 139 OFFCURVE",
"436 101 CURVE SMOOTH",
"436 56 OFFCURVE",
"415 37 OFFCURVE",
"338 37 CURVE SMOOTH",
"294 37 OFFCURVE",
"268 89 OFFCURVE",
"256 112 CURVE",
"245 120 OFFCURVE",
"229 125 OFFCURVE",
"212 125 CURVE SMOOTH",
"190 125 OFFCURVE",
"167 116 OFFCURVE",
"154 92 CURVE",
"166 67 OFFCURVE",
"191 -26 OFFCURVE",
"262 -26 CURVE SMOOTH",
"412 -26 OFFCURVE",
"545 59 OFFCURVE",
"545 156 CURVE SMOOTH"
);
}
);
userData = {
com.fontlab.hintData = {
hhints = (
{
position = 125;
width = 81;
},
{
position = 288;
width = 158;
},
{
position = 288;
width = 220;
}
);
vhints = (
{
position = 11;
width = 534;
}
);
};
};
width = 562;
}
);
leftKerningGroup = S;
rightKerningGroup = S;
unicode = 0053;
},
{
glyphname = T;
lastChange = "2021-06-23 21:23:16 +0000";
layers = (
{
anchors = (
{
name = "Anchor-1";
position = "{286, 595}";
}
);
layerId = master01;
paths = (
{
closed = 1;
nodes = (
"570 486 OFFCURVE",
"571 492 OFFCURVE",
"571 498 CURVE SMOOTH",
"571 525 OFFCURVE",
"569 572 OFFCURVE",
"563 582 CURVE",
"501 583 OFFCURVE",
"350 583 OFFCURVE",
"289 583 CURVE SMOOTH",
"227 583 OFFCURVE",
"81 583 OFFCURVE",
"19 582 CURVE",
"13 572 OFFCURVE",
"11 524 OFFCURVE",
"11 496 CURVE SMOOTH",
"11 483 LINE SMOOTH",
"14 476 OFFCURVE",
"23 471 OFFCURVE",
"31 479 CURVE",
"37 493 OFFCURVE",
"60 521 OFFCURVE",
"78 536 CURVE",
"102 543 OFFCURVE",
"124 543 OFFCURVE",
"144 543 CURVE SMOOTH",
"173 543 LINE SMOOTH",
"239 543 OFFCURVE",
"248 515 OFFCURVE",
"248 501 CURVE SMOOTH",
"248 493 LINE SMOOTH",
"248 479 OFFCURVE",
"250 454 OFFCURVE",
"250 421 CURVE SMOOTH",
"250 408 LINE SMOOTH",
"249 357 OFFCURVE",
"247 300 OFFCURVE",
"246 230 CURVE SMOOTH",
"245 54 LINE",
"225 34 OFFCURVE",
"197 29 OFFCURVE",
"165 27 CURVE SMOOTH",
"161 23 OFFCURVE",
"158 18 OFFCURVE",
"158 13 CURVE SMOOTH",
"158 9 OFFCURVE",
"160 5 OFFCURVE",
"164 1 CURVE SMOOTH",
"190 -2 OFFCURVE",
"247 -4 OFFCURVE",
"280 -4 CURVE SMOOTH",
"312 -4 LINE SMOOTH",
"330 -4 OFFCURVE",
"351 -4 OFFCURVE",
"387 0 CURVE SMOOTH",
"390 2 OFFCURVE",
"392 8 OFFCURVE",
"392 14 CURVE SMOOTH",
"392 19 OFFCURVE",
"391 24 OFFCURVE",
"387 27 CURVE SMOOTH",
"353 30 OFFCURVE",
"335 36 OFFCURVE",
"328 54 CURVE",
"328 235 OFFCURVE",
"330 427 OFFCURVE",
"333 501 CURVE SMOOTH",
"334 515 OFFCURVE",
"342 543 OFFCURVE",
"408 543 CURVE SMOOTH",
"438 543 LINE SMOOTH",
"458 543 OFFCURVE",
"479 542 OFFCURVE",
"503 535 CURVE",
"521 519 OFFCURVE",
"544 493 OFFCURVE",
"550 479 CURVE",
"558 471 OFFCURVE",
"567 476 OFFCURVE",
"570 483 CURVE SMOOTH"
);
}
);
userData = {
com.fontlab.hintData = {
hhints = (
{
position = -4;
width = 587;
}
);
vhints = (
{
position = 11;
width = 560;
}
);
};
};
width = 581;
}
);
leftKerningGroup = T;
rightKerningGroup = T;
unicode = 0054;
},
{
glyphname = U;
lastChange = "2021-06-23 21:10:58 +0000";
layers = (
{
anchors = (
{
name = "Anchor-1";
position = "{298, 595}";
}
);
layerId = master01;
paths = (
{
closed = 1;
nodes = (
"555 -33 OFFCURVE",
"610 10 OFFCURVE",
"610 31 CURVE SMOOTH",
"610 53 OFFCURVE",
"536 18 OFFCURVE",
"536 104 CURVE SMOOTH",
"536 158 OFFCURVE",
"532 182 OFFCURVE",
"532 222 CURVE SMOOTH",
"532 287 LINE SMOOTH",
"532 330 OFFCURVE",
"532 375 OFFCURVE",
"537 435 CURVE SMOOTH",
"540 480 OFFCURVE",
"552 521 OFFCURVE",
"552 547 CURVE SMOOTH",
"552 563 OFFCURVE",
"547 572 OFFCURVE",
"527 572 CURVE SMOOTH",
"476 572 OFFCURVE",
"408 523 OFFCURVE",
"382 502 CURVE SMOOTH",
"379 498 OFFCURVE",
"377 494 OFFCURVE",
"377 490 CURVE SMOOTH",
"377 485 OFFCURVE",
"378 481 OFFCURVE",
"382 477 CURVE SMOOTH",
"442 461 OFFCURVE",
"458 455 OFFCURVE",
"458 408 CURVE SMOOTH",
"458 320 OFFCURVE",
"450 206 OFFCURVE",
"450 147 CURVE SMOOTH",
"450 132 OFFCURVE",
"451 100 OFFCURVE",
"451 100 CURVE",
"429 82 OFFCURVE",
"379 56 OFFCURVE",
"333 56 CURVE SMOOTH",
"188 56 OFFCURVE",
"83 168 OFFCURVE",
"83 280 CURVE SMOOTH",
"83 405 OFFCURVE",
"162 500 OFFCURVE",
"162 550 CURVE SMOOTH",
"162 566 OFFCURVE",
"158 576 OFFCURVE",
"141 576 CURVE SMOOTH",
"76 576 OFFCURVE",
"-14 500 OFFCURVE",
"-14 500 CURVE SMOOTH",
"-18 497 OFFCURVE",
"-19 493 OFFCURVE",
"-19 489 CURVE SMOOTH",
"-19 485 OFFCURVE",
"-18 481 OFFCURVE",
"-14 478 CURVE SMOOTH",
"19 475 OFFCURVE",
"43 457 OFFCURVE",
"43 429 CURVE SMOOTH",
"43 409 OFFCURVE",
"10 334 OFFCURVE",
"10 208 CURVE SMOOTH",
"10 48 OFFCURVE",
"150 -15 OFFCURVE",
"263 -15 CURVE SMOOTH",
"338 -15 OFFCURVE",
"398 22 OFFCURVE",
"452 73 CURVE",
"452 73 OFFCURVE",
"454 47 OFFCURVE",
"454 32 CURVE SMOOTH",
"454 3 OFFCURVE",
"479 -33 OFFCURVE",
"507 -33 CURVE SMOOTH"
);
}
);
userData = {
com.fontlab.hintData = {
hhints = (
{
position = -33;
width = 609;
}
);
vhints = (
{
position = -19;
width = 629;
}
);
};
};
width = 627;
}
);
leftKerningGroup = U;
unicode = 0055;
},
{
glyphname = Uacute;
lastChange = "2021-06-23 18:43:34 +0000";
layers = (
{
layerId = master01;
paths = (
{
closed = 1;
nodes = (
"580 729 OFFCURVE",
"561 738 OFFCURVE",
"540 738 CURVE SMOOTH",
"522 738 OFFCURVE",
"507 732 OFFCURVE",
"483 725 CURVE SMOOTH",
"409 703 OFFCURVE",
"284 666 OFFCURVE",
"238 636 CURVE",
"241 632 LINE",
"312 664 OFFCURVE",
"351 678 OFFCURVE",
"428 700 CURVE SMOOTH",
"454 708 OFFCURVE",
"471 715 OFFCURVE",
"490 715 CURVE SMOOTH",
"507 715 OFFCURVE",
"528 672 OFFCURVE",
"549 668 CURVE",
"564 672 OFFCURVE",
"590 698 OFFCURVE",
"591 709 CURVE"
);
},
{
closed = 1;
nodes = (
"555 -33 OFFCURVE",
"610 10 OFFCURVE",
"610 31 CURVE SMOOTH",
"610 53 OFFCURVE",
"536 18 OFFCURVE",
"536 104 CURVE SMOOTH",
"536 158 OFFCURVE",
"532 182 OFFCURVE",
"532 222 CURVE SMOOTH",
"532 287 LINE SMOOTH",
"532 330 OFFCURVE",
"532 375 OFFCURVE",
"537 435 CURVE SMOOTH",
"540 480 OFFCURVE",
"552 521 OFFCURVE",
"552 547 CURVE SMOOTH",
"552 563 OFFCURVE",
"547 572 OFFCURVE",
"527 572 CURVE SMOOTH",
"476 572 OFFCURVE",
"408 523 OFFCURVE",
"382 502 CURVE SMOOTH",
"379 498 OFFCURVE",
"377 494 OFFCURVE",
"377 490 CURVE SMOOTH",
"377 485 OFFCURVE",
"378 481 OFFCURVE",
"382 477 CURVE SMOOTH",
"442 461 OFFCURVE",
"458 455 OFFCURVE",
"458 408 CURVE SMOOTH",
"458 320 OFFCURVE",
"450 206 OFFCURVE",
"450 147 CURVE SMOOTH",
"450 132 OFFCURVE",
"451 100 OFFCURVE",
"451 100 CURVE",
"429 82 OFFCURVE",
"379 56 OFFCURVE",
"333 56 CURVE SMOOTH",
"188 56 OFFCURVE",
"83 168 OFFCURVE",
"83 280 CURVE SMOOTH",
"83 405 OFFCURVE",
"162 500 OFFCURVE",
"162 550 CURVE SMOOTH",
"162 566 OFFCURVE",
"158 576 OFFCURVE",
"141 576 CURVE SMOOTH",
"76 576 OFFCURVE",
"-14 500 OFFCURVE",
"-14 500 CURVE SMOOTH",
"-18 497 OFFCURVE",
"-19 493 OFFCURVE",
"-19 489 CURVE SMOOTH",
"-19 485 OFFCURVE",
"-18 481 OFFCURVE",
"-14 478 CURVE SMOOTH",
"19 475 OFFCURVE",
"43 457 OFFCURVE",
"43 429 CURVE SMOOTH",
"43 409 OFFCURVE",
"10 334 OFFCURVE",
"10 208 CURVE SMOOTH",
"10 48 OFFCURVE",
"150 -15 OFFCURVE",
"263 -15 CURVE SMOOTH",
"338 -15 OFFCURVE",
"398 22 OFFCURVE",
"452 73 CURVE",
"452 73 OFFCURVE",
"454 47 OFFCURVE",
"454 32 CURVE SMOOTH",
"454 3 OFFCURVE",
"479 -33 OFFCURVE",
"507 -33 CURVE SMOOTH"
);
}
);
userData = {
com.fontlab.hintData = {
hhints = (
{
position = -33;
width = 771;
}
);
vhints = (
{
position = -19;
width = 629;
}
);
};
};
width = 627;
}
);
leftKerningGroup = U;
unicode = 00DA;
},
{
glyphname = Ucircumflex;
lastChange = "2021-06-23 18:43:34 +0000";
layers = (
{
layerId = master01;
paths = (
{
closed = 1;
nodes = (
"133 637 OFFCURVE",
"136 633 OFFCURVE",
"141 633 CURVE SMOOTH",
"143 633 OFFCURVE",
"146 634 OFFCURVE",
"150 636 CURVE SMOOTH",
"186 659 OFFCURVE",
"221 683 OFFCURVE",
"258 706 CURVE SMOOTH",
"268 712 OFFCURVE",
"273 715 OFFCURVE",
"278 715 CURVE SMOOTH",
"284 715 OFFCURVE",
"289 711 OFFCURVE",
"299 705 CURVE SMOOTH",
"407 636 LINE SMOOTH",
"411 634 OFFCURVE",
"413 633 OFFCURVE",
"415 633 CURVE SMOOTH",
"420 633 OFFCURVE",
"423 637 OFFCURVE",
"423 643 CURVE SMOOTH",
"423 650 OFFCURVE",
"420 658 OFFCURVE",
"412 664 CURVE SMOOTH",
"373 692 OFFCURVE",
"334 721 OFFCURVE",
"293 746 CURVE SMOOTH",
"290 748 OFFCURVE",
"286 749 OFFCURVE",
"281 749 CURVE SMOOTH",
"273 749 OFFCURVE",
"263 747 OFFCURVE",
"259 744 CURVE SMOOTH",
"220 719 OFFCURVE",
"182 691 OFFCURVE",
"144 664 CURVE SMOOTH",
"136 658 OFFCURVE",
"133 650 OFFCURVE",
"133 643 CURVE SMOOTH"
);
},
{
closed = 1;
nodes = (
"555 -33 OFFCURVE",
"610 10 OFFCURVE",
"610 31 CURVE SMOOTH",
"610 53 OFFCURVE",
"536 18 OFFCURVE",
"536 104 CURVE SMOOTH",
"536 158 OFFCURVE",
"532 182 OFFCURVE",
"532 222 CURVE SMOOTH",
"532 287 LINE SMOOTH",
"532 330 OFFCURVE",
"532 375 OFFCURVE",
"537 435 CURVE SMOOTH",
"540 480 OFFCURVE",
"552 521 OFFCURVE",
"552 547 CURVE SMOOTH",
"552 563 OFFCURVE",
"547 572 OFFCURVE",
"527 572 CURVE SMOOTH",
"476 572 OFFCURVE",
"408 523 OFFCURVE",
"382 502 CURVE SMOOTH",
"379 498 OFFCURVE",
"377 494 OFFCURVE",
"377 490 CURVE SMOOTH",
"377 485 OFFCURVE",
"378 481 OFFCURVE",
"382 477 CURVE SMOOTH",
"442 461 OFFCURVE",
"458 455 OFFCURVE",
"458 408 CURVE SMOOTH",
"458 320 OFFCURVE",
"450 206 OFFCURVE",
"450 147 CURVE SMOOTH",
"450 132 OFFCURVE",
"451 100 OFFCURVE",
"451 100 CURVE",
"429 82 OFFCURVE",
"379 56 OFFCURVE",
"333 56 CURVE SMOOTH",
"188 56 OFFCURVE",
"83 168 OFFCURVE",
"83 280 CURVE SMOOTH",
"83 405 OFFCURVE",
"162 500 OFFCURVE",
"162 550 CURVE SMOOTH",
"162 566 OFFCURVE",
"158 576 OFFCURVE",
"141 576 CURVE SMOOTH",
"76 576 OFFCURVE",
"-14 500 OFFCURVE",
"-14 500 CURVE SMOOTH",
"-18 497 OFFCURVE",
"-19 493 OFFCURVE",
"-19 489 CURVE SMOOTH",
"-19 485 OFFCURVE",
"-18 481 OFFCURVE",
"-14 478 CURVE SMOOTH",
"19 475 OFFCURVE",
"43 457 OFFCURVE",
"43 429 CURVE SMOOTH",
"43 409 OFFCURVE",
"10 334 OFFCURVE",
"10 208 CURVE SMOOTH",
"10 48 OFFCURVE",
"150 -15 OFFCURVE",
"263 -15 CURVE SMOOTH",
"338 -15 OFFCURVE",
"398 22 OFFCURVE",
"452 73 CURVE",
"452 73 OFFCURVE",
"454 47 OFFCURVE",
"454 32 CURVE SMOOTH",
"454 3 OFFCURVE",
"479 -33 OFFCURVE",
"507 -33 CURVE SMOOTH"
);
}
);
userData = {
com.fontlab.hintData = {
hhints = (
{
position = -33;
width = 782;
}
);
vhints = (
{
position = -19;
width = 629;
}
);
};
};
width = 627;
}
);
leftKerningGroup = U;
unicode = 00DB;
},
{
glyphname = Udieresis;
lastChange = "2021-06-23 18:43:34 +0000";
layers = (
{
layerId = master01;
paths = (
{
closed = 1;
nodes = (
"192 655 OFFCURVE",
"200 641 OFFCURVE",
"217 641 CURVE SMOOTH",
"225 641 OFFCURVE",
"233 644 OFFCURVE",
"242 650 CURVE SMOOTH",
"256 659 OFFCURVE",
"256 662 OFFCURVE",
"256 684 CURVE SMOOTH",
"256 706 OFFCURVE",
"251 717 OFFCURVE",
"240 717 CURVE SMOOTH",
"236 717 OFFCURVE",
"231 715 OFFCURVE",
"225 712 CURVE SMOOTH",
"204 701 OFFCURVE",
"192 686 OFFCURVE",
"192 669 CURVE SMOOTH"
);
},
{
closed = 1;
nodes = (
"311 655 OFFCURVE",
"318 641 OFFCURVE",
"335 641 CURVE SMOOTH",
"343 641 OFFCURVE",
"351 644 OFFCURVE",
"360 650 CURVE SMOOTH",
"374 659 OFFCURVE",
"374 662 OFFCURVE",
"374 684 CURVE SMOOTH",
"374 706 OFFCURVE",
"369 717 OFFCURVE",
"358 717 CURVE SMOOTH",
"354 717 OFFCURVE",
"349 715 OFFCURVE",
"343 712 CURVE SMOOTH",
"322 701 OFFCURVE",
"311 686 OFFCURVE",
"311 669 CURVE SMOOTH"
);
},
{
closed = 1;
nodes = (
"555 -33 OFFCURVE",
"610 10 OFFCURVE",
"610 31 CURVE SMOOTH",
"610 53 OFFCURVE",
"536 18 OFFCURVE",
"536 104 CURVE SMOOTH",
"536 158 OFFCURVE",
"532 182 OFFCURVE",
"532 222 CURVE SMOOTH",
"532 287 LINE SMOOTH",
"532 330 OFFCURVE",
"532 375 OFFCURVE",
"537 435 CURVE SMOOTH",
"540 480 OFFCURVE",
"552 521 OFFCURVE",
"552 547 CURVE SMOOTH",
"552 563 OFFCURVE",
"547 572 OFFCURVE",
"527 572 CURVE SMOOTH",
"476 572 OFFCURVE",
"408 523 OFFCURVE",
"382 502 CURVE SMOOTH",
"379 498 OFFCURVE",
"377 494 OFFCURVE",
"377 490 CURVE SMOOTH",
"377 485 OFFCURVE",
"378 481 OFFCURVE",
"382 477 CURVE SMOOTH",
"442 461 OFFCURVE",
"458 455 OFFCURVE",
"458 408 CURVE SMOOTH",
"458 320 OFFCURVE",
"450 206 OFFCURVE",
"450 147 CURVE SMOOTH",
"450 132 OFFCURVE",
"451 100 OFFCURVE",
"451 100 CURVE",
"429 82 OFFCURVE",
"379 56 OFFCURVE",
"333 56 CURVE SMOOTH",
"188 56 OFFCURVE",
"83 168 OFFCURVE",
"83 280 CURVE SMOOTH",
"83 405 OFFCURVE",
"162 500 OFFCURVE",
"162 550 CURVE SMOOTH",
"162 566 OFFCURVE",
"158 576 OFFCURVE",
"141 576 CURVE SMOOTH",
"76 576 OFFCURVE",
"-14 500 OFFCURVE",
"-14 500 CURVE SMOOTH",
"-18 497 OFFCURVE",
"-19 493 OFFCURVE",
"-19 489 CURVE SMOOTH",
"-19 485 OFFCURVE",
"-18 481 OFFCURVE",
"-14 478 CURVE SMOOTH",
"19 475 OFFCURVE",
"43 457 OFFCURVE",
"43 429 CURVE SMOOTH",
"43 409 OFFCURVE",
"10 334 OFFCURVE",
"10 208 CURVE SMOOTH",
"10 48 OFFCURVE",
"150 -15 OFFCURVE",
"263 -15 CURVE SMOOTH",
"338 -15 OFFCURVE",
"398 22 OFFCURVE",
"452 73 CURVE",
"452 73 OFFCURVE",
"454 47 OFFCURVE",
"454 32 CURVE SMOOTH",
"454 3 OFFCURVE",
"479 -33 OFFCURVE",
"507 -33 CURVE SMOOTH"
);
}
);
userData = {
com.fontlab.hintData = {
hhints = (
{
position = -33;
width = 750;
}
);
vhints = (
{
position = 256;
width = 55;
}
);
};
};
width = 627;
}
);
leftKerningGroup = U;
unicode = 00DC;
},
{
glyphname = Ugrave;
lastChange = "2021-06-23 18:43:34 +0000";
layers = (
{
layerId = master01;
paths = (
{
closed = 1;
nodes = (
"37 698 OFFCURVE",
"62 672 OFFCURVE",
"77 668 CURVE",
"98 672 OFFCURVE",
"119 715 OFFCURVE",
"136 715 CURVE SMOOTH",
"155 715 OFFCURVE",
"173 708 OFFCURVE",
"199 700 CURVE SMOOTH",
"276 678 OFFCURVE",
"315 664 OFFCURVE",
"386 632 CURVE",
"388 636 LINE",
"342 666 OFFCURVE",
"218 703 OFFCURVE",
"144 725 CURVE SMOOTH",
"120 732 OFFCURVE",
"105 738 OFFCURVE",
"87 738 CURVE SMOOTH",
"66 738 OFFCURVE",
"47 729 OFFCURVE",
"36 709 CURVE"
);
},
{
closed = 1;
nodes = (
"555 -33 OFFCURVE",
"610 10 OFFCURVE",
"610 31 CURVE SMOOTH",
"610 53 OFFCURVE",
"536 18 OFFCURVE",
"536 104 CURVE SMOOTH",
"536 158 OFFCURVE",
"532 182 OFFCURVE",
"532 222 CURVE SMOOTH",
"532 287 LINE SMOOTH",
"532 330 OFFCURVE",
"532 375 OFFCURVE",
"537 435 CURVE SMOOTH",
"540 480 OFFCURVE",
"552 521 OFFCURVE",
"552 547 CURVE SMOOTH",
"552 563 OFFCURVE",
"547 572 OFFCURVE",
"527 572 CURVE SMOOTH",
"476 572 OFFCURVE",
"408 523 OFFCURVE",
"382 502 CURVE SMOOTH",
"379 498 OFFCURVE",
"377 494 OFFCURVE",
"377 490 CURVE SMOOTH",
"377 485 OFFCURVE",
"378 481 OFFCURVE",
"382 477 CURVE SMOOTH",
"442 461 OFFCURVE",
"458 455 OFFCURVE",
"458 408 CURVE SMOOTH",
"458 320 OFFCURVE",
"450 206 OFFCURVE",
"450 147 CURVE SMOOTH",
"450 132 OFFCURVE",
"451 100 OFFCURVE",
"451 100 CURVE",
"429 82 OFFCURVE",
"379 56 OFFCURVE",
"333 56 CURVE SMOOTH",
"188 56 OFFCURVE",
"83 168 OFFCURVE",
"83 280 CURVE SMOOTH",
"83 405 OFFCURVE",
"162 500 OFFCURVE",
"162 550 CURVE SMOOTH",
"162 566 OFFCURVE",
"158 576 OFFCURVE",
"141 576 CURVE SMOOTH",
"76 576 OFFCURVE",
"-14 500 OFFCURVE",
"-14 500 CURVE SMOOTH",
"-18 497 OFFCURVE",
"-19 493 OFFCURVE",
"-19 489 CURVE SMOOTH",
"-19 485 OFFCURVE",
"-18 481 OFFCURVE",
"-14 478 CURVE SMOOTH",
"19 475 OFFCURVE",
"43 457 OFFCURVE",
"43 429 CURVE SMOOTH",
"43 409 OFFCURVE",
"10 334 OFFCURVE",
"10 208 CURVE SMOOTH",
"10 48 OFFCURVE",
"150 -15 OFFCURVE",
"263 -15 CURVE SMOOTH",
"338 -15 OFFCURVE",
"398 22 OFFCURVE",
"452 73 CURVE",
"452 73 OFFCURVE",
"454 47 OFFCURVE",
"454 32 CURVE SMOOTH",
"454 3 OFFCURVE",
"479 -33 OFFCURVE",
"507 -33 CURVE SMOOTH"
);
}
);
userData = {
com.fontlab.hintData = {
hhints = (
{
position = -33;
width = 771;
}
);
vhints = (
{
position = -19;
width = 629;
}
);
};
};
width = 627;
}
);
leftKerningGroup = U;
unicode = 00D9;
},
{
glyphname = Umacron;
lastChange = "2021-06-23 18:43:34 +0000";
layers = (
{
layerId = master01;
paths = (
{
closed = 1;
nodes = (
"472 722 OFFCURVE",
"452 722 OFFCURVE",
"435 722 CURVE SMOOTH",
"407 722 OFFCURVE",
"248 704 OFFCURVE",
"214 704 CURVE SMOOTH",
"194 704 OFFCURVE",
"197 722 OFFCURVE",
"183 722 CURVE SMOOTH",
"164 722 OFFCURVE",
"138 692 OFFCURVE",
"138 676 CURVE SMOOTH",
"138 660 OFFCURVE",
"150 659 OFFCURVE",
"169 659 CURVE SMOOTH",
"192 659 OFFCURVE",
"375 675 OFFCURVE",
"399 675 CURVE SMOOTH",
"408 675 OFFCURVE",
"411 656 OFFCURVE",
"423 656 CURVE SMOOTH",
"445 656 OFFCURVE",
"472 693 OFFCURVE",
"472 706 CURVE SMOOTH"
);
},
{
closed = 1;
nodes = (
"555 -33 OFFCURVE",
"610 10 OFFCURVE",
"610 31 CURVE SMOOTH",
"610 53 OFFCURVE",
"536 18 OFFCURVE",
"536 104 CURVE SMOOTH",
"536 158 OFFCURVE",
"532 182 OFFCURVE",
"532 222 CURVE SMOOTH",
"532 287 LINE SMOOTH",
"532 330 OFFCURVE",
"532 375 OFFCURVE",
"537 435 CURVE SMOOTH",
"540 480 OFFCURVE",
"552 521 OFFCURVE",
"552 547 CURVE SMOOTH",
"552 563 OFFCURVE",
"547 572 OFFCURVE",
"527 572 CURVE SMOOTH",
"476 572 OFFCURVE",
"408 523 OFFCURVE",
"382 502 CURVE SMOOTH",
"379 498 OFFCURVE",
"377 494 OFFCURVE",
"377 490 CURVE SMOOTH",
"377 485 OFFCURVE",
"378 481 OFFCURVE",
"382 477 CURVE SMOOTH",
"442 461 OFFCURVE",
"458 455 OFFCURVE",
"458 408 CURVE SMOOTH",
"458 320 OFFCURVE",
"450 206 OFFCURVE",
"450 147 CURVE SMOOTH",
"450 132 OFFCURVE",
"451 100 OFFCURVE",
"451 100 CURVE",
"429 82 OFFCURVE",
"379 56 OFFCURVE",
"333 56 CURVE SMOOTH",
"188 56 OFFCURVE",
"83 168 OFFCURVE",
"83 280 CURVE SMOOTH",
"83 405 OFFCURVE",
"162 500 OFFCURVE",
"162 550 CURVE SMOOTH",
"162 566 OFFCURVE",
"158 576 OFFCURVE",
"141 576 CURVE SMOOTH",
"76 576 OFFCURVE",
"-14 500 OFFCURVE",
"-14 500 CURVE SMOOTH",
"-18 497 OFFCURVE",
"-19 493 OFFCURVE",
"-19 489 CURVE SMOOTH",
"-19 485 OFFCURVE",
"-18 481 OFFCURVE",
"-14 478 CURVE SMOOTH",
"19 475 OFFCURVE",
"43 457 OFFCURVE",
"43 429 CURVE SMOOTH",
"43 409 OFFCURVE",
"10 334 OFFCURVE",
"10 208 CURVE SMOOTH",
"10 48 OFFCURVE",
"150 -15 OFFCURVE",
"263 -15 CURVE SMOOTH",
"338 -15 OFFCURVE",
"398 22 OFFCURVE",
"452 73 CURVE",
"452 73 OFFCURVE",
"454 47 OFFCURVE",
"454 32 CURVE SMOOTH",
"454 3 OFFCURVE",
"479 -33 OFFCURVE",
"507 -33 CURVE SMOOTH"
);
}
);
userData = {
com.fontlab.hintData = {
hhints = (
{
position = 576;
width = 83;
}
);
vhints = (
{
position = -19;
width = 629;
}
);
};
};
width = 627;
}
);
leftKerningGroup = U;
unicode = 016A;
},
{
glyphname = V;
lastChange = "2021-06-23 21:23:34 +0000";
layers = (
{
anchors = (
{
name = "Anchor-1";
position = "{326, 595}";
}
);
layerId = master01;
paths = (
{
closed = 1;
nodes = (
"628 570 OFFCURVE",
"591 571 OFFCURVE",
"559 571 CURVE SMOOTH",
"537 571 OFFCURVE",
"517 570 OFFCURVE",
"515 569 CURVE SMOOTH",
"511 566 OFFCURVE",
"506 550 OFFCURVE",
"507 545 CURVE SMOOTH",
"515 538 OFFCURVE",
"565 529 OFFCURVE",
"565 508 CURVE SMOOTH",
"565 497 OFFCURVE",
"554 443 OFFCURVE",
"518 372 CURVE SMOOTH",
"454 245 OFFCURVE",
"430 204 OFFCURVE",
"365 96 CURVE SMOOTH",
"357 83 OFFCURVE",
"351 78 OFFCURVE",
"347 78 CURVE SMOOTH",
"341 78 OFFCURVE",
"337 85 OFFCURVE",
"332 93 CURVE SMOOTH",
"280 187 OFFCURVE",
"270 226 OFFCURVE",
"205 343 CURVE SMOOTH",
"154 437 OFFCURVE",
"129 465 OFFCURVE",
"92 518 CURVE SMOOTH",
"90 521 OFFCURVE",
"89 525 OFFCURVE",
"89 528 CURVE SMOOTH",
"89 544 OFFCURVE",
"112 561 OFFCURVE",
"118 566 CURVE SMOOTH",
"121 571 OFFCURVE",
"110 586 OFFCURVE",
"105 586 CURVE SMOOTH",
"102 584 OFFCURVE",
"80 571 OFFCURVE",
"59 554 CURVE SMOOTH",
"36 534 OFFCURVE",
"-17 502 OFFCURVE",
"-20 491 CURVE SMOOTH",
"-20 486 OFFCURVE",
"-15 475 OFFCURVE",
"-8 474 CURVE SMOOTH",
"0 475 OFFCURVE",
"6 473 OFFCURVE",
"12 465 CURVE SMOOTH",
"51 410 OFFCURVE",
"78 371 OFFCURVE",
"127 283 CURVE SMOOTH",
"179 189 OFFCURVE",
"223 106 OFFCURVE",
"277 -4 CURVE SMOOTH",
"283 -16 OFFCURVE",
"302 -21 OFFCURVE",
"316 -21 CURVE SMOOTH",
"333 -21 OFFCURVE",
"343 -9 OFFCURVE",
"351 3 CURVE SMOOTH",
"411 97 OFFCURVE",
"511 260 OFFCURVE",
"564 366 CURVE SMOOTH",
"585 409 OFFCURVE",
"613 471 OFFCURVE",
"624 523 CURVE SMOOTH",
"627 536 OFFCURVE",
"632 552 OFFCURVE",
"632 568 CURVE"
);
}
);
userData = {
com.fontlab.hintData = {
hhints = (
{
position = -21;
width = 607;
}
);
vhints = (
{
position = -20;
width = 652;
}
);
};
};
width = 623;
}
);
leftKerningGroup = V;
rightKerningGroup = V;
unicode = 0056;
},
{
glyphname = W;
lastChange = "2021-06-23 18:44:09 +0000";
layers = (
{
anchors = (
{
name = "Anchor-1";
position = "{449, 595}";
}
);
layerId = master01;
paths = (
{
closed = 1;
nodes = (
"888 570 OFFCURVE",
"851 571 OFFCURVE",
"819 571 CURVE SMOOTH",
"797 571 OFFCURVE",
"777 570 OFFCURVE",
"775 569 CURVE SMOOTH",
"771 566 OFFCURVE",
"766 550 OFFCURVE",
"767 545 CURVE SMOOTH",
"775 538 OFFCURVE",
"826 529 OFFCURVE",
"826 508 CURVE SMOOTH",
"826 497 OFFCURVE",
"815 443 OFFCURVE",
"779 372 CURVE SMOOTH",
"715 245 OFFCURVE",
"690 204 OFFCURVE",
"625 96 CURVE SMOOTH",
"617 83 OFFCURVE",
"611 78 OFFCURVE",
"607 78 CURVE SMOOTH",
"601 78 OFFCURVE",
"597 85 OFFCURVE",
"592 93 CURVE SMOOTH",
"555 161 OFFCURVE",
"538 200 OFFCURVE",
"507 261 CURVE",
"529 299 OFFCURVE",
"549 335 OFFCURVE",
"564 366 CURVE SMOOTH",
"585 409 OFFCURVE",
"613 471 OFFCURVE",
"624 523 CURVE SMOOTH",
"627 536 OFFCURVE",
"632 552 OFFCURVE",
"632 568 CURVE",
"628 570 OFFCURVE",
"591 571 OFFCURVE",
"559 571 CURVE SMOOTH",
"537 571 OFFCURVE",
"517 570 OFFCURVE",
"515 569 CURVE SMOOTH",
"511 566 OFFCURVE",
"506 550 OFFCURVE",
"507 545 CURVE SMOOTH",
"515 538 OFFCURVE",
"565 529 OFFCURVE",
"565 508 CURVE SMOOTH",
"565 497 OFFCURVE",
"555 443 OFFCURVE",
"519 372 CURVE SMOOTH",
"485 306 LINE",
"465 343 LINE SMOOTH",
"414 437 OFFCURVE",
"389 465 OFFCURVE",
"352 518 CURVE SMOOTH",
"350 521 OFFCURVE",
"349 525 OFFCURVE",
"349 528 CURVE SMOOTH",
"349 544 OFFCURVE",
"372 561 OFFCURVE",
"378 566 CURVE SMOOTH",
"381 571 OFFCURVE",
"371 586 OFFCURVE",
"366 586 CURVE SMOOTH",
"363 584 OFFCURVE",
"340 571 OFFCURVE",
"319 554 CURVE SMOOTH",
"296 534 OFFCURVE",
"243 502 OFFCURVE",
"240 491 CURVE SMOOTH",
"240 486 OFFCURVE",
"245 475 OFFCURVE",
"252 474 CURVE SMOOTH",
"260 475 OFFCURVE",
"266 473 OFFCURVE",
"272 465 CURVE SMOOTH",
"311 410 OFFCURVE",
"338 371 OFFCURVE",
"387 283 CURVE SMOOTH",
"429 205 LINE",
"365 96 LINE SMOOTH",
"357 83 OFFCURVE",
"351 78 OFFCURVE",
"347 78 CURVE SMOOTH",
"341 78 OFFCURVE",
"337 86 OFFCURVE",
"332 94 CURVE SMOOTH",
"280 188 OFFCURVE",
"270 226 OFFCURVE",
"205 343 CURVE SMOOTH",
"154 437 OFFCURVE",
"129 465 OFFCURVE",
"92 518 CURVE SMOOTH",
"90 521 OFFCURVE",
"89 525 OFFCURVE",
"89 528 CURVE SMOOTH",
"89 544 OFFCURVE",
"112 561 OFFCURVE",
"118 566 CURVE SMOOTH",
"121 571 OFFCURVE",
"110 587 OFFCURVE",
"105 587 CURVE SMOOTH",
"102 585 OFFCURVE",
"80 571 OFFCURVE",
"59 554 CURVE SMOOTH",
"36 534 OFFCURVE",
"-17 502 OFFCURVE",
"-20 491 CURVE SMOOTH",
"-20 486 OFFCURVE",
"-15 475 OFFCURVE",
"-8 474 CURVE SMOOTH",
"0 475 OFFCURVE",
"6 473 OFFCURVE",
"12 465 CURVE SMOOTH",
"51 410 OFFCURVE",
"78 371 OFFCURVE",
"127 283 CURVE SMOOTH",
"179 189 OFFCURVE",
"223 106 OFFCURVE",
"277 -4 CURVE SMOOTH",
"283 -16 OFFCURVE",
"302 -21 OFFCURVE",
"316 -21 CURVE SMOOTH",
"333 -21 OFFCURVE",
"343 -9 OFFCURVE",
"351 3 CURVE SMOOTH",
"451 164 LINE",
"537 -4 LINE SMOOTH",
"543 -16 OFFCURVE",
"562 -21 OFFCURVE",
"576 -21 CURVE SMOOTH",
"593 -21 OFFCURVE",
"603 -9 OFFCURVE",
"611 3 CURVE SMOOTH",
"671 97 OFFCURVE",
"772 260 OFFCURVE",
"825 366 CURVE SMOOTH",
"846 409 OFFCURVE",
"873 471 OFFCURVE",
"884 523 CURVE SMOOTH",
"887 536 OFFCURVE",
"892 552 OFFCURVE",
"892 568 CURVE"
);
}
);
userData = {
com.fontlab.hintData = {
hhints = (
{
position = -21;
width = 608;
}
);
vhints = (
{
position = -20;
width = 912;
}
);
};
};
width = 882;
}
);
leftKerningGroup = V;
rightKerningGroup = V;
unicode = 0057;
},
{
glyphname = X;
lastChange = "2021-06-23 21:23:43 +0000";
layers = (
{
anchors = (
{
name = "Anchor-1";
position = "{379, 595}";
}
);
layerId = master01;
paths = (
{
closed = 1;
nodes = (
"757 76 OFFCURVE",
"760 83 OFFCURVE",
"760 87 CURVE SMOOTH",
"760 89 OFFCURVE",
"758 91 OFFCURVE",
"756 91 CURVE SMOOTH",
"754 91 OFFCURVE",
"750 89 OFFCURVE",
"745 85 CURVE SMOOTH",
"721 65 OFFCURVE",
"688 49 OFFCURVE",
"666 49 CURVE SMOOTH",
"560 49 OFFCURVE",
"499 185 OFFCURVE",
"426 345 CURVE",
"471 402 OFFCURVE",
"577 519 OFFCURVE",
"648 519 CURVE SMOOTH",
"670 519 OFFCURVE",
"673 498 OFFCURVE",
"681 481 CURVE",
"685 481 LINE SMOOTH",
"706 481 OFFCURVE",
"740 523 OFFCURVE",
"741 541 CURVE SMOOTH",
"738 556 OFFCURVE",
"729 579 OFFCURVE",
"705 579 CURVE SMOOTH",
"657 579 OFFCURVE",
"591 540 OFFCURVE",
"561 520 CURVE SMOOTH",
"538 505 OFFCURVE",
"452 417 OFFCURVE",
"414 371 CURVE",
"372 464 OFFCURVE",
"271 581 OFFCURVE",
"161 581 CURVE SMOOTH",
"112 581 OFFCURVE",
"52 568 OFFCURVE",
"21 534 CURVE SMOOTH",
"17 529 OFFCURVE",
"15 522 OFFCURVE",
"15 516 CURVE SMOOTH",
"15 507 OFFCURVE",
"19 498 OFFCURVE",
"29 495 CURVE",
"54 512 OFFCURVE",
"74 518 OFFCURVE",
"103 518 CURVE SMOOTH",
"201 518 OFFCURVE",
"305 390 OFFCURVE",
"347 297 CURVE",
"224 128 LINE SMOOTH",
"199 93 OFFCURVE",
"174 59 OFFCURVE",
"140 59 CURVE SMOOTH",
"103 59 OFFCURVE",
"93 75 OFFCURVE",
"80 111 CURVE",
"78 111 LINE SMOOTH",
"55 111 OFFCURVE",
"23 72 OFFCURVE",
"20 51 CURVE",
"33 15 OFFCURVE",
"61 -9 OFFCURVE",
"98 -9 CURVE SMOOTH",
"162 -9 OFFCURVE",
"220 74 OFFCURVE",
"245 104 CURVE SMOOTH",
"300 171 OFFCURVE",
"319 208 OFFCURVE",
"360 263 CURVE",
"429 127 OFFCURVE",
"494 -11 OFFCURVE",
"605 -11 CURVE SMOOTH",
"670 -11 OFFCURVE",
"724 39 OFFCURVE",
"752 71 CURVE SMOOTH"
);
}
);
userData = {
com.fontlab.hintData = {
hhints = (
{
position = -11;
width = 592;
}
);
vhints = (
{
position = 15;
width = 745;
}
);
};
};
width = 736;
}
);
leftKerningGroup = X;
rightKerningGroup = X;
unicode = 0058;
},
{
glyphname = Y;
lastChange = "2021-06-23 21:24:06 +0000";
layers = (
{
anchors = (
{
name = "Anchor-1";
position = "{248, 598}";
}
);
layerId = master01;
paths = (
{
closed = 1;
nodes = (
"488 560 OFFCURVE",
"489 563 OFFCURVE",
"489 567 CURVE SMOOTH",
"489 570 OFFCURVE",
"488 573 OFFCURVE",
"486 575 CURVE SMOOTH",
"453 584 OFFCURVE",
"465 586 OFFCURVE",
"414 586 CURVE SMOOTH",
"398 586 OFFCURVE",
"367 581 OFFCURVE",
"346 577 CURVE SMOOTH",
"343 576 OFFCURVE",
"341 573 OFFCURVE",
"341 569 CURVE SMOOTH",
"341 565 OFFCURVE",
"343 560 OFFCURVE",
"346 559 CURVE SMOOTH",
"367 557 OFFCURVE",
"382 557 OFFCURVE",
"395 544 CURVE",
"376 487 OFFCURVE",
"297 296 OFFCURVE",
"257 213 CURVE SMOOTH",
"256 211 OFFCURVE",
"255 211 OFFCURVE",
"254 211 CURVE SMOOTH",
"253 211 OFFCURVE",
"251 212 OFFCURVE",
"250 213 CURVE SMOOTH",
"233 233 OFFCURVE",
"226 264 OFFCURVE",
"210 287 CURVE",
"183 352 OFFCURVE",
"132 471 OFFCURVE",
"112 541 CURVE",
"127 555 OFFCURVE",
"154 561 OFFCURVE",
"180 561 CURVE SMOOTH",
"182 563 OFFCURVE",
"183 567 OFFCURVE",
"183 571 CURVE SMOOTH",
"183 574 OFFCURVE",
"182 577 OFFCURVE",
"180 579 CURVE SMOOTH",
"152 587 OFFCURVE",
"139 587 OFFCURVE",
"104 587 CURVE SMOOTH",
"82 587 LINE SMOOTH",
"66 587 OFFCURVE",
"10 584 OFFCURVE",
"-11 580 CURVE SMOOTH",
"-14 579 OFFCURVE",
"-16 576 OFFCURVE",
"-16 572 CURVE SMOOTH",
"-16 568 OFFCURVE",
"-14 563 OFFCURVE",
"-11 562 CURVE SMOOTH",
"3 562 OFFCURVE",
"16 559 OFFCURVE",
"31 544 CURVE",
"56 477 OFFCURVE",
"113 339 OFFCURVE",
"144 257 CURVE SMOOTH",
"150 231 OFFCURVE",
"159 211 OFFCURVE",
"167 191 CURVE SMOOTH",
"183 149 OFFCURVE",
"184 118 OFFCURVE",
"184 39 CURVE",
"171 25 OFFCURVE",
"151 27 OFFCURVE",
"133 24 CURVE SMOOTH",
"129 21 OFFCURVE",
"128 15 OFFCURVE",
"128 10 CURVE SMOOTH",
"128 4 OFFCURVE",
"130 -1 OFFCURVE",
"133 -3 CURVE SMOOTH",
"173 -7 OFFCURVE",
"202 -10 OFFCURVE",
"234 -10 CURVE SMOOTH",
"266 -10 OFFCURVE",
"311 -10 OFFCURVE",
"336 -3 CURVE SMOOTH",
"340 1 OFFCURVE",
"341 6 OFFCURVE",
"341 10 CURVE SMOOTH",
"341 15 OFFCURVE",
"339 20 OFFCURVE",
"335 24 CURVE SMOOTH",
"309 27 OFFCURVE",
"291 26 OFFCURVE",
"272 45 CURVE",
"272 100 OFFCURVE",
"276 139 OFFCURVE",
"279 161 CURVE",
"327 267 OFFCURVE",
"390 441 OFFCURVE",
"439 544 CURVE",
"457 553 OFFCURVE",
"466 556 OFFCURVE",
"486 558 CURVE SMOOTH"
);
}
);
userData = {
com.fontlab.hintData = {
hhints = (
{
position = 544;
width = 15;
}
);
vhints = (
{
position = -16;
width = 505;
}
);
};
};
width = 481;
}
);
leftKerningGroup = Y;
rightKerningGroup = Y;
unicode = 0059;
},
{
glyphname = Yacute;
lastChange = "2021-06-23 18:44:24 +0000";
layers = (
{
layerId = master01;
paths = (
{
closed = 1;
nodes = (
"537 729 OFFCURVE",
"518 738 OFFCURVE",
"497 738 CURVE SMOOTH",
"479 738 OFFCURVE",
"464 732 OFFCURVE",
"440 725 CURVE SMOOTH",
"366 703 OFFCURVE",
"242 666 OFFCURVE",
"196 636 CURVE",
"198 632 LINE",
"269 664 OFFCURVE",
"308 678 OFFCURVE",
"385 700 CURVE SMOOTH",
"411 708 OFFCURVE",
"429 715 OFFCURVE",
"448 715 CURVE SMOOTH",
"465 715 OFFCURVE",
"486 672 OFFCURVE",
"507 668 CURVE",
"522 672 OFFCURVE",
"547 698 OFFCURVE",
"548 709 CURVE"
);
},
{
closed = 1;
nodes = (
"488 560 OFFCURVE",
"489 563 OFFCURVE",
"489 567 CURVE SMOOTH",
"489 570 OFFCURVE",
"488 573 OFFCURVE",
"486 575 CURVE SMOOTH",
"453 584 OFFCURVE",
"465 586 OFFCURVE",
"414 586 CURVE SMOOTH",
"398 586 OFFCURVE",
"367 581 OFFCURVE",
"346 577 CURVE SMOOTH",
"343 576 OFFCURVE",
"341 573 OFFCURVE",
"341 569 CURVE SMOOTH",
"341 565 OFFCURVE",
"343 560 OFFCURVE",
"346 559 CURVE SMOOTH",
"367 557 OFFCURVE",
"382 557 OFFCURVE",
"395 544 CURVE",
"376 487 OFFCURVE",
"297 296 OFFCURVE",
"257 213 CURVE SMOOTH",
"256 211 OFFCURVE",
"255 211 OFFCURVE",
"254 211 CURVE SMOOTH",
"253 211 OFFCURVE",
"251 212 OFFCURVE",
"250 213 CURVE SMOOTH",
"233 233 OFFCURVE",
"226 264 OFFCURVE",
"210 287 CURVE",
"183 352 OFFCURVE",
"132 471 OFFCURVE",
"112 541 CURVE",
"127 555 OFFCURVE",
"154 561 OFFCURVE",
"180 561 CURVE SMOOTH",
"182 563 OFFCURVE",
"183 567 OFFCURVE",
"183 571 CURVE SMOOTH",
"183 574 OFFCURVE",
"182 577 OFFCURVE",
"180 579 CURVE SMOOTH",
"152 587 OFFCURVE",
"139 587 OFFCURVE",
"104 587 CURVE SMOOTH",
"82 587 LINE SMOOTH",
"66 587 OFFCURVE",
"10 584 OFFCURVE",
"-11 580 CURVE SMOOTH",
"-14 579 OFFCURVE",
"-16 576 OFFCURVE",
"-16 572 CURVE SMOOTH",
"-16 568 OFFCURVE",
"-14 563 OFFCURVE",
"-11 562 CURVE SMOOTH",
"3 562 OFFCURVE",
"16 559 OFFCURVE",
"31 544 CURVE",
"56 477 OFFCURVE",
"113 339 OFFCURVE",
"144 257 CURVE SMOOTH",
"150 231 OFFCURVE",
"159 211 OFFCURVE",
"167 191 CURVE SMOOTH",
"183 149 OFFCURVE",
"184 118 OFFCURVE",
"184 39 CURVE",
"171 25 OFFCURVE",
"151 27 OFFCURVE",
"133 24 CURVE SMOOTH",
"129 21 OFFCURVE",
"128 15 OFFCURVE",
"128 10 CURVE SMOOTH",
"128 4 OFFCURVE",
"130 -1 OFFCURVE",
"133 -3 CURVE SMOOTH",
"173 -7 OFFCURVE",
"202 -10 OFFCURVE",
"234 -10 CURVE SMOOTH",
"266 -10 OFFCURVE",
"311 -10 OFFCURVE",
"336 -3 CURVE SMOOTH",
"340 1 OFFCURVE",
"341 6 OFFCURVE",
"341 10 CURVE SMOOTH",
"341 15 OFFCURVE",
"339 20 OFFCURVE",
"335 24 CURVE SMOOTH",
"309 27 OFFCURVE",
"291 26 OFFCURVE",
"272 45 CURVE",
"272 100 OFFCURVE",
"276 139 OFFCURVE",
"279 161 CURVE",
"327 267 OFFCURVE",
"390 441 OFFCURVE",
"439 544 CURVE",
"457 553 OFFCURVE",
"466 556 OFFCURVE",
"486 558 CURVE SMOOTH"
);
}
);
userData = {
com.fontlab.hintData = {
hhints = (
{
position = 544;
width = 15;
}
);
vhints = (
{
position = -16;
width = 564;
}
);
};
};
width = 481;
}
);
leftKerningGroup = Y;
rightKerningGroup = Y;
unicode = 00DD;
},
{
glyphname = Z;
lastChange = "2021-06-23 21:23:57 +0000";
layers = (
{
anchors = (
{
name = "Anchor-1";
position = "{238, 595}";
}
);
layerId = master01;
paths = (
{
closed = 1;
nodes = (
"444 149 OFFCURVE",
"430 151 OFFCURVE",
"426 145 CURVE SMOOTH",
"411 101 OFFCURVE",
"394 75 OFFCURVE",
"382 67 CURVE SMOOTH",
"334 34 OFFCURVE",
"268 27 OFFCURVE",
"204 27 CURVE SMOOTH",
"180 27 OFFCURVE",
"155 28 OFFCURVE",
"133 29 CURVE SMOOTH",
"131 29 OFFCURVE",
"132 33 OFFCURVE",
"132 35 CURVE SMOOTH",
"241 208 OFFCURVE",
"326 384 OFFCURVE",
"445 552 CURVE SMOOTH",
"450 559 OFFCURVE",
"457 567 OFFCURVE",
"457 573 CURVE SMOOTH",
"457 579 OFFCURVE",
"448 584 OFFCURVE",
"422 584 CURVE SMOOTH",
"35 584 LINE",
"27 547 OFFCURVE",
"26 442 OFFCURVE",
"25 403 CURVE",
"33 390 OFFCURVE",
"38 395 OFFCURVE",
"45 400 CURVE",
"51 426 OFFCURVE",
"51 439 OFFCURVE",
"65 466 CURVE SMOOTH",
"102 539 OFFCURVE",
"201 556 OFFCURVE",
"284 559 CURVE SMOOTH",
"298 559 OFFCURVE",
"313 560 OFFCURVE",
"327 560 CURVE SMOOTH",
"337 560 OFFCURVE",
"347 560 OFFCURVE",
"356 559 CURVE",
"246 374 OFFCURVE",
"146 191 OFFCURVE",
"13 15 CURVE SMOOTH",
"11 12 OFFCURVE",
"10 9 OFFCURVE",
"10 6 CURVE SMOOTH",
"10 -1 OFFCURVE",
"15 -6 OFFCURVE",
"23 -6 CURVE SMOOTH",
"25 -6 LINE SMOOTH",
"115 -3 OFFCURVE",
"245 -6 OFFCURVE",
"350 -3 CURVE SMOOTH",
"434 -1 LINE",
"443 27 OFFCURVE",
"443 82 OFFCURVE",
"447 141 CURVE SMOOTH"
);
}
);
userData = {
com.fontlab.hintData = {
hhints = (
{
position = -6;
width = 590;
}
);
vhints = (
{
position = 10;
width = 447;
}
);
};
};
width = 465;
}
);
leftKerningGroup = Z;
rightKerningGroup = Z;
unicode = 005A;
},
{
glyphname = uni01F7;
lastChange = "2021-06-23 18:27:33 +0000";
layers = (
{
anchors = (
{
name = "Anchor-1";
position = "{230, 595}";
}
);
layerId = master01;
paths = (
{
closed = 1;
nodes = (
"436 515 OFFCURVE",
"378 582 OFFCURVE",
"257 582 CURVE SMOOTH",
"211 582 OFFCURVE",
"174 563 OFFCURVE",
"152 549 CURVE",
"148 566 OFFCURVE",
"151 583 OFFCURVE",
"121 583 CURVE SMOOTH",
"62 583 OFFCURVE",
"45 577 OFFCURVE",
"14 570 CURVE SMOOTH",
"11 569 OFFCURVE",
"10 564 OFFCURVE",
"10 559 CURVE SMOOTH",
"10 554 OFFCURVE",
"11 548 OFFCURVE",
"14 547 CURVE SMOOTH",
"34 543 OFFCURVE",
"54 539 OFFCURVE",
"68 522 CURVE",
"71 448 OFFCURVE",
"73 223 OFFCURVE",
"73 42 CURVE",
"63 29 OFFCURVE",
"48 28 OFFCURVE",
"31 24 CURVE",
"24 17 OFFCURVE",
"25 7 OFFCURVE",
"31 3 CURVE SMOOTH",
"68 -5 OFFCURVE",
"85 -6 OFFCURVE",
"117 -6 CURVE SMOOTH",
"129 -6 LINE SMOOTH",
"160 -6 OFFCURVE",
"198 -5 OFFCURVE",
"220 6 CURVE SMOOTH",
"226 13 OFFCURVE",
"222 20 OFFCURVE",
"219 24 CURVE SMOOTH",
"191 30 OFFCURVE",
"173 27 OFFCURVE",
"159 41 CURVE",
"157 50 OFFCURVE",
"156 82 OFFCURVE",
"156 101 CURVE",
"273 149 OFFCURVE",
"436 300 OFFCURVE",
"436 439 CURVE SMOOTH"
);
},
{
closed = 1;
nodes = (
"352 322 OFFCURVE",
"264 182 OFFCURVE",
"155 128 CURVE",
"154 192 OFFCURVE",
"151 369 OFFCURVE",
"151 416 CURVE SMOOTH",
"151 453 OFFCURVE",
"153 483 OFFCURVE",
"153 499 CURVE SMOOTH",
"153 509 LINE SMOOTH",
"153 523 OFFCURVE",
"167 552 OFFCURVE",
"236 552 CURVE SMOOTH",
"306 552 OFFCURVE",
"352 488 OFFCURVE",
"352 417 CURVE SMOOTH"
);
}
);
userData = {
com.fontlab.hintData = {
hhints = (
{
position = -6;
width = 589;
}
);
vhints = (
{
position = 151;
width = 201;
}
);
};
};
width = 450;
}
);
rightKerningGroup = Wynn;
unicode = 01F7;
},
{
glyphname = uni0232;
lastChange = "2021-06-23 18:44:24 +0000";
layers = (
{
layerId = master01;
paths = (
{
closed = 1;
nodes = (
"412 722 OFFCURVE",
"392 722 OFFCURVE",
"375 722 CURVE SMOOTH",
"347 722 OFFCURVE",
"188 704 OFFCURVE",
"154 704 CURVE SMOOTH",
"134 704 OFFCURVE",
"137 722 OFFCURVE",
"123 722 CURVE SMOOTH",
"104 722 OFFCURVE",
"78 692 OFFCURVE",
"78 676 CURVE SMOOTH",
"78 660 OFFCURVE",
"90 659 OFFCURVE",
"109 659 CURVE SMOOTH",
"132 659 OFFCURVE",
"315 675 OFFCURVE",
"339 675 CURVE SMOOTH",
"348 675 OFFCURVE",
"351 656 OFFCURVE",
"363 656 CURVE SMOOTH",
"385 656 OFFCURVE",
"412 693 OFFCURVE",
"412 706 CURVE SMOOTH"
);
},
{
closed = 1;
nodes = (
"488 560 OFFCURVE",
"489 563 OFFCURVE",
"489 567 CURVE SMOOTH",
"489 570 OFFCURVE",
"488 573 OFFCURVE",
"486 575 CURVE SMOOTH",
"453 584 OFFCURVE",
"465 586 OFFCURVE",
"414 586 CURVE SMOOTH",
"398 586 OFFCURVE",
"367 581 OFFCURVE",
"346 577 CURVE SMOOTH",
"339 574 OFFCURVE",
"341 562 OFFCURVE",
"346 559 CURVE SMOOTH",
"367 557 OFFCURVE",
"382 557 OFFCURVE",
"395 544 CURVE",
"376 487 OFFCURVE",
"297 296 OFFCURVE",
"257 213 CURVE SMOOTH",
"256 210 OFFCURVE",
"252 210 OFFCURVE",
"252 212 CURVE SMOOTH",
"234 232 OFFCURVE",
"226 263 OFFCURVE",
"210 287 CURVE",
"183 352 OFFCURVE",
"132 471 OFFCURVE",
"112 541 CURVE",
"127 555 OFFCURVE",
"154 561 OFFCURVE",
"180 561 CURVE",
"183 565 OFFCURVE",
"184 576 OFFCURVE",
"180 579 CURVE SMOOTH",
"152 587 OFFCURVE",
"139 587 OFFCURVE",
"104 587 CURVE SMOOTH",
"82 587 LINE SMOOTH",
"66 587 OFFCURVE",
"10 584 OFFCURVE",
"-11 580 CURVE SMOOTH",
"-14 579 OFFCURVE",
"-16 576 OFFCURVE",
"-16 572 CURVE SMOOTH",
"-16 568 OFFCURVE",
"-14 563 OFFCURVE",
"-11 562 CURVE SMOOTH",
"3 562 OFFCURVE",
"16 559 OFFCURVE",
"31 544 CURVE",
"56 477 OFFCURVE",
"113 339 OFFCURVE",
"144 257 CURVE SMOOTH",
"150 231 OFFCURVE",
"159 211 OFFCURVE",
"167 191 CURVE SMOOTH",
"183 149 OFFCURVE",
"184 118 OFFCURVE",
"184 39 CURVE",
"171 25 OFFCURVE",
"151 27 OFFCURVE",
"133 24 CURVE SMOOTH",
"129 21 OFFCURVE",
"128 15 OFFCURVE",
"128 10 CURVE SMOOTH",
"128 4 OFFCURVE",
"130 -1 OFFCURVE",
"133 -3 CURVE SMOOTH",
"169 -7 OFFCURVE",
"196 -10 OFFCURVE",
"224 -10 CURVE SMOOTH",
"234 -10 LINE SMOOTH",
"266 -9 OFFCURVE",
"311 -10 OFFCURVE",
"336 -3 CURVE SMOOTH",
"340 1 OFFCURVE",
"341 6 OFFCURVE",
"341 10 CURVE SMOOTH",
"341 15 OFFCURVE",
"339 20 OFFCURVE",
"335 24 CURVE SMOOTH",
"309 27 OFFCURVE",
"291 26 OFFCURVE",
"272 45 CURVE",
"272 100 OFFCURVE",
"276 139 OFFCURVE",
"279 161 CURVE",
"327 267 OFFCURVE",
"390 441 OFFCURVE",
"439 544 CURVE",
"457 553 OFFCURVE",
"466 556 OFFCURVE",
"486 558 CURVE SMOOTH"
);
}
);
userData = {
com.fontlab.hintData = {
hhints = (
{
position = 587;
width = 72;
}
);
vhints = (
{
position = -16;
width = 505;
},
{
position = 183;
width = 159;
}
);
};
};
width = 481;
}
);
leftKerningGroup = Y;
rightKerningGroup = Y;
unicode = 0232;
},
{
glyphname = A.alt;
lastChange = "2021-06-23 18:43:16 +0000";
layers = (
{
anchors = (
{
name = "Anchor-1";
position = "{255, 595}";
}
);
layerId = master01;
paths = (
{
closed = 1;
nodes = (
"728 133 OFFCURVE",
"728 135 OFFCURVE",
"728 137 CURVE SMOOTH",
"728 145 OFFCURVE",
"721 150 OFFCURVE",
"712 150 CURVE SMOOTH",
"675 137 OFFCURVE",
"631 71 OFFCURVE",
"573 71 CURVE SMOOTH",
"497 71 OFFCURVE",
"473 145 OFFCURVE",
"447 216 CURVE SMOOTH",
"402 343 OFFCURVE",
"391 414 OFFCURVE",
"337 541 CURVE SMOOTH",
"326 567 OFFCURVE",
"273 583 OFFCURVE",
"244 583 CURVE SMOOTH",
"218 583 OFFCURVE",
"194 569 OFFCURVE",
"176 555 CURVE SMOOTH",
"174 552 OFFCURVE",
"172 545 OFFCURVE",
"172 540 CURVE SMOOTH",
"172 536 OFFCURVE",
"173 532 OFFCURVE",
"176 530 CURVE SMOOTH",
"218 524 OFFCURVE",
"227 503 OFFCURVE",
"227 474 CURVE SMOOTH",
"227 466 OFFCURVE",
"215 443 OFFCURVE",
"199 405 CURVE SMOOTH",
"172 343 OFFCURVE",
"139 254 OFFCURVE",
"128 232 CURVE SMOOTH",
"14 3 LINE",
"44 -13 LINE",
"86 5 OFFCURVE",
"112 17 OFFCURVE",
"154 23 CURVE",
"140 45 OFFCURVE",
"131 56 OFFCURVE",
"131 83 CURVE SMOOTH",
"131 107 OFFCURVE",
"139 124 OFFCURVE",
"151 145 CURVE SMOOTH",
"205 242 OFFCURVE",
"211 383 OFFCURVE",
"280 437 CURVE",
"314 345 OFFCURVE",
"290 354 OFFCURVE",
"322 243 CURVE SMOOTH",
"376 61 OFFCURVE",
"400 -13 OFFCURVE",
"484 -13 CURVE SMOOTH",
"564 -13 OFFCURVE",
"689 77 OFFCURVE",
"727 131 CURVE SMOOTH"
);
}
);
userData = {
com.fontlab.hintData = {
hhints = (
{
position = -13;
width = 596;
}
);
vhints = (
{
position = 14;
width = 714;
}
);
};
};
width = 729;
}
);
leftKerningGroup = A;
rightKerningGroup = A.alt;
},
{
glyphname = E.alt;
layers = (
{
anchors = (
{
name = "Anchor-1";
position = "{330, 595}";
}
);
layerId = master01;
paths = (
{
closed = 1;
nodes = (
"20 119 OFFCURVE",
"163 -15 OFFCURVE",
"330 -15 CURVE SMOOTH",
"384 -15 OFFCURVE",
"434 -2 OFFCURVE",
"449 -2 CURVE SMOOTH",
"460 -2 OFFCURVE",
"480 -6 OFFCURVE",
"489 -6 CURVE SMOOTH",
"492 -6 OFFCURVE",
"494 -5 OFFCURVE",
"494 -4 CURVE SMOOTH",
"494 3 LINE SMOOTH",
"494 23 OFFCURVE",
"488 77 OFFCURVE",
"488 99 CURVE SMOOTH",
"488 105 LINE SMOOTH",
"487 107 OFFCURVE",
"484 108 OFFCURVE",
"480 108 CURVE SMOOTH",
"475 108 OFFCURVE",
"469 107 OFFCURVE",
"468 104 CURVE SMOOTH",
"464 79 OFFCURVE",
"408 23 OFFCURVE",
"332 23 CURVE SMOOTH",
"230 23 OFFCURVE",
"145 109 OFFCURVE",
"119 246 CURVE",
"147 250 OFFCURVE",
"207 260 OFFCURVE",
"263 264 CURVE SMOOTH",
"297 266 OFFCURVE",
"334 267 OFFCURVE",
"361 267 CURVE SMOOTH",
"393 267 LINE SMOOTH",
"426 267 OFFCURVE",
"448 248 OFFCURVE",
"461 227 CURVE",
"461 227 OFFCURVE",
"467 224 OFFCURVE",
"472 224 CURVE SMOOTH",
"477 224 OFFCURVE",
"481 226 OFFCURVE",
"481 232 CURVE SMOOTH",
"481 253 OFFCURVE",
"474 351 OFFCURVE",
"474 359 CURVE SMOOTH",
"473 361 OFFCURVE",
"468 362 OFFCURVE",
"463 362 CURVE SMOOTH",
"458 362 OFFCURVE",
"453 361 OFFCURVE",
"452 358 CURVE SMOOTH",
"444 341 OFFCURVE",
"420 311 OFFCURVE",
"394 311 CURVE SMOOTH",
"372 311 OFFCURVE",
"312 310 OFFCURVE",
"260 306 CURVE SMOOTH",
"203 302 OFFCURVE",
"146 292 OFFCURVE",
"113 288 CURVE",
"112 303 OFFCURVE",
"111 320 OFFCURVE",
"111 336 CURVE SMOOTH",
"111 352 OFFCURVE",
"112 367 OFFCURVE",
"116 382 CURVE SMOOTH",
"142 479 OFFCURVE",
"210 549 OFFCURVE",
"304 549 CURVE SMOOTH",
"366 549 OFFCURVE",
"420 539 OFFCURVE",
"446 468 CURVE SMOOTH",
"447 466 OFFCURVE",
"451 465 OFFCURVE",
"455 465 CURVE SMOOTH",
"461 465 OFFCURVE",
"468 466 OFFCURVE",
"469 469 CURVE SMOOTH",
"466 482 OFFCURVE",
"466 500 OFFCURVE",
"466 518 CURVE SMOOTH",
"466 564 LINE SMOOTH",
"466 572 OFFCURVE",
"466 577 OFFCURVE",
"465 578 CURVE SMOOTH",
"463 579 OFFCURVE",
"461 579 OFFCURVE",
"458 579 CURVE SMOOTH",
"448 579 OFFCURVE",
"433 575 OFFCURVE",
"420 575 CURVE SMOOTH",
"397 575 OFFCURVE",
"395 584 OFFCURVE",
"332 584 CURVE SMOOTH",
"205 584 OFFCURVE",
"100 495 OFFCURVE",
"35 400 CURVE",
"25 369 OFFCURVE",
"20 331 OFFCURVE",
"20 293 CURVE SMOOTH"
);
}
);
userData = {
com.fontlab.hintData = {
hhints = (
{
position = -15;
width = 599;
},
{
position = 23;
width = 244;
},
{
position = 311;
width = 238;
},
{
position = 362;
width = 103;
}
);
vhints = (
{
position = 20;
width = 474;
}
);
};
};
width = 521;
}
);
},
{
glyphname = G.alt;
layers = (
{
anchors = (
{
name = "Anchor-1";
position = "{296, 595}";
}
);
layerId = master01;
paths = (
{
closed = 1;
nodes = (
"562 252 OFFCURVE",
"505 317 OFFCURVE",
"429 317 CURVE SMOOTH",
"355 317 OFFCURVE",
"284 266 OFFCURVE",
"234 172 CURVE",
"243 162 LINE",
"291 210 OFFCURVE",
"324 241 OFFCURVE",
"403 241 CURVE SMOOTH",
"451 241 OFFCURVE",
"525 217 OFFCURVE",
"525 157 CURVE SMOOTH",
"525 75 OFFCURVE",
"448 69 OFFCURVE",
"421 69 CURVE SMOOTH",
"150 69 OFFCURVE",
"66 237 OFFCURVE",
"66 342 CURVE SMOOTH",
"66 440 OFFCURVE",
"176 532 OFFCURVE",
"241 532 CURVE SMOOTH",
"280 532 OFFCURVE",
"296 473 OFFCURVE",
"311 443 CURVE",
"317 443 LINE SMOOTH",
"353 443 OFFCURVE",
"403 477 OFFCURVE",
"405 509 CURVE",
"400 536 OFFCURVE",
"347 579 OFFCURVE",
"313 579 CURVE SMOOTH",
"171 579 OFFCURVE",
"9 465 OFFCURVE",
"9 295 CURVE SMOOTH",
"9 149 OFFCURVE",
"121 -9 OFFCURVE",
"305 -9 CURVE SMOOTH",
"489 -9 OFFCURVE",
"562 93 OFFCURVE",
"562 164 CURVE SMOOTH"
);
}
);
userData = {
com.fontlab.hintData = {
hhints = (
{
position = 69;
width = 172;
},
{
position = 317;
width = 126;
}
);
vhints = (
{
position = 9;
width = 553;
}
);
};
};
width = 583;
}
);
},
{
glyphname = uni01F7.alt;
lastChange = "2021-06-23 18:27:33 +0000";
layers = (
{
anchors = (
{
name = "Anchor-1";
position = "{260, 595}";
}
);
layerId = master01;
paths = (
{
closed = 1;
nodes = (
"489 568 OFFCURVE",
"431 585 OFFCURVE",
"366 585 CURVE SMOOTH",
"296 585 OFFCURVE",
"202 558 OFFCURVE",
"148 532 CURVE",
"148 532 OFFCURVE",
"150 543 OFFCURVE",
"150 548 CURVE SMOOTH",
"150 589 OFFCURVE",
"124 589 OFFCURVE",
"104 589 CURVE SMOOTH",
"77 589 OFFCURVE",
"16 564 OFFCURVE",
"-11 546 CURVE SMOOTH",
"-14 544 OFFCURVE",
"-16 540 OFFCURVE",
"-16 536 CURVE SMOOTH",
"-16 532 OFFCURVE",
"-14 529 OFFCURVE",
"-11 528 CURVE SMOOTH",
"70 528 OFFCURVE",
"64 460 OFFCURVE",
"66 392 CURVE SMOOTH",
"68 331 OFFCURVE",
"68 279 OFFCURVE",
"68 228 CURVE SMOOTH",
"68 147 OFFCURVE",
"67 72 OFFCURVE",
"67 -21 CURVE SMOOTH",
"67 -109 OFFCURVE",
"62 -154 OFFCURVE",
"62 -246 CURVE",
"81 -246 OFFCURVE",
"128 -229 OFFCURVE",
"134 -210 CURVE",
"140 -148 OFFCURVE",
"147 -58 OFFCURVE",
"150 -3 CURVE",
"258 72 OFFCURVE",
"489 283 OFFCURVE",
"489 490 CURVE SMOOTH"
);
},
{
closed = 1;
nodes = (
"375 255 OFFCURVE",
"240 118 OFFCURVE",
"150 28 CURVE",
"150 182 OFFCURVE",
"147 279 OFFCURVE",
"147 452 CURVE SMOOTH",
"147 470 OFFCURVE",
"146 482 OFFCURVE",
"146 494 CURVE SMOOTH",
"146 500 OFFCURVE",
"146 506 OFFCURVE",
"147 513 CURVE",
"194 537 OFFCURVE",
"247 551 OFFCURVE",
"295 551 CURVE SMOOTH",
"366 551 OFFCURVE",
"375 491 OFFCURVE",
"375 427 CURVE SMOOTH"
);
}
);
userData = {
com.fontlab.hintData = {
hhints = (
{
position = -246;
width = 835;
}
);
vhints = (
{
position = 147;
width = 228;
}
);
};
};
width = 494;
}
);
rightKerningGroup = Wynn;
},
{
glyphname = a;
lastChange = "2021-06-23 21:20:54 +0000";
layers = (
{
anchors = (
{
name = "Anchor-1";
position = "{185, 340}";
}
);
layerId = master01;
paths = (
{
closed = 1;
nodes = (
"361 85 LINE",
"344 75 OFFCURVE",
"314 62 OFFCURVE",
"302 62 CURVE SMOOTH",
"289 62 OFFCURVE",
"278 66 OFFCURVE",
"273 83 CURVE SMOOTH",
"263 120 OFFCURVE",
"260 208 OFFCURVE",
"253 293 CURVE SMOOTH",
"252 302 OFFCURVE",
"239 304 OFFCURVE",
"229 304 CURVE SMOOTH",
"220 304 OFFCURVE",
"117 244 OFFCURVE",
"65 192 CURVE SMOOTH",
"36 163 OFFCURVE",
"18 126 OFFCURVE",
"18 89 CURVE",
"18 89 OFFCURVE",
"19 -13 OFFCURVE",
"68 -13 CURVE SMOOTH",
"115 -13 OFFCURVE",
"153 17 OFFCURVE",
"206 54 CURVE",
"207 40 OFFCURVE",
"213 0 OFFCURVE",
"248 0 CURVE SMOOTH",
"297 0 OFFCURVE",
"356 63 OFFCURVE",
"365 74 CURVE"
);
},
{
closed = 1;
nodes = (
"205 66 OFFCURVE",
"171 56 OFFCURVE",
"152 56 CURVE SMOOTH",
"133 56 OFFCURVE",
"83 75 OFFCURVE",
"83 131 CURVE SMOOTH",
"83 185 OFFCURVE",
"159 227 OFFCURVE",
"191 247 CURVE",
"192 243 OFFCURVE",
"198 239 OFFCURVE",
"199 227 CURVE SMOOTH",
"205 180 OFFCURVE",
"203 84 OFFCURVE",
"205 66 CURVE"
);
}
);
userData = {
com.fontlab.hintData = {
hhints = (
{
position = -13;
width = 317;
}
);
vhints = (
{
position = 83;
width = 122;
}
);
};
};
width = 339;
}
);
leftKerningGroup = a;
rightKerningGroup = a;
unicode = 0061;
},
{
glyphname = aacute;
lastChange = "2021-06-23 18:22:13 +0000";
layers = (
{
layerId = master01;
paths = (
{
closed = 1;
nodes = (
"355 547 OFFCURVE",
"337 554 OFFCURVE",
"318 554 CURVE SMOOTH",
"286 554 OFFCURVE",
"267 538 OFFCURVE",
"244 513 CURVE SMOOTH",
"184 448 OFFCURVE",
"146 395 OFFCURVE",
"128 361 CURVE",
"132 357 LINE",
"166 404 OFFCURVE",
"194 443 OFFCURVE",
"218 467 CURVE SMOOTH",
"241 490 OFFCURVE",
"253 500 OFFCURVE",
"280 500 CURVE SMOOTH",
"300 500 OFFCURVE",
"317 489 OFFCURVE",
"340 488 CURVE",
"357 496 OFFCURVE",
"369 515 OFFCURVE",
"369 528 CURVE SMOOTH",
"369 530 LINE"
);
},
{
closed = 1;
nodes = (
"361 85 LINE",
"344 75 OFFCURVE",
"314 62 OFFCURVE",
"302 62 CURVE SMOOTH",
"289 62 OFFCURVE",
"278 66 OFFCURVE",
"273 83 CURVE SMOOTH",
"263 120 OFFCURVE",
"260 208 OFFCURVE",
"253 293 CURVE SMOOTH",
"252 302 OFFCURVE",
"239 304 OFFCURVE",
"229 304 CURVE SMOOTH",
"220 304 OFFCURVE",
"117 244 OFFCURVE",
"65 192 CURVE SMOOTH",
"36 163 OFFCURVE",
"18 126 OFFCURVE",
"18 89 CURVE",
"18 89 OFFCURVE",
"19 -13 OFFCURVE",
"68 -13 CURVE SMOOTH",
"115 -13 OFFCURVE",
"153 17 OFFCURVE",
"206 54 CURVE",
"207 40 OFFCURVE",
"213 0 OFFCURVE",
"248 0 CURVE SMOOTH",
"297 0 OFFCURVE",
"356 63 OFFCURVE",
"365 74 CURVE"
);
},
{
closed = 1;
nodes = (
"205 66 OFFCURVE",
"171 56 OFFCURVE",
"152 56 CURVE SMOOTH",
"133 56 OFFCURVE",
"83 75 OFFCURVE",
"83 131 CURVE SMOOTH",
"83 185 OFFCURVE",
"159 227 OFFCURVE",
"191 247 CURVE",
"192 243 OFFCURVE",
"198 239 OFFCURVE",
"199 227 CURVE SMOOTH",
"205 180 OFFCURVE",
"203 84 OFFCURVE",
"205 66 CURVE"
);
}
);
userData = {
com.fontlab.hintData = {
hhints = (
{
position = -13;
width = 567;
}
);
vhints = (
{
position = 83;
width = 122;
}
);
};
};
width = 339;
}
);
leftKerningGroup = a;
rightKerningGroup = a;
unicode = 00E1;
},
{
glyphname = acircumflex;
lastChange = "2021-06-23 18:22:13 +0000";
layers = (
{
layerId = master01;
paths = (
{
closed = 1;
nodes = (
"35 369 OFFCURVE",
"38 363 OFFCURVE",
"43 363 CURVE SMOOTH",
"45 363 OFFCURVE",
"48 364 OFFCURVE",
"51 367 CURVE SMOOTH",
"85 399 OFFCURVE",
"118 433 OFFCURVE",
"153 464 CURVE SMOOTH",
"162 473 OFFCURVE",
"167 477 OFFCURVE",
"172 477 CURVE SMOOTH",
"177 477 OFFCURVE",
"182 473 OFFCURVE",
"192 464 CURVE SMOOTH",
"226 432 OFFCURVE",
"259 399 OFFCURVE",
"293 367 CURVE SMOOTH",
"296 364 OFFCURVE",
"299 363 OFFCURVE",
"301 363 CURVE SMOOTH",
"306 363 OFFCURVE",
"309 369 OFFCURVE",
"309 377 CURVE SMOOTH",
"309 386 OFFCURVE",
"305 398 OFFCURVE",
"298 406 CURVE SMOOTH",
"261 445 OFFCURVE",
"224 485 OFFCURVE",
"186 520 CURVE SMOOTH",
"184 523 OFFCURVE",
"180 523 OFFCURVE",
"175 523 CURVE SMOOTH",
"167 523 OFFCURVE",
"158 521 OFFCURVE",
"154 517 CURVE SMOOTH",
"117 482 OFFCURVE",
"82 444 OFFCURVE",
"46 406 CURVE SMOOTH",
"39 398 OFFCURVE",
"35 386 OFFCURVE",
"35 377 CURVE SMOOTH"
);
},
{
closed = 1;
nodes = (
"361 85 LINE",
"344 75 OFFCURVE",
"314 62 OFFCURVE",
"302 62 CURVE SMOOTH",
"289 62 OFFCURVE",
"278 66 OFFCURVE",
"273 83 CURVE SMOOTH",
"263 120 OFFCURVE",
"260 208 OFFCURVE",
"253 293 CURVE SMOOTH",
"252 302 OFFCURVE",
"239 304 OFFCURVE",
"229 304 CURVE SMOOTH",
"220 304 OFFCURVE",
"117 244 OFFCURVE",
"65 192 CURVE SMOOTH",
"36 163 OFFCURVE",
"18 126 OFFCURVE",
"18 89 CURVE",
"18 89 OFFCURVE",
"19 -13 OFFCURVE",
"68 -13 CURVE SMOOTH",
"115 -13 OFFCURVE",
"153 17 OFFCURVE",
"206 54 CURVE",
"207 40 OFFCURVE",
"213 0 OFFCURVE",
"248 0 CURVE SMOOTH",
"297 0 OFFCURVE",
"356 63 OFFCURVE",
"365 74 CURVE"
);
},
{
closed = 1;
nodes = (
"205 66 OFFCURVE",
"171 56 OFFCURVE",
"152 56 CURVE SMOOTH",
"133 56 OFFCURVE",
"83 75 OFFCURVE",
"83 131 CURVE SMOOTH",
"83 185 OFFCURVE",
"159 227 OFFCURVE",
"191 247 CURVE",
"192 243 OFFCURVE",
"198 239 OFFCURVE",
"199 227 CURVE SMOOTH",
"205 180 OFFCURVE",
"203 84 OFFCURVE",
"205 66 CURVE"
);
}
);
userData = {
com.fontlab.hintData = {
hhints = (
{
position = -13;
width = 536;
}
);
vhints = (
{
position = 83;
width = 122;
}
);
};
};
width = 339;
}
);
leftKerningGroup = a;
rightKerningGroup = a;
unicode = 00E2;
},
{
glyphname = adieresis;
lastChange = "2021-06-23 18:22:13 +0000";
layers = (
{
layerId = master01;
paths = (
{
closed = 1;
nodes = (
"80 382 OFFCURVE",
"89 366 OFFCURVE",
"109 366 CURVE SMOOTH",
"118 366 OFFCURVE",
"128 370 OFFCURVE",
"138 377 CURVE SMOOTH",
"155 387 OFFCURVE",
"155 391 OFFCURVE",
"155 417 CURVE SMOOTH",
"155 442 OFFCURVE",
"149 455 OFFCURVE",
"136 455 CURVE SMOOTH",
"131 455 OFFCURVE",
"125 453 OFFCURVE",
"118 450 CURVE SMOOTH",
"93 436 OFFCURVE",
"80 420 OFFCURVE",
"80 399 CURVE SMOOTH"
);
},
{
closed = 1;
nodes = (
"219 382 OFFCURVE",
"228 366 OFFCURVE",
"248 366 CURVE SMOOTH",
"257 366 OFFCURVE",
"267 370 OFFCURVE",
"278 377 CURVE SMOOTH",
"294 387 OFFCURVE",
"294 391 OFFCURVE",
"294 417 CURVE SMOOTH",
"294 442 OFFCURVE",
"288 455 OFFCURVE",
"275 455 CURVE SMOOTH",
"270 455 OFFCURVE",
"264 453 OFFCURVE",
"257 450 CURVE SMOOTH",
"232 436 OFFCURVE",
"219 420 OFFCURVE",
"219 399 CURVE SMOOTH"
);
},
{
closed = 1;
nodes = (
"361 85 LINE",
"344 75 OFFCURVE",
"314 62 OFFCURVE",
"302 62 CURVE SMOOTH",
"289 62 OFFCURVE",
"278 66 OFFCURVE",
"273 83 CURVE SMOOTH",
"263 120 OFFCURVE",
"260 208 OFFCURVE",
"253 293 CURVE SMOOTH",
"252 302 OFFCURVE",
"239 304 OFFCURVE",
"229 304 CURVE SMOOTH",
"220 304 OFFCURVE",
"117 244 OFFCURVE",
"65 192 CURVE SMOOTH",
"36 163 OFFCURVE",
"18 126 OFFCURVE",
"18 89 CURVE",
"18 89 OFFCURVE",
"19 -13 OFFCURVE",
"68 -13 CURVE SMOOTH",
"115 -13 OFFCURVE",
"153 17 OFFCURVE",
"206 54 CURVE",
"207 40 OFFCURVE",
"213 0 OFFCURVE",
"248 0 CURVE SMOOTH",
"297 0 OFFCURVE",
"356 63 OFFCURVE",
"365 74 CURVE"
);
},
{
closed = 1;
nodes = (
"205 66 OFFCURVE",
"171 56 OFFCURVE",
"152 56 CURVE SMOOTH",
"133 56 OFFCURVE",
"83 75 OFFCURVE",
"83 131 CURVE SMOOTH",
"83 185 OFFCURVE",
"159 227 OFFCURVE",
"191 247 CURVE",
"192 243 OFFCURVE",
"198 239 OFFCURVE",
"199 227 CURVE SMOOTH",
"205 180 OFFCURVE",
"203 84 OFFCURVE",
"205 66 CURVE"
);
}
);
userData = {
com.fontlab.hintData = {
hhints = (
{
position = -13;
width = 468;
}
);
vhints = (
{
position = 83;
width = 122;
},
{
position = 155;
width = 64;
}
);
};
};
width = 339;
}
);
leftKerningGroup = a;
rightKerningGroup = a;
unicode = 00E4;
},
{
glyphname = agrave;
lastChange = "2021-06-23 18:22:13 +0000";
layers = (
{
layerId = master01;
paths = (
{
closed = 1;
nodes = (
"30 528 LINE SMOOTH",
"30 515 OFFCURVE",
"42 496 OFFCURVE",
"59 488 CURVE",
"82 489 OFFCURVE",
"99 500 OFFCURVE",
"119 500 CURVE SMOOTH",
"146 500 OFFCURVE",
"158 490 OFFCURVE",
"181 467 CURVE SMOOTH",
"205 443 OFFCURVE",
"233 404 OFFCURVE",
"267 357 CURVE",
"271 361 LINE",
"253 395 OFFCURVE",
"215 448 OFFCURVE",
"155 513 CURVE SMOOTH",
"132 538 OFFCURVE",
"113 554 OFFCURVE",
"81 554 CURVE SMOOTH",
"62 554 OFFCURVE",
"44 547 OFFCURVE",
"30 530 CURVE"
);
},
{
closed = 1;
nodes = (
"361 85 LINE",
"344 75 OFFCURVE",
"314 62 OFFCURVE",
"302 62 CURVE SMOOTH",
"289 62 OFFCURVE",
"278 66 OFFCURVE",
"273 83 CURVE SMOOTH",
"263 120 OFFCURVE",
"260 208 OFFCURVE",
"253 293 CURVE SMOOTH",
"252 302 OFFCURVE",
"239 304 OFFCURVE",
"229 304 CURVE SMOOTH",
"220 304 OFFCURVE",
"117 244 OFFCURVE",
"65 192 CURVE SMOOTH",
"36 163 OFFCURVE",
"18 126 OFFCURVE",
"18 89 CURVE",
"18 89 OFFCURVE",
"19 -13 OFFCURVE",
"68 -13 CURVE SMOOTH",
"115 -13 OFFCURVE",
"153 17 OFFCURVE",
"206 54 CURVE",
"207 40 OFFCURVE",
"213 0 OFFCURVE",
"248 0 CURVE SMOOTH",
"297 0 OFFCURVE",
"356 63 OFFCURVE",
"365 74 CURVE"
);
},
{
closed = 1;
nodes = (
"205 66 OFFCURVE",
"171 56 OFFCURVE",
"152 56 CURVE SMOOTH",
"133 56 OFFCURVE",
"83 75 OFFCURVE",
"83 131 CURVE SMOOTH",
"83 185 OFFCURVE",
"159 227 OFFCURVE",
"191 247 CURVE",
"192 243 OFFCURVE",
"198 239 OFFCURVE",
"199 227 CURVE SMOOTH",
"205 180 OFFCURVE",
"203 84 OFFCURVE",
"205 66 CURVE"
);
}
);
userData = {
com.fontlab.hintData = {
hhints = (
{
position = -13;
width = 567;
}
);
vhints = (
{
position = 83;
width = 122;
}
);
};
};
width = 339;
}
);
leftKerningGroup = a;
rightKerningGroup = a;
unicode = 00E0;
},
{
glyphname = amacron;
lastChange = "2021-06-23 18:22:13 +0000";
layers = (
{
layerId = master01;
paths = (
{
closed = 1;
nodes = (
"338 489 OFFCURVE",
"314 489 OFFCURVE",
"294 489 CURVE SMOOTH",
"262 489 OFFCURVE",
"174 468 OFFCURVE",
"135 468 CURVE SMOOTH",
"111 468 OFFCURVE",
"114 489 OFFCURVE",
"98 489 CURVE SMOOTH",
"74 489 OFFCURVE",
"45 452 OFFCURVE",
"45 435 CURVE SMOOTH",
"45 417 OFFCURVE",
"59 415 OFFCURVE",
"82 415 CURVE SMOOTH",
"109 415 OFFCURVE",
"224 434 OFFCURVE",
"252 434 CURVE SMOOTH",
"263 434 OFFCURVE",
"266 412 OFFCURVE",
"280 412 CURVE SMOOTH",
"308 412 OFFCURVE",
"338 455 OFFCURVE",
"338 471 CURVE SMOOTH"
);
},
{
closed = 1;
nodes = (
"361 85 LINE",
"344 75 OFFCURVE",
"314 62 OFFCURVE",
"302 62 CURVE SMOOTH",
"289 62 OFFCURVE",
"278 66 OFFCURVE",
"273 83 CURVE SMOOTH",
"263 120 OFFCURVE",
"260 208 OFFCURVE",
"253 293 CURVE SMOOTH",
"252 302 OFFCURVE",
"239 304 OFFCURVE",
"229 304 CURVE SMOOTH",
"220 304 OFFCURVE",
"117 244 OFFCURVE",
"65 192 CURVE SMOOTH",
"36 163 OFFCURVE",
"18 126 OFFCURVE",
"18 89 CURVE",
"18 89 OFFCURVE",
"19 -13 OFFCURVE",
"68 -13 CURVE SMOOTH",
"115 -13 OFFCURVE",
"153 17 OFFCURVE",
"206 54 CURVE",
"207 40 OFFCURVE",
"213 0 OFFCURVE",
"248 0 CURVE SMOOTH",
"297 0 OFFCURVE",
"356 63 OFFCURVE",
"365 74 CURVE"
);
},
{
closed = 1;
nodes = (
"205 66 OFFCURVE",
"171 56 OFFCURVE",
"152 56 CURVE SMOOTH",
"133 56 OFFCURVE",
"83 75 OFFCURVE",
"83 131 CURVE SMOOTH",
"83 185 OFFCURVE",
"159 227 OFFCURVE",
"191 247 CURVE",
"192 243 OFFCURVE",
"198 239 OFFCURVE",
"199 227 CURVE SMOOTH",
"205 180 OFFCURVE",
"203 84 OFFCURVE",
"205 66 CURVE"
);
}
);
userData = {
com.fontlab.hintData = {
hhints = (
{
position = -13;
width = 502;
}
);
vhints = (
{
position = 83;
width = 122;
}
);
};
};
width = 339;
}
);
leftKerningGroup = a;
rightKerningGroup = a;
unicode = 0101;
},
{
glyphname = aring;
lastChange = "2021-06-23 18:23:01 +0000";
layers = (
{
layerId = master01;
paths = (
{
closed = 1;
nodes = (
"115 -13 OFFCURVE",
"153 17 OFFCURVE",
"206 54 CURVE",
"207 40 OFFCURVE",
"213 0 OFFCURVE",
"248 0 CURVE SMOOTH",
"297 0 OFFCURVE",
"356 63 OFFCURVE",
"365 74 CURVE",
"361 85 LINE",
"344 75 OFFCURVE",
"314 62 OFFCURVE",
"302 62 CURVE SMOOTH",
"289 62 OFFCURVE",
"278 66 OFFCURVE",
"273 83 CURVE SMOOTH",
"263 120 OFFCURVE",
"260 208 OFFCURVE",
"253 293 CURVE SMOOTH",
"252 302 OFFCURVE",
"239 304 OFFCURVE",
"229 304 CURVE SMOOTH",
"220 304 OFFCURVE",
"117 244 OFFCURVE",
"65 192 CURVE SMOOTH",
"36 163 OFFCURVE",
"18 126 OFFCURVE",
"18 89 CURVE",
"18 89 OFFCURVE",
"19 -13 OFFCURVE",
"68 -13 CURVE SMOOTH"
);
},
{
closed = 1;
nodes = (
"133 56 OFFCURVE",
"83 75 OFFCURVE",
"83 131 CURVE SMOOTH",
"83 185 OFFCURVE",
"159 227 OFFCURVE",
"191 247 CURVE",
"192 243 OFFCURVE",
"198 239 OFFCURVE",
"199 227 CURVE SMOOTH",
"205 180 OFFCURVE",
"203 84 OFFCURVE",
"205 66 CURVE",
"205 66 OFFCURVE",
"171 56 OFFCURVE",
"152 56 CURVE SMOOTH"
);
},
{
closed = 1;
nodes = (
"196 367 OFFCURVE",
"244 399 OFFCURVE",
"263 432 CURVE SMOOTH",
"274 451 OFFCURVE",
"279 466 OFFCURVE",
"279 478 CURVE SMOOTH",
"279 497 OFFCURVE",
"271 515 OFFCURVE",
"255 531 CURVE SMOOTH",
"238 548 OFFCURVE",
"222 556 OFFCURVE",
"206 556 CURVE SMOOTH",
"157 556 OFFCURVE",
"112 518 OFFCURVE",
"90 484 CURVE SMOOTH",
"77 463 OFFCURVE",
"71 446 OFFCURVE",
"71 434 CURVE SMOOTH",
"71 398 OFFCURVE",
"109 367 OFFCURVE",
"146 367 CURVE SMOOTH"
);
},
{
closed = 1;
nodes = (
"144 402 OFFCURVE",
"124 430 OFFCURVE",
"124 466 CURVE SMOOTH",
"124 480 OFFCURVE",
"129 491 OFFCURVE",
"139 501 CURVE SMOOTH",
"150 512 OFFCURVE",
"158 517 OFFCURVE",
"165 517 CURVE SMOOTH",
"175 517 OFFCURVE",
"186 512 OFFCURVE",
"198 501 CURVE SMOOTH",
"216 485 OFFCURVE",
"226 470 OFFCURVE",
"226 443 CURVE SMOOTH",
"226 424 OFFCURVE",
"199 402 OFFCURVE",
"180 402 CURVE SMOOTH"
);
}
);
userData = {
com.fontlab.hintData = {
hhints = (
{
position = -13;
width = 317;
}
);
vhints = (
{
position = 83;
width = 122;
}
);
};
};
width = 339;
}
);
leftKerningGroup = a;
rightKerningGroup = a;
unicode = 00E5;
},
{
glyphname = atilde;
lastChange = "2021-06-23 18:22:13 +0000";
layers = (
{
layerId = master01;
paths = (
{
closed = 1;
nodes = (
"14 383 OFFCURVE",
"40 374 OFFCURVE",
"63 374 CURVE SMOOTH",
"73 374 OFFCURVE",
"83 376 OFFCURVE",
"91 379 CURVE SMOOTH",
"122 393 OFFCURVE",
"150 409 OFFCURVE",
"184 419 CURVE SMOOTH",
"190 421 OFFCURVE",
"194 422 OFFCURVE",
"199 422 CURVE SMOOTH",
"241 422 OFFCURVE",
"229 351 OFFCURVE",
"263 351 CURVE SMOOTH",
"289 351 OFFCURVE",
"307 376 OFFCURVE",
"322 389 CURVE SMOOTH",
"329 394 OFFCURVE",
"332 401 OFFCURVE",
"332 408 CURVE SMOOTH",
"332 417 OFFCURVE",
"327 426 OFFCURVE",
"320 432 CURVE SMOOTH",
"302 447 OFFCURVE",
"281 469 OFFCURVE",
"250 469 CURVE SMOOTH",
"238 469 OFFCURVE",
"228 466 OFFCURVE",
"218 462 CURVE SMOOTH",
"199 456 OFFCURVE",
"180 447 OFFCURVE",
"164 439 CURVE SMOOTH",
"156 435 OFFCURVE",
"148 433 OFFCURVE",
"140 433 CURVE SMOOTH",
"121 433 OFFCURVE",
"105 444 OFFCURVE",
"101 464 CURVE SMOOTH",
"99 476 OFFCURVE",
"93 480 OFFCURVE",
"86 480 CURVE SMOOTH",
"76 480 OFFCURVE",
"64 473 OFFCURVE",
"58 468 CURVE SMOOTH",
"41 454 OFFCURVE",
"14 434 OFFCURVE",
"14 404 CURVE SMOOTH"
);
},
{
closed = 1;
nodes = (
"361 85 LINE",
"344 75 OFFCURVE",
"314 62 OFFCURVE",
"302 62 CURVE SMOOTH",
"289 62 OFFCURVE",
"278 66 OFFCURVE",
"273 83 CURVE SMOOTH",
"263 120 OFFCURVE",
"260 208 OFFCURVE",
"253 293 CURVE SMOOTH",
"252 302 OFFCURVE",
"239 304 OFFCURVE",
"229 304 CURVE SMOOTH",
"220 304 OFFCURVE",
"117 244 OFFCURVE",
"65 192 CURVE SMOOTH",
"36 163 OFFCURVE",
"18 126 OFFCURVE",
"18 89 CURVE",
"18 89 OFFCURVE",
"19 -13 OFFCURVE",
"68 -13 CURVE SMOOTH",
"115 -13 OFFCURVE",
"153 17 OFFCURVE",
"206 54 CURVE",
"207 40 OFFCURVE",
"213 0 OFFCURVE",
"248 0 CURVE SMOOTH",
"297 0 OFFCURVE",
"356 63 OFFCURVE",
"365 74 CURVE"
);
},
{
closed = 1;
nodes = (
"205 66 OFFCURVE",
"171 56 OFFCURVE",
"152 56 CURVE SMOOTH",
"133 56 OFFCURVE",
"83 75 OFFCURVE",
"83 131 CURVE SMOOTH",
"83 185 OFFCURVE",
"159 227 OFFCURVE",
"191 247 CURVE",
"192 243 OFFCURVE",
"198 239 OFFCURVE",
"199 227 CURVE SMOOTH",
"205 180 OFFCURVE",
"203 84 OFFCURVE",
"205 66 CURVE"
);
}
);
userData = {
com.fontlab.hintData = {
hhints = (
{
position = 304;
width = 47;
}
);
vhints = (
{
position = 83;
width = 122;
}
);
};
};
width = 339;
}
);
leftKerningGroup = a;
rightKerningGroup = a;
unicode = 00E3;
},
{
glyphname = ae;
lastChange = "2021-06-23 21:21:05 +0000";
layers = (
{
anchors = (
{
name = "Anchor-1";
position = "{233, 350}";
}
);
layerId = master01;
paths = (
{
closed = 1;
nodes = (
"481 175 OFFCURVE",
"464 174 OFFCURVE",
"444 174 CURVE SMOOTH",
"433 174 OFFCURVE",
"421 174 OFFCURVE",
"406 175 CURVE",
"417 192 OFFCURVE",
"426 205 OFFCURVE",
"426 236 CURVE SMOOTH",
"426 270 OFFCURVE",
"407 298 OFFCURVE",
"360 298 CURVE SMOOTH",
"336 298 OFFCURVE",
"296 272 OFFCURVE",
"280 262 CURVE",
"158 247 OFFCURVE",
"7 139 OFFCURVE",
"7 62 CURVE SMOOTH",
"7 9 OFFCURVE",
"34 -4 OFFCURVE",
"94 -4 CURVE SMOOTH",
"148 -4 OFFCURVE",
"185 28 OFFCURVE",
"210 49 CURVE",
"227 0 OFFCURVE",
"270 -17 OFFCURVE",
"293 -17 CURVE SMOOTH",
"342 -17 OFFCURVE",
"401 23 OFFCURVE",
"420 40 CURVE SMOOTH",
"424 45 OFFCURVE",
"422 51 OFFCURVE",
"417 53 CURVE SMOOTH",
"410 51 OFFCURVE",
"367 35 OFFCURVE",
"342 35 CURVE SMOOTH",
"312 35 OFFCURVE",
"278 55 OFFCURVE",
"278 85 CURVE SMOOTH",
"278 119 LINE",
"287 124 OFFCURVE",
"302 127 OFFCURVE",
"313 127 CURVE SMOOTH",
"366 127 OFFCURVE",
"419 127 OFFCURVE",
"450 133 CURVE SMOOTH",
"465 136 OFFCURVE",
"495 159 OFFCURVE",
"502 166 CURVE SMOOTH",
"504 169 OFFCURVE",
"505 171 OFFCURVE",
"505 174 CURVE SMOOTH",
"505 176 OFFCURVE",
"504 178 OFFCURVE",
"503 179 CURVE SMOOTH"
);
},
{
closed = 1;
nodes = (
"374 201 OFFCURVE",
"360 173 OFFCURVE",
"360 173 CURVE",
"341 172 OFFCURVE",
"299 165 OFFCURVE",
"278 155 CURVE",
"278 239 LINE",
"295 254 OFFCURVE",
"333 268 OFFCURVE",
"344 268 CURVE SMOOTH",
"374 268 OFFCURVE",
"374 246 OFFCURVE",
"374 226 CURVE SMOOTH"
);
},
{
closed = 1;
nodes = (
"174 53 OFFCURVE",
"178 49 OFFCURVE",
"141 49 CURVE SMOOTH",
"123 49 OFFCURVE",
"83 58 OFFCURVE",
"83 109 CURVE SMOOTH",
"83 147 OFFCURVE",
"144 190 OFFCURVE",
"206 206 CURVE",
"206 67 LINE"
);
}
);
userData = {
com.fontlab.hintData = {
hhints = (
{
position = 35;
width = 92;
},
{
position = 53;
width = 74;
},
{
position = 173;
width = 95;
},
{
position = 174;
width = 94;
}
);
vhints = (
{
position = 83;
width = 123;
},
{
position = 278;
width = 96;
}
);
};
};
width = 481;
}
);
leftKerningGroup = ae;
rightKerningGroup = ae;
unicode = 00E6;
},
{
glyphname = aeacute;
lastChange = "2021-06-23 18:34:57 +0000";
layers = (
{
layerId = master01;
paths = (
{
closed = 1;
nodes = (
"420 547 OFFCURVE",
"402 554 OFFCURVE",
"383 554 CURVE SMOOTH",
"351 554 OFFCURVE",
"332 538 OFFCURVE",
"309 513 CURVE SMOOTH",
"249 448 OFFCURVE",
"211 395 OFFCURVE",
"193 361 CURVE",
"197 357 LINE",
"231 404 OFFCURVE",
"259 443 OFFCURVE",
"283 467 CURVE SMOOTH",
"306 490 OFFCURVE",
"318 500 OFFCURVE",
"345 500 CURVE SMOOTH",
"365 500 OFFCURVE",
"382 489 OFFCURVE",
"405 488 CURVE",
"422 496 OFFCURVE",
"434 515 OFFCURVE",
"434 528 CURVE SMOOTH",
"434 530 LINE"
);
},
{
closed = 1;
nodes = (
"481 175 OFFCURVE",
"464 174 OFFCURVE",
"444 174 CURVE SMOOTH",
"433 174 OFFCURVE",
"421 174 OFFCURVE",
"406 175 CURVE",
"417 192 OFFCURVE",
"426 205 OFFCURVE",
"426 236 CURVE SMOOTH",
"426 270 OFFCURVE",
"407 298 OFFCURVE",
"360 298 CURVE SMOOTH",
"336 298 OFFCURVE",
"296 272 OFFCURVE",
"280 262 CURVE",
"158 247 OFFCURVE",
"7 139 OFFCURVE",
"7 62 CURVE SMOOTH",
"7 9 OFFCURVE",
"34 -4 OFFCURVE",
"94 -4 CURVE SMOOTH",
"148 -4 OFFCURVE",
"185 28 OFFCURVE",
"210 49 CURVE",
"227 0 OFFCURVE",
"270 -17 OFFCURVE",
"293 -17 CURVE SMOOTH",
"342 -17 OFFCURVE",
"401 23 OFFCURVE",
"420 40 CURVE SMOOTH",
"424 45 OFFCURVE",
"422 51 OFFCURVE",
"417 53 CURVE SMOOTH",
"410 51 OFFCURVE",
"367 35 OFFCURVE",
"342 35 CURVE SMOOTH",
"312 35 OFFCURVE",
"278 55 OFFCURVE",
"278 85 CURVE SMOOTH",
"278 119 LINE",
"287 124 OFFCURVE",
"302 127 OFFCURVE",
"313 127 CURVE SMOOTH",
"366 127 OFFCURVE",
"419 127 OFFCURVE",
"450 133 CURVE SMOOTH",
"465 136 OFFCURVE",
"495 159 OFFCURVE",
"502 166 CURVE SMOOTH",
"504 169 OFFCURVE",
"505 171 OFFCURVE",
"505 174 CURVE SMOOTH",
"505 176 OFFCURVE",
"504 178 OFFCURVE",
"503 179 CURVE SMOOTH"
);
},
{
closed = 1;
nodes = (
"374 201 OFFCURVE",
"360 173 OFFCURVE",
"360 173 CURVE",
"341 172 OFFCURVE",
"299 165 OFFCURVE",
"278 155 CURVE",
"278 239 LINE",
"295 254 OFFCURVE",
"333 268 OFFCURVE",
"344 268 CURVE SMOOTH",
"374 268 OFFCURVE",
"374 246 OFFCURVE",
"374 226 CURVE SMOOTH"
);
},
{
closed = 1;
nodes = (
"174 53 OFFCURVE",
"178 49 OFFCURVE",
"141 49 CURVE SMOOTH",
"123 49 OFFCURVE",
"83 58 OFFCURVE",
"83 109 CURVE SMOOTH",
"83 147 OFFCURVE",
"144 190 OFFCURVE",
"206 206 CURVE",
"206 67 LINE"
);
}
);
userData = {
com.fontlab.hintData = {
hhints = (
{
position = 35;
width = 92;
},
{
position = 53;
width = 74;
},
{
position = 173;
width = 95;
},
{
position = 174;
width = 94;
}
);
vhints = (
{
position = 83;
width = 123;
},
{
position = 278;
width = 96;
}
);
};
};
width = 481;
}
);
leftKerningGroup = ae;
rightKerningGroup = ae;
unicode = 01FD;
},
{
glyphname = uni01E3;
lastChange = "2021-06-23 18:34:57 +0000";
layers = (
{
layerId = master01;
paths = (
{
closed = 1;
nodes = (
"408 489 OFFCURVE",
"384 489 OFFCURVE",
"364 489 CURVE SMOOTH",
"332 489 OFFCURVE",
"244 468 OFFCURVE",
"205 468 CURVE SMOOTH",
"181 468 OFFCURVE",
"184 489 OFFCURVE",
"168 489 CURVE SMOOTH",
"144 489 OFFCURVE",
"115 452 OFFCURVE",
"115 435 CURVE SMOOTH",
"115 417 OFFCURVE",
"129 415 OFFCURVE",
"152 415 CURVE SMOOTH",
"179 415 OFFCURVE",
"294 434 OFFCURVE",
"322 434 CURVE SMOOTH",
"333 434 OFFCURVE",
"336 412 OFFCURVE",
"350 412 CURVE SMOOTH",
"378 412 OFFCURVE",
"408 455 OFFCURVE",
"408 471 CURVE SMOOTH"
);
},
{
closed = 1;
nodes = (
"481 175 OFFCURVE",
"464 174 OFFCURVE",
"444 174 CURVE SMOOTH",
"433 174 OFFCURVE",
"421 174 OFFCURVE",
"406 175 CURVE",
"417 192 OFFCURVE",
"426 205 OFFCURVE",
"426 236 CURVE SMOOTH",
"426 270 OFFCURVE",
"407 298 OFFCURVE",
"360 298 CURVE SMOOTH",
"336 298 OFFCURVE",
"296 272 OFFCURVE",
"280 262 CURVE",
"158 247 OFFCURVE",
"7 139 OFFCURVE",
"7 62 CURVE SMOOTH",
"7 9 OFFCURVE",
"34 -4 OFFCURVE",
"94 -4 CURVE SMOOTH",
"148 -4 OFFCURVE",
"185 28 OFFCURVE",
"210 49 CURVE",
"227 0 OFFCURVE",
"270 -17 OFFCURVE",
"293 -17 CURVE SMOOTH",
"342 -17 OFFCURVE",
"401 23 OFFCURVE",
"420 40 CURVE SMOOTH",
"424 45 OFFCURVE",
"422 51 OFFCURVE",
"417 53 CURVE SMOOTH",
"410 51 OFFCURVE",
"367 35 OFFCURVE",
"342 35 CURVE SMOOTH",
"312 35 OFFCURVE",
"278 55 OFFCURVE",
"278 85 CURVE SMOOTH",
"278 119 LINE",
"287 124 OFFCURVE",
"302 127 OFFCURVE",
"313 127 CURVE SMOOTH",
"366 127 OFFCURVE",
"419 127 OFFCURVE",
"450 133 CURVE SMOOTH",
"465 136 OFFCURVE",
"495 159 OFFCURVE",
"502 166 CURVE SMOOTH",
"504 169 OFFCURVE",
"505 171 OFFCURVE",
"505 174 CURVE SMOOTH",
"505 176 OFFCURVE",
"504 178 OFFCURVE",
"503 179 CURVE SMOOTH"
);
},
{
closed = 1;
nodes = (
"374 201 OFFCURVE",
"360 173 OFFCURVE",
"360 173 CURVE",
"341 172 OFFCURVE",
"299 165 OFFCURVE",
"278 155 CURVE",
"278 239 LINE",
"295 254 OFFCURVE",
"333 268 OFFCURVE",
"344 268 CURVE SMOOTH",
"374 268 OFFCURVE",
"374 246 OFFCURVE",
"374 226 CURVE SMOOTH"
);
},
{
closed = 1;
nodes = (
"174 53 OFFCURVE",
"178 49 OFFCURVE",
"141 49 CURVE SMOOTH",
"123 49 OFFCURVE",
"83 58 OFFCURVE",
"83 109 CURVE SMOOTH",
"83 147 OFFCURVE",
"144 190 OFFCURVE",
"206 206 CURVE",
"206 67 LINE"
);
}
);
userData = {
com.fontlab.hintData = {
hhints = (
{
position = 35;
width = 92;
},
{
position = 53;
width = 74;
},
{
position = 173;
width = 95;
},
{
position = 174;
width = 94;
}
);
vhints = (
{
position = 83;
width = 123;
},
{
position = 278;
width = 96;
}
);
};
};
width = 481;
}
);
leftKerningGroup = ae;
rightKerningGroup = ae;
unicode = 01E3;
},
{
glyphname = b;
lastChange = "2021-06-23 21:22:24 +0000";
layers = (
{
anchors = (
{
name = "Anchor-1";
position = "{185, 720}";
}
);
layerId = master01;
paths = (
{
closed = 1;
nodes = (
"322 159 OFFCURVE",
"310 238 OFFCURVE",
"251 238 CURVE SMOOTH",
"201 238 OFFCURVE",
"137 201 OFFCURVE",
"123 191 CURVE",
"123 307 OFFCURVE",
"126 367 OFFCURVE",
"141 497 CURVE SMOOTH",
"152 591 OFFCURVE",
"166 597 OFFCURVE",
"166 614 CURVE SMOOTH",
"166 660 OFFCURVE",
"139 693 OFFCURVE",
"111 693 CURVE SMOOTH",
"96 693 OFFCURVE",
"15 650 OFFCURVE",
"-2 635 CURVE SMOOTH",
"-5 632 OFFCURVE",
"-7 626 OFFCURVE",
"-7 620 CURVE SMOOTH",
"-7 615 OFFCURVE",
"-5 611 OFFCURVE",
"-2 609 CURVE SMOOTH",
"62 609 OFFCURVE",
"78 562 OFFCURVE",
"78 507 CURVE SMOOTH",
"78 390 OFFCURVE",
"77 351 OFFCURVE",
"58 242 CURVE SMOOTH",
"46 174 OFFCURVE",
"23 91 OFFCURVE",
"23 73 CURVE SMOOTH",
"23 51 OFFCURVE",
"64 -15 OFFCURVE",
"114 -15 CURVE SMOOTH",
"127 -15 OFFCURVE",
"322 27 OFFCURVE",
"322 100 CURVE SMOOTH"
);
},
{
closed = 1;
nodes = (
"245 67 OFFCURVE",
"235 50 OFFCURVE",
"189 50 CURVE SMOOTH",
"157 50 OFFCURVE",
"124 62 OFFCURVE",
"124 104 CURVE SMOOTH",
"124 154 LINE",
"140 177 OFFCURVE",
"152 180 OFFCURVE",
"164 180 CURVE SMOOTH",
"177 180 LINE SMOOTH",
"209 180 OFFCURVE",
"245 155 OFFCURVE",
"245 129 CURVE SMOOTH"
);
}
);
userData = {
com.fontlab.hintData = {
hhints = (
{
position = 50;
width = 130;
}
);
vhints = (
{
position = 123;
width = 122;
},
{
position = 124;
width = 121;
}
);
};
};
width = 334;
}
);
leftKerningGroup = b;
rightKerningGroup = b;
unicode = 0062;
},
{
glyphname = c;
lastChange = "2021-06-23 21:21:41 +0000";
layers = (
{
anchors = (
{
name = "Anchor-1";
position = "{133, 350}";
}
);
layerId = master01;
paths = (
{
closed = 1;
nodes = (
"235 46 OFFCURVE",
"235 48 OFFCURVE",
"235 50 CURVE SMOOTH",
"235 52 OFFCURVE",
"235 54 OFFCURVE",
"233 55 CURVE SMOOTH",
"221 51 OFFCURVE",
"198 43 OFFCURVE",
"168 43 CURVE SMOOTH",
"125 43 OFFCURVE",
"59 146 OFFCURVE",
"59 186 CURVE SMOOTH",
"59 213 OFFCURVE",
"81 233 OFFCURVE",
"101 233 CURVE SMOOTH",
"132 233 OFFCURVE",
"139 192 OFFCURVE",
"165 185 CURVE SMOOTH",
"178 185 OFFCURVE",
"209 213 OFFCURVE",
"213 226 CURVE",
"213 263 OFFCURVE",
"182 297 OFFCURVE",
"140 297 CURVE SMOOTH",
"110 297 OFFCURVE",
"21 232 OFFCURVE",
"21 143 CURVE SMOOTH",
"21 19 OFFCURVE",
"93 -11 OFFCURVE",
"114 -11 CURVE SMOOTH",
"171 -11 OFFCURVE",
"206 15 OFFCURVE",
"233 44 CURVE SMOOTH"
);
}
);
userData = {
com.fontlab.hintData = {
hhints = (
{
position = -11;
width = 308;
}
);
vhints = (
{
position = 21;
width = 214;
}
);
};
};
width = 238;
}
);
leftKerningGroup = c;
rightKerningGroup = c;
unicode = 0063;
},
{
glyphname = ccedilla;
lastChange = "2021-06-23 18:35:38 +0000";
layers = (
{
layerId = master01;
paths = (
{
closed = 1;
nodes = (
"3 -140 OFFCURVE",
"4 -142 OFFCURVE",
"5 -144 CURVE SMOOTH",
"18 -158 OFFCURVE",
"37 -173 OFFCURVE",
"57 -173 CURVE SMOOTH",
"62 -173 OFFCURVE",
"73 -171 OFFCURVE",
"89 -165 CURVE SMOOTH",
"114 -157 OFFCURVE",
"162 -133 OFFCURVE",
"162 -101 CURVE SMOOTH",
"162 -80 OFFCURVE",
"140 -51 OFFCURVE",
"128 -41 CURVE SMOOTH",
"124 -38 OFFCURVE",
"123 -35 OFFCURVE",
"123 -33 CURVE SMOOTH",
"123 -30 OFFCURVE",
"125 -27 OFFCURVE",
"129 -24 CURVE SMOOTH",
"159 -5 LINE",
"191 5 OFFCURVE",
"214 24 OFFCURVE",
"233 44 CURVE SMOOTH",
"235 46 OFFCURVE",
"235 48 OFFCURVE",
"235 50 CURVE SMOOTH",
"235 52 OFFCURVE",
"235 54 OFFCURVE",
"233 55 CURVE SMOOTH",
"221 51 OFFCURVE",
"198 43 OFFCURVE",
"168 43 CURVE SMOOTH",
"125 43 OFFCURVE",
"59 146 OFFCURVE",
"59 186 CURVE SMOOTH",
"59 213 OFFCURVE",
"81 233 OFFCURVE",
"101 233 CURVE SMOOTH",
"132 233 OFFCURVE",
"139 192 OFFCURVE",
"165 185 CURVE SMOOTH",
"178 185 OFFCURVE",
"209 213 OFFCURVE",
"213 226 CURVE",
"213 263 OFFCURVE",
"182 297 OFFCURVE",
"140 297 CURVE SMOOTH",
"110 297 OFFCURVE",
"21 232 OFFCURVE",
"21 143 CURVE SMOOTH",
"21 20 OFFCURVE",
"92 -11 OFFCURVE",
"114 -11 CURVE",
"77 -35 LINE SMOOTH",
"65 -43 OFFCURVE",
"59 -50 OFFCURVE",
"59 -55 CURVE SMOOTH",
"59 -58 OFFCURVE",
"61 -61 OFFCURVE",
"64 -63 CURVE SMOOTH",
"80 -76 OFFCURVE",
"91 -86 OFFCURVE",
"96 -92 CURVE SMOOTH",
"102 -99 OFFCURVE",
"104 -107 OFFCURVE",
"104 -115 CURVE SMOOTH",
"104 -120 OFFCURVE",
"104 -125 OFFCURVE",
"102 -129 CURVE SMOOTH",
"100 -134 OFFCURVE",
"97 -136 OFFCURVE",
"93 -136 CURVE SMOOTH",
"83 -136 OFFCURVE",
"68 -124 OFFCURVE",
"63 -119 CURVE SMOOTH",
"58 -115 OFFCURVE",
"54 -113 OFFCURVE",
"49 -113 CURVE SMOOTH",
"46 -113 OFFCURVE",
"43 -114 OFFCURVE",
"40 -115 CURVE SMOOTH",
"13 -128 LINE SMOOTH",
"6 -131 OFFCURVE",
"3 -134 OFFCURVE",
"3 -138 CURVE SMOOTH"
);
}
);
userData = {
com.fontlab.hintData = {
hhints = (
{
position = -173;
width = 470;
}
);
vhints = (
{
position = 3;
width = 232;
}
);
};
};
width = 238;
}
);
leftKerningGroup = c;
rightKerningGroup = c;
unicode = 00E7;
},
{
glyphname = d;
lastChange = "2021-06-23 21:23:03 +0000";
layers = (
{
anchors = (
{
name = "Anchor-1";
position = "{141, 561}";
}
);
layerId = master01;
paths = (
{
closed = 1;
nodes = (
"264 218 OFFCURVE",
"123 422 OFFCURVE",
"52 523 CURVE",
"44 527 OFFCURVE",
"39 528 OFFCURVE",
"20 528 CURVE SMOOTH",
"5 528 OFFCURVE",
"-2 502 OFFCURVE",
"-2 490 CURVE",
"55 399 OFFCURVE",
"114 291 OFFCURVE",
"143 230 CURVE",
"127 222 OFFCURVE",
"16 154 OFFCURVE",
"16 85 CURVE SMOOTH",
"16 1 OFFCURVE",
"84 -17 OFFCURVE",
"104 -17 CURVE SMOOTH",
"136 -17 OFFCURVE",
"264 21 OFFCURVE",
"264 127 CURVE SMOOTH"
);
},
{
closed = 1;
nodes = (
"201 54 OFFCURVE",
"181 26 OFFCURVE",
"150 26 CURVE SMOOTH",
"95 26 OFFCURVE",
"78 85 OFFCURVE",
"78 127 CURVE SMOOTH",
"78 153 OFFCURVE",
"138 196 OFFCURVE",
"161 196 CURVE",
"177 171 OFFCURVE",
"201 122 OFFCURVE",
"201 83 CURVE SMOOTH"
);
}
);
userData = {
com.fontlab.hintData = {
hhints = (
{
position = -17;
width = 545;
},
{
position = 26;
width = 170;
}
);
vhints = (
{
position = -2;
width = 266;
},
{
position = 78;
width = 123;
}
);
};
};
width = 274;
}
);
leftKerningGroup = d;
rightKerningGroup = d;
unicode = 0064;
},
{
glyphname = eth;
lastChange = "2021-06-23 20:44:37 +0000";
layers = (
{
anchors = (
{
name = "Anchor-1";
position = "{163, 634}";
}
);
layerId = master01;
paths = (
{
closed = 1;
nodes = (
"351 422 OFFCURVE",
"327 448 OFFCURVE",
"306 448 CURVE",
"293 440 OFFCURVE",
"213 384 OFFCURVE",
"199 373 CURVE",
"182 427 OFFCURVE",
"111 561 OFFCURVE",
"85 590 CURVE",
"85 590 OFFCURVE",
"74 592 OFFCURVE",
"65 592 CURVE SMOOTH",
"53 592 OFFCURVE",
"41 582 OFFCURVE",
"41 555 CURVE",
"56 517 OFFCURVE",
"119 419 OFFCURVE",
"143 329 CURVE",
"99 307 OFFCURVE",
"63 306 OFFCURVE",
"52 299 CURVE SMOOTH",
"41 294 OFFCURVE",
"-13 246 OFFCURVE",
"-30 202 CURVE",
"3 196 LINE",
"155 305 LINE",
"165 283 OFFCURVE",
"173 261 OFFCURVE",
"178 241 CURVE",
"127 226 OFFCURVE",
"29 177 OFFCURVE",
"29 80 CURVE SMOOTH",
"29 56 OFFCURVE",
"38 -11 OFFCURVE",
"116 -11 CURVE SMOOTH",
"183 -11 OFFCURVE",
"281 4 OFFCURVE",
"281 96 CURVE SMOOTH",
"281 153 OFFCURVE",
"228 314 OFFCURVE",
"209 354 CURVE",
"218 359 OFFCURVE",
"231 361 OFFCURVE",
"245 361 CURVE SMOOTH",
"274 361 OFFCURVE",
"308 353 OFFCURVE",
"320 353 CURVE SMOOTH",
"339 353 OFFCURVE",
"351 377 OFFCURVE",
"351 398 CURVE SMOOTH"
);
},
{
closed = 1;
nodes = (
"215 32 OFFCURVE",
"212 23 OFFCURVE",
"182 23 CURVE SMOOTH",
"142 23 OFFCURVE",
"81 77 OFFCURVE",
"81 123 CURVE SMOOTH",
"81 184 OFFCURVE",
"166 215 OFFCURVE",
"186 215 CURVE",
"202 181 OFFCURVE",
"215 140 OFFCURVE",
"215 97 CURVE SMOOTH"
);
}
);
userData = {
com.fontlab.hintData = {
hhints = (
{
position = 285;
width = 20;
}
);
vhints = (
{
position = 81;
width = 134;
}
);
};
};
width = 293;
}
);
leftKerningGroup = eth;
unicode = 00F0;
},
{
glyphname = e;
lastChange = "2021-06-23 21:21:15 +0000";
layers = (
{
anchors = (
{
name = "Anchor-1";
position = "{191, 350}";
}
);
layerId = master01;
paths = (
{
closed = 1;
nodes = (
"346 191 OFFCURVE",
"347 194 OFFCURVE",
"347 197 CURVE SMOOTH",
"347 200 OFFCURVE",
"345 204 OFFCURVE",
"343 205 CURVE SMOOTH",
"319 201 OFFCURVE",
"301 191 OFFCURVE",
"247 191 CURVE SMOOTH",
"233 191 LINE",
"248 209 OFFCURVE",
"254 230 OFFCURVE",
"254 244 CURVE SMOOTH",
"254 276 OFFCURVE",
"231 297 OFFCURVE",
"195 297 CURVE SMOOTH",
"142 297 OFFCURVE",
"64 268 OFFCURVE",
"28 181 CURVE SMOOTH",
"24 167 OFFCURVE",
"22 150 OFFCURVE",
"22 132 CURVE SMOOTH",
"22 84 OFFCURVE",
"55 -15 OFFCURVE",
"131 -15 CURVE SMOOTH",
"191 -15 OFFCURVE",
"225 16 OFFCURVE",
"258 49 CURVE SMOOTH",
"261 55 OFFCURVE",
"259 60 OFFCURVE",
"254 61 CURVE SMOOTH",
"239 56 OFFCURVE",
"212 46 OFFCURVE",
"186 46 CURVE SMOOTH",
"132 46 OFFCURVE",
"96 110 OFFCURVE",
"91 140 CURVE",
"118 145 OFFCURVE",
"173 145 OFFCURVE",
"214 145 CURVE SMOOTH",
"280 145 OFFCURVE",
"319 168 OFFCURVE",
"344 189 CURVE SMOOTH"
);
},
{
closed = 1;
nodes = (
"188 207 OFFCURVE",
"187 198 OFFCURVE",
"184 190 CURVE",
"141 189 OFFCURVE",
"109 184 OFFCURVE",
"82 177 CURVE",
"82 231 OFFCURVE",
"111 248 OFFCURVE",
"145 248 CURVE SMOOTH",
"175 248 OFFCURVE",
"188 237 OFFCURVE",
"188 214 CURVE SMOOTH"
);
}
);
userData = {
com.fontlab.hintData = {
hhints = (
{
position = 46;
width = 99;
},
{
position = 190;
width = 58;
},
{
position = 191;
width = 57;
}
);
vhints = (
{
position = 22;
width = 325;
},
{
position = 82;
width = 106;
}
);
};
};
width = 321;
}
);
leftKerningGroup = e;
rightKerningGroup = e;
unicode = 0065;
},
{
glyphname = eacute;
lastChange = "2021-06-23 21:21:25 +0000";
layers = (
{
layerId = master01;
paths = (
{
closed = 1;
nodes = (
"321 547 OFFCURVE",
"303 554 OFFCURVE",
"284 554 CURVE SMOOTH",
"252 554 OFFCURVE",
"233 538 OFFCURVE",
"210 513 CURVE SMOOTH",
"150 448 OFFCURVE",
"112 395 OFFCURVE",
"94 361 CURVE",
"98 357 LINE",
"132 404 OFFCURVE",
"160 443 OFFCURVE",
"184 467 CURVE SMOOTH",
"207 490 OFFCURVE",
"219 500 OFFCURVE",
"246 500 CURVE SMOOTH",
"266 500 OFFCURVE",
"283 489 OFFCURVE",
"306 488 CURVE",
"323 496 OFFCURVE",
"335 515 OFFCURVE",
"335 528 CURVE SMOOTH",
"335 530 LINE"
);
},
{
closed = 1;
nodes = (
"346 191 OFFCURVE",
"347 194 OFFCURVE",
"347 197 CURVE SMOOTH",
"347 200 OFFCURVE",
"345 204 OFFCURVE",
"343 205 CURVE SMOOTH",
"319 201 OFFCURVE",
"301 191 OFFCURVE",
"247 191 CURVE SMOOTH",
"233 191 LINE",
"248 209 OFFCURVE",
"254 230 OFFCURVE",
"254 244 CURVE SMOOTH",
"254 276 OFFCURVE",
"231 297 OFFCURVE",
"195 297 CURVE SMOOTH",
"142 297 OFFCURVE",
"64 268 OFFCURVE",
"28 181 CURVE SMOOTH",
"24 167 OFFCURVE",
"22 150 OFFCURVE",
"22 132 CURVE SMOOTH",
"22 84 OFFCURVE",
"55 -15 OFFCURVE",
"131 -15 CURVE SMOOTH",
"191 -15 OFFCURVE",
"225 16 OFFCURVE",
"258 49 CURVE SMOOTH",
"261 55 OFFCURVE",
"259 60 OFFCURVE",
"254 61 CURVE SMOOTH",
"239 56 OFFCURVE",
"212 46 OFFCURVE",
"186 46 CURVE SMOOTH",
"132 46 OFFCURVE",
"96 110 OFFCURVE",
"91 140 CURVE",
"118 145 OFFCURVE",
"173 145 OFFCURVE",
"214 145 CURVE SMOOTH",
"280 145 OFFCURVE",
"319 168 OFFCURVE",
"344 189 CURVE SMOOTH"
);
},
{
closed = 1;
nodes = (
"188 207 OFFCURVE",
"187 198 OFFCURVE",
"184 190 CURVE",
"141 189 OFFCURVE",
"109 184 OFFCURVE",
"82 177 CURVE",
"82 231 OFFCURVE",
"111 248 OFFCURVE",
"145 248 CURVE SMOOTH",
"175 248 OFFCURVE",
"188 237 OFFCURVE",
"188 214 CURVE SMOOTH"
);
}
);
userData = {
com.fontlab.hintData = {
hhints = (
{
position = 46;
width = 99;
},
{
position = 190;
width = 58;
},
{
position = 191;
width = 57;
}
);
vhints = (
{
position = 22;
width = 325;
},
{
position = 82;
width = 106;
}
);
};
};
width = 321;
}
);
leftKerningGroup = eaccent;
rightKerningGroup = e;
unicode = 00E9;
},
